<svg viewBox="-2 0 474 474.625" xmlns="http://www.w3.org/2000/svg"><path d="m177.4375 468.625h263.007812v-211.480469h-263.207031zm0 0" fill="#f5ecdb"/><path d="m179.101562 256.695312h261.34375v25.847657h-261.34375zm0 0" fill="#e2a176"/><path d="m149.625 257.144531h312.257812c1.488282 0 2.703126-1.222656 2.703126-2.71875v-64.34375c0-1.496093-1.214844-2.71875-2.703126-2.71875h-309.566406c-1.488281 0-2.691406 1.222657-2.691406 2.71875zm0 0" fill="#f5ecdb"/><path d="m260.96875 256.34375h92.273438v211.925781h-92.273438zm0 0" fill="#f6a8a4"/><path d="m260.96875 256.695312h92.273438v25.847657h-92.273438zm0 0" fill="#f66e6a"/><path d="m329.152344 258.796875v79.585937c0 .488282-.582032.75-.945313.417969l-17.9375-16.222656c-.546875-.492187-1.371093-.511719-1.9375-.042969l-20.089843 16.644532c-.230469.191406-.574219.027343-.574219-.269532v-82.214844" fill="#ef9a60"/><path d="m269.949219 187.589844h74.3125v68.433594h-74.3125zm0 0" fill="#f66e6a"/><path d="m331.597656 187.367188c-.007812-.308594-.046875-.597657-.078125-.898438-.019531-.148438-.03125-.3125-.058593-.449219-1.191407-8.601562-6.820313-15.78125-14.511719-19.128906-3.011719-1.332031-6.339844-2.0625-9.851563-2.0625-3.789062 0-7.390625.859375-10.601562 2.410156-.296875.140625-.589844.289063-.878906.441407-6.839844 3.605468-11.769532 10.355468-12.859376 18.339843-.039062.136719-.050781.296875-.070312.449219-.027344.300781-.070312.589844-.089844.898438" fill="#f5ecdb"/><path d="m295.621094 168.574219c-6.839844 3.609375-11.773438 10.359375-12.863282 18.339843h-20.507812l-28.089844-48.6875c-3.5-6.0625-7.878906-11.089843-12.832031-15.101562l-.007813-.03125c.976563-2.6875 2.210938-5.347656 3.71875-7.957031 5.070313-8.78125 12.210938-15.183594 20.289063-19.183594.0625-.039063.121094-.066406.179687-.097656h.011719c7.441407 4.039062 13.988281 10.160156 18.730469 18.378906zm0 0" fill="#ed9b7c"/><path d="m248.386719 184.335938-8.398438-4.6875s-24.253906-15.644532-21.167969-46.035157c.75-6.230469 2.761719-12.488281 6.21875-18.480469 5.070313-8.777343 12.210938-15.179687 20.292969-19.179687-7.132812-3.839844-15.0625-5.761719-23-5.761719-16.300781 0-32.582031 8.070313-41.890625 24.183594-18.621094 32.238281 4.648438 72.539062 41.878906 72.539062h35.261719c-2.664062-.511718-6.746093-1.65625-9.195312-2.578124zm0 0" fill="#f9c7bb"/><path d="m318.183594 168.574219c6.839844 3.609375 11.769531 10.359375 12.859375 18.339843h20.507812l28.09375-48.6875c3.5-6.0625 7.878907-11.089843 12.828125-15.101562l.011719-.03125c-.980469-2.6875-2.210937-5.347656-3.722656-7.957031-5.070313-8.78125-12.210938-15.183594-20.289063-19.183594-.058594-.039063-.121094-.066406-.179687-.097656h-.011719c-7.4375 4.039062-13.988281 10.160156-18.730469 18.378906zm0 0" fill="#ed9b7c"/><path d="m356.222656 186.914062h35.261719c37.226563 0 60.5-40.300781 41.878906-72.539062-9.3125-16.109375-25.589843-24.179688-41.890625-24.179688-7.941406 0-15.871094 1.917969-23 5.757813 8.078125 4 15.21875 10.402344 20.289063 19.183594 3.460937 5.988281 5.472656 12.25 6.222656 18.476562 3.085937 30.390625-21.167969 46.035157-21.167969 46.035157l-8.398437 4.691406c-2.453125.917968-6.535157 2.0625-9.195313 2.574218zm0 0" fill="#f9c7bb"/><path d="m12.882812 468.625h184.132813v-118.273438h-184.269531zm0 0" fill="#f6a8a4"/><path d="m201.335938 350.351562h-193.921876c-1.410156 0-2.554687-1.144531-2.554687-2.554687v-65.652344c0-1.410156 1.144531-2.554687 2.554687-2.554687h193.921876c1.414062 0 2.558593 1.144531 2.558593 2.554687v65.652344c0 1.410156-1.144531 2.554687-2.558593 2.554687zm0 0" fill="#f6a8a4"/><path d="m13.675781 350.011719h183.523438v24.550781h-183.523438zm0 0" fill="#f66e6a"/><path d="m126.582031 449.253906-17.9375-19.539062c-.542969-.597656-1.367187-.617188-1.9375-.054688l-20.089843 20.050782c-.226563.230468-.574219.03125-.574219-.324219v-99.035157h41.484375v98.394532c.003906.59375-.582032.90625-.945313.507812zm0 0" fill="#ef9a60"/><path d="m75.957031 279.589844h59.960938v70.761718h-59.960938zm0 0" fill="#f5ecdb"/><path d="m95.984375 261.429688c-4.828125 2.546874-11.226563 11.964843-11.992187 17.597656h-10.144532l-19.828125-34.367188c-2.46875-4.273437-5.5625-7.824218-9.054687-10.65625l-.007813-.019531c.691407-1.898437 1.558594-3.777344 2.625-5.621094 3.578125-6.195312 8.617188-10.714843 14.320313-13.535156.042968-.027344.085937-.050781.128906-.070313h.007812c5.25 2.851563 9.875 7.171876 13.21875 12.972657zm0 0" fill="#f66e6a"/><path d="m64.0625 277.210938-5.929688-3.3125s-17.121093-11.042969-14.941406-32.492188c.53125-4.394531 1.949219-8.816406 4.390625-13.042969 3.582031-6.199219 8.621094-10.714843 14.324219-13.539062-5.035156-2.710938-10.632812-4.0625-16.234375-4.0625-11.507813 0-22.996094 5.695312-29.570313 17.066406-13.140624 22.753906 3.285157 51.199219 29.5625 51.199219h24.886719c-1.875-.359375-4.757812-1.167969-6.488281-1.816406zm0 0" fill="#f9c7bb"/><path d="m115.648438 260.695312c4.824218 2.546876 13.5 8.921876 13.417968 18.046876l7.8125.285156 19.828125-34.367188c2.46875-4.273437 5.5625-7.824218 9.054688-10.65625l.007812-.019531c-.691406-1.898437-1.558593-3.777344-2.625-5.621094-3.578125-6.195312-8.617187-10.714843-14.320312-13.535156-.042969-.027344-.085938-.050781-.128907-.070313h-.003906c-5.253906 2.851563-9.875 7.171876-13.222656 12.972657zm0 0" fill="#f66e6a"/><path d="m140.175781 279.027344h24.890625c26.277344 0 42.703125-28.441406 29.558594-51.199219-6.570312-11.371094-18.0625-17.066406-29.566406-17.066406-5.601563 0-11.199219 1.355469-16.234375 4.0625 5.703125 2.824219 10.746093 7.34375 14.324219 13.539062 2.441406 4.230469 3.859374 8.648438 4.390624 13.042969 2.175782 21.453125-14.941406 32.496094-14.941406 32.496094l-5.929687 3.308594c-1.730469.648437-4.613281 1.457031-6.492188 1.816406zm0 0" fill="#f9c7bb"/><path d="m130.21875 280.519531c-.011719-.3125-.050781-.601562-.078125-.902343-.023437-.148438-.03125-.308594-.0625-.449219-1.1875-8.601563-6.820313-15.78125-14.507813-19.128907-3.011718-1.332031-6.34375-2.0625-9.851562-2.0625-3.789062 0-7.390625.863282-10.601562 2.410157-.300782.140625-.589844.292969-.878907.441406-6.839843 3.609375-11.769531 10.359375-12.859375 18.339844-.039062.140625-.050781.300781-.070312.449219-.03125.300781-.070313.589843-.089844.898437" fill="#ef9a60"/><g fill="#edd7d4"><path d="m102.105469 128.203125h44.058593v12h-44.058593zm0 0"/><path d="m80.425781 128.203125h13.289063v12h-13.289063zm0 0"/><path d="m175.085938 27.3125h12v52.535156h-12zm0 0"/><path d="m143.085938 77.246094 10.597656 10.742187-8.542969 8.425781-10.597656-10.738281zm0 0"/><path d="m105.886719 39.558594 29.925781 30.328125-8.542969 8.429687-29.925781-30.328125zm0 0"/><path d="m175.085938 0h12v17.164062h-12zm0 0"/></g><path d="m461.882812 181.363281h-38.4375c3.960938-3.128906 7.527344-6.835937 10.582032-11.097656 10.253906-14.300781 13.046875-32.648437 7.476562-49.070313l-11.363281 3.855469c4.332031 12.769531 2.136719 27.058594-5.867187 38.226563-8.035157 11.210937-20.589844 17.640625-34.445313 17.640625h-9.53125c6.03125-5.128907 10.992187-11.578125 14.386719-19.007813 7.390625-16.175781 6.511718-34.320312-2.410156-49.777344-3.332032-5.769531-7.59375-10.796874-12.582032-14.910156 3.265625-.789062 6.65625-1.21875 10.136719-1.21875 12.9375 0 24.945313 5.699219 32.9375 15.636719.863281 1.074219 1.6875 2.210937 2.453125 3.371094l10.027344-6.59375c-.972656-1.476563-2.027344-2.925781-3.128906-4.296875-10.28125-12.785156-25.695313-20.117188-42.289063-20.117188-19.679687 0-37.308594 10.179688-47.152344 27.230469l-28.476562 49.324219c-2.304688-.546875-4.675781-.835938-7.097657-.835938-3.066406 0-6.050781.453125-8.894531 1.324219l-28.757812-49.8125c-5.0625-8.777344-12.347657-15.917969-21.0625-20.652344l-1.351563-.730469h-.046875c-7.589843-3.828124-16.09375-5.847656-24.695312-5.847656-5.277344 0-10.519531.753906-15.589844 2.242188l-4.3125 1.273437v.203125c-11.425781 4.4375-20.996094 12.660156-27.253906 23.507813-9.84375 17.050781-9.84375 37.40625 0 54.457031 3.566406 6.183594 8.164062 11.457031 13.507812 15.671875h-36.324219c-4.792968 0-8.691406 3.90625-8.691406 8.707031v20.226563c-5.445312 3.417969-10.082031 8.15625-13.464844 14.015625l-16.902343 29.277344c-2.171875-.519532-4.40625-.792969-6.6875-.792969-2.816407 0-5.613281.425781-8.285157 1.230469l-16.761718-29.445313c-7.269532-12.761719-20.292969-20.382813-34.847656-20.382813-14.554688 0-27.585938 7.621094-34.851563 20.382813-7.316406 12.855469-7.25 28.164063.1875 40.953125 1.734375 2.984375 3.800781 5.671875 6.117187 8.054688h-9.261718c-4.71875 0-8.558594 3.839843-8.558594 8.558593v65.648438c0 4.71875 3.839844 8.558593 8.558594 8.558593h70.960937v93.03125c0 2.617188 1.542969 4.953126 3.9375 5.941407.78125.324219 1.601563.484375 2.414063.484375 1.640625 0 3.246094-.644532 4.460937-1.855469l16.648438-16.613281 14.652343 15.96875c1.835938 1.996094 4.640626 2.65625 7.152344 1.675781 2.5625-.996094 4.214844-3.445313 4.214844-6.238281v-92.394532h57.890625v106.269532h-170.746094v-89.617188h-12v101.617188h194.742188v-118.289063c4.527343-.214843 8.148437-3.957031 8.148437-8.535156v-65.648437c0-4.71875-3.839844-8.558594-8.558594-8.558594h-9.277343c1.40625-1.445313 2.730469-2.996094 3.9375-4.671875 1.324219-1.839844 2.472656-3.773438 3.464843-5.773438h54.054688v199.480469h-33.644531v12h225.121093v-211.921875h15.4375c4.800782 0 8.703126-3.90625 8.703126-8.707031v-63.929688c0-4.800781-3.902344-8.703125-8.703126-8.703125zm-123.621093 68.660157h-62.3125v-56.433594h62.3125zm-113.550781-115.015626c1.554687 1.941407 2.980468 4.011719 4.25 6.214844l21.535156 37.316406c-17.007813-7.125-27.699219-25.089843-25.785156-43.53125zm159.054687 21.914063c-4.5 9.847656-12.476563 17.5-22.128906 21.578125l21.511719-37.277344c1.273437-2.207031 2.703124-4.277344 4.257812-6.21875.777344 7.363282-.425781 14.882813-3.640625 21.917969zm-30.699219-39.6875c3.460938-5.996094 8.167969-10.894531 13.691406-14.472656 6.207032 3.660156 11.394532 8.921875 15.117188 15.371093.632812 1.09375 1.195312 2.207032 1.722656 3.335938-4.21875 3.984375-7.859375 8.589844-10.839844 13.753906l-26.367187 45.691406h-10.191406c-1.992188-6.125-5.894531-11.5-11.070313-15.292968zm-38.515625 56.050781c3.628907 1.578125 6.613281 4.292969 8.578125 7.632813h-16.917968v-.003907h-15.140626c1.722657-2.9375 4.234376-5.390624 7.304688-7.011718.21875-.113282.4375-.226563.730469-.363282 2.492187-1.203124 5.183593-1.8125 7.992187-1.8125 2.605469-.003906 5.101563.519532 7.453125 1.558594zm-55.5-56.050781 28.582031 49.507813c-4.488281 3.710937-7.839843 8.632812-9.628906 14.171874h-12.285156l-26.363281-45.691406c-2.984375-5.167968-6.632813-9.777344-10.855469-13.769531.53125-1.128906 1.109375-2.238281 1.734375-3.316406 3.730469-6.457031 8.929687-11.726563 15.148437-15.390625 5.613282 3.617187 10.203126 8.476562 13.667969 14.488281zm-73.523437 0c5.480468-9.507813 14.203125-16.417969 24.554687-19.464844l.765625-.226562c3.730469-1.019531 7.574219-1.539063 11.441406-1.539063 3.429688 0 6.832032.417969 10.132813 1.214844-4.988281 4.117188-9.25 9.148438-12.578125 14.910156-1.644531 2.84375-3.042969 5.84375-4.171875 8.9375-1.386719 3.863282-2.332031 7.84375-2.808594 11.828125-2.210937 18.332031 5.355469 36.398438 18.929688 48.019531h-9.511719c-15.34375 0-29.082031-7.933593-36.757812-21.222656-7.671876-13.292968-7.671876-29.164062.003906-42.457031zm-55.828125 227.117187h-47.957031v-58.761718h47.957031zm-77.144531-87.628906c-1.332032-2.914062-2.132813-5.953125-2.429688-9.011718l11.730469 20.332031c-3.960938-2.84375-7.199219-6.722657-9.300781-11.320313zm97.246093 11.320313 11.734375-20.332031c-.296875 3.058593-1.097656 6.097656-2.429687 9.011718-2.101563 4.601563-5.34375 8.476563-9.304688 11.320313zm-9.246093-37.730469c2.105468-3.648438 4.90625-6.675781 8.179687-8.992188 3.703125 2.398438 6.824219 5.667969 9.113281 9.625.207032.363282.402344.734376.59375 1.105469-2.707031 2.714844-5.066406 5.792969-7.035156 9.203125l-17.769531 30.789063c-1.832031-5.230469-5.171875-9.847657-9.535157-13.238281zm-27.308594 35.882812c3.449218 1.503907 6.246094 4.152344 7.996094 7.394532h-29.359376c1.546876-2.878906 3.941407-5.292969 6.921876-6.867188 2.398437-1.277344 5.007812-1.925781 7.765624-1.925781 2.332032 0 4.566407.464844 6.675782 1.398437zm-42.152344-35.675781 16.6875 29.308594c-4.179688 3.632813-7.238281 8.417969-8.761719 13.761719h-.105469l-18.660156-32.335938c-1.96875-3.410156-4.328125-6.488281-7.035156-9.203125.191406-.371093.382812-.742187.597656-1.105469 2.269532-3.9375 5.371094-7.191406 9.050782-9.585937 3.289062 2.351563 6.105468 5.4375 8.226562 9.160156zm-48.707031 28.984375c-5.261719-9.054687-5.3125-19.890625-.132813-28.984375 5.105469-8.96875 14.234375-14.320312 24.425782-14.320312 1.125 0 2.238281.078125 3.332031.207031-2.53125 2.515625-4.761719 5.367188-6.589844 8.539062-6.59375 11.414063-7.242187 24.816407-1.78125 36.765626 2.050781 4.488281 4.867187 8.492187 8.261719 11.878906h-3.230469c-10.082031 0-19.160156-5.265625-24.285156-14.085938zm-10.078125 84.847656v-58.761718h57.429687v58.761718zm109.003906 90.523438-8.464844-9.21875c-1.378906-1.507812-3.246094-2.359375-5.253906-2.402344-2.011719-.03125-3.898438.726563-5.339844 2.160156l-10.425781 10.40625v-79.46875h29.480469v78.523438zm78.035156-90.523438h-57.648437v-58.761718h57.648437zm-37.589844-70.761718c3.394532-3.386719 6.210938-7.394532 8.261719-11.878906 5.460938-11.949219 4.8125-25.351563-1.78125-36.765626-1.832031-3.175781-4.0625-6.027343-6.59375-8.542968 1.101563-.128906 2.214844-.203125 3.34375-.203125 8.601563 0 16.578125 3.785156 21.886719 10.382812.574219.71875 1.125 1.472657 1.632812 2.246094l10.027344-6.59375c-.71875-1.089844-1.496094-2.15625-2.3125-3.171875-7.597656-9.445312-18.980468-14.863281-31.234375-14.863281-3.210937 0-6.34375.386719-9.363281 1.097656v-11.933594h108.324219v57.332031h-8.980469v.003907h-50.164062c.898437-6.21875.386718-12.621094-1.644532-18.691407l-11.382812 3.808594c2.925781 8.738282 1.40625 18.492188-4.0625 26.089844-5.347656 7.425781-13.628906 11.683594-22.726563 11.683594zm118.605469-10.445313v75.765625c0 2.453125 1.433594 4.710938 3.652344 5.75.855469.402344 1.773437.597656 2.691406.597656 1.457031 0 2.902344-.496093 4.054688-1.457031l17.078125-14.144531 15.035156 13.597656c1.921875 1.738282 4.695312 2.183594 7.066406 1.132813 2.371094-1.054688 3.902344-3.410157 3.902344-6.003907v-62.375h-12v50.136719l-8.855469-8.015625c-2.738281-2.472656-6.945312-2.566406-9.789062-.210937l-10.839844 8.980469v-63.75h54.878906v199.125h-80.269531v-199.128907zm154.082031 199.480469h-75.203124v-199.480469h75.203124zm24.140626-211.921875h-99.34375v-.007813h-8.980469v-57.332031h108.324219zm0 0"/><path d="m144.347656 149.742188h10.554688v10.554687h-10.554688zm0 0"/><path d="m101.796875 204.921875h10.554687v10.554687h-10.554687zm0 0"/><path d="m301.828125 95.710938h10.554687v10.554687h-10.554687zm0 0"/><path d="m236.511719 48.632812h10.558593v10.558594h-10.558593zm0 0"/><path d="m365.042969 43.355469h10.554687v10.558593h-10.554687zm0 0"/><path d="m33.667969 162.503906h10.558593v10.554688h-10.558593zm0 0"/><path d="m115.519531 110.542969h44.332031v12h-44.332031zm0 0"/><path d="m93.703125 110.542969h13.371094v12h-13.371094zm0 0"/><path d="m191.101562 27.480469h12v52.863281h-12zm0 0"/><path d="m174.78125 85.382812-8.542969 8.429688-10.664062-10.808594 8.542969-8.429687zm0 0"/><path d="m126.691406 36.664062 30.113282 30.515626-8.542969 8.429687-30.113281-30.515625zm0 0"/><path d="m191.101562 0h12v17.269531h-12zm0 0"/></svg>