<svg viewBox="0 -23 469.0896 469" xmlns="http://www.w3.org/2000/svg"><path d="m220.910156 180.492188h11.488282v11.492187h-11.488282zm0 0" fill="#edd7d6"/><path d="m274.347656 115.394531h11.492188v11.492188h-11.492188zm0 0" fill="#edd7d6"/><path d="m372.269531 206.363281h11.488281v11.492188h-11.488281zm0 0" fill="#edd7d6"/><path d="m117.496094 15.71875c8.832031-9.132812 22.660156-12.195312 34.65625-7.402344 17.789062 7.136719 25.164062 27.785156 16.550781 44.375 8.613281-16.589844 29.757813-22.433594 45.8125-11.984375 11.90625 7.746094 17.308594 22.773438 12.957031 36.289063-.507812 1.570312-1.113281 3.046875-1.808594 4.464844-3.175781 6.480468-8.730468 11.476562-15.324218 14.410156l-10.578125 4.707031-59.792969 21.675781c-4.921875 2.1875-10.605469-.757812-11.640625-6.046875l-10.832031-39.917969" fill="#f6a8a4"/><path d="m66.277344 52.691406c-8.613282-16.585937-29.753906-22.4375-45.816406-11.984375-11.910157 7.746094-17.304688 22.769531-12.949219 36.292969.5 1.5625 1.105469 3.046875 1.800781 4.460938 3.183594 6.476562 8.738281 11.480468 15.332031 14.410156l10.574219 4.707031 59.789062 21.671875c4.921876 2.191406 10.601563-.757812 11.644532-6.046875l16.660156-61.371094 2.234375-11.359375c1.394531-7.078125.496094-14.5-2.96875-20.828125-.757813-1.378906-1.625-2.730469-2.613281-4.039062-8.554688-11.34375-23.949219-15.570313-37.136719-10.285157-17.789063 7.128907-25.164063 27.785157-16.550781 44.371094" fill="#ef9a60"/><path d="m329.082031 336.828125h82.84375c17.515625 0 51.164063-14.195313 51.164063-31.710937 0-17.511719-33.648438-31.707032-51.164063-31.707032h-380.671875c-2.730468 0-4.492187 2.230469-4.492187 4.535156 0 1.21875.484375 2.453126 1.609375 3.394532 5.601562 4.703125 11.398437 9.125 17.359375 13.257812l4.046875 2.691406c38.765625 25.78125 84.285156 39.539063 130.84375 39.539063zm0 0" fill="#f6a8a4"/><path d="m196.070312 413.65625 66-96.546875c.394532-.773437 1.230469-1.265625 2.148438-1.265625h83.371094c2.03125 0 3.128906 2.222656 1.8125 3.664062l-113.28125 96.546876c-.449219.496093-1.113282.78125-1.808594.78125h-36.09375c-1.746094 0-2.898438-1.703126-2.148438-3.179688zm0 0" fill="#f5ecdb"/><path d="m345.535156 273.410156c1.382813 0 2.285156-1.574218 1.683594-2.925781l-62.347656-117.730469c-.3125-.699218-.964844-1.144531-1.683594-1.144531h-28.804688c-1.15625 0-2.035156 1.128906-1.847656 2.367187l25.191406 119.546876" fill="#f5ecdb"/><path d="m16.015625 197.804688 25.097656 73.574218c.164063 1.238282 1.046875 2.144532 2.078125 2.144532h47.851563c1.628906 0 2.636719-2.140626 1.816406-3.839844l-50.847656-73.574219c-.375-.78125-1.066407-1.261719-1.8125-1.261719h-22.109375c-1.292969 0-2.28125 1.40625-2.074219 2.957032zm0 0" fill="#f66e6a"/><path d="m17.488281 348.546875 24.683594-52.527344c.335937-.859375 1.09375-1.414062 1.929687-1.414062h46.941407c1.863281 0 2.804687 2.515625 1.503906 4.011719l-49.945313 52.527343c-.394531.453125-.9375.710938-1.503906.710938h-21.679687c-1.519531 0-2.539063-1.746094-1.929688-3.308594zm0 0" fill="#f66e6a"/><g fill="#3b596d"><path d="m152.230469 299.375h11.488281v11.488281h-11.488281zm0 0"/><path d="m222.261719 299.375h11.488281v11.488281h-11.488281zm0 0"/><path d="m187.246094 299.375h11.488281v11.488281h-11.488281zm0 0"/><path d="m410.65625 299.375h11.492188v11.488281h-11.492188zm0 0"/><path d="m375.640625 299.375h11.488281v11.488281h-11.488281zm0 0"/></g><path d="m213.722656 171.148438h11.492188v11.488281h-11.492188zm0 0"/><path d="m267.160156 106.050781h11.492188v11.492188h-11.492188zm0 0"/><path d="m365.082031 197.019531h11.488281v11.488281h-11.488281zm0 0"/><path d="m209.902344 122.910156-21.316406 8.152344-4.289063-11.207031 21.316406-8.15625zm0 0"/><path d="m227.25 100.414062c-2.046875 1.640626-4.273438 3.128907-6.621094 4.421876-1.164062.640624-2.375 1.242187-3.601562 1.789062l4.882812 10.960938c1.53125-.683594 3.046875-1.433594 4.503906-2.238282 2.953126-1.625 5.761719-3.5 8.347657-5.578125 6.273437-5.03125 11.183593-11.109375 14.589843-18.058593 1.265626-2.578126 2.347657-5.25 3.21875-7.945313 2.886719-8.960937 3.445313-18.636719 1.621094-27.980469l-11.777344 2.296875c1.4375 7.359375 1 14.96875-1.265624 22-.703126 2.175781-1.542969 4.25-2.570313 6.34375-2.628906 5.359375-6.4375 10.0625-11.328125 13.988281zm0 0"/><path d="m411.925781 267.410156h-59.546875l-62.140625-117.339844c-1.320312-2.71875-4.0625-4.460937-7.050781-4.460937h-28.804688c-2.269531 0-4.425781.996094-5.917968 2.734375-1.542969 1.792969-2.21875 4.179688-1.859375 6.539062l21.585937 101.789063 11.738282-2.488281-20.488282-96.574219h21.210938l58.148437 109.800781h-93.5625c4.53125-13.09375 3.851563-25.882812-2.078125-37.421875-13.46875-26.203125-53.871094-45.289062-113.765625-53.746093-4.4375-.625-9.277343-1.570313-13.867187-2.984376 2.085937-16.75 15.230468-35.601562 22.679687-44.378906 1.355469-.15625 2.691407-.5 3.980469-1.046875l59.621094-21.613281 10.972656-4.863281c8.097656-3.605469 14.585938-9.734375 18.269531-17.246094.839844-1.710937 1.558594-3.484375 2.136719-5.273437 5.195312-16.136719-1.136719-33.882813-15.394531-43.15625-9.003907-5.859376-20.085938-7.664063-30.410157-4.945313-3.265624.859375-6.371093 2.144531-9.25 3.800781-.300781-3.300781-1.03125-6.578125-2.203124-9.738281-3.714844-10.007813-11.5625-18.046875-21.546876-22.050781-12.300781-4.914063-26.460937-2.851563-36.871093 4.988281-10.359375-7.863281-24.382813-10.003906-36.914063-4.984375-9.972656 3.996094-17.824218 12.03125-21.535156 22.039062-1.175781 3.164063-1.910156 6.441407-2.210938 9.75-2.878906-1.65625-5.980468-2.945312-9.246093-3.804687-10.324219-2.71875-21.410157-.914063-30.414063 4.941406-14.257812 9.277344-20.585937 27.027344-15.390625 43.164063.578125 1.796875 1.292969 3.570312 2.128907 5.269531 3.695312 7.523437 10.1875 13.648437 18.277343 17.246094l10.574219 4.707031 59.125 21.449219c-5.28125 8.765625-11.476562 23.011719-6.472656 36.148437 2.871094 7.542969 8.90625 13.46875 17.980468 17.761719.226563 2.460937.679688 4.898437 1.402344 7.289063 4.335938 14.371093 17.125 24.335937 38.015625 29.613281 41.511719 10.496093 59.28125 24.933593 66.875 35.199219 4.164063 5.625 5.722657 10.515624 6.28125 13.886718h-118.253906c-.046875-.113281-.085937-.230468-.140625-.34375l-.199219-.414062-50.917969-73.679688c-1.453124-2.558594-4.066406-4.125-6.941406-4.125h-22.105468c-2.261719 0-4.429688 1-5.957032 2.738282-1.652344 1.894531-2.40625 4.449218-2.066406 7.015624l.078125.585938 23.273437 68.222656h-1.503906c-5.785156 0-10.492187 4.726563-10.492187 10.535156 0 3.078126 1.367187 5.992188 3.75 7.992188 3.574219 3 7.269531 5.898438 11.023437 8.699219l-24.136718 51.359375-.160157.371094c-1.03125 2.644531-.699219 5.621093.894531 7.953124 1.515626 2.214844 3.988282 3.535157 6.625 3.535157h21.679688c2.238281 0 4.386719-.960938 5.910156-2.640625l49.886719-52.464844.175781-.191406c2.183594-2.507813 2.695313-6.101563 1.304688-9.15625-1.34375-2.957032-4.152344-4.796875-7.332032-4.796875h-42.734374c-4.144532-2.921875-8.230469-5.996094-12.1875-9.195313h5.738281c.433593.074219.875.113282 1.328125.113282h47.855468c.425782 0 .847657-.046876 1.261719-.113282h320.28125c15.796875 0 45.164063 13.214844 45.164063 25.707032 0 12.496093-29.367188 25.710937-45.164063 25.710937h-66.554687l7.921875-6.753906.539062-.519531c2.175781-2.378907 2.746094-5.816407 1.453125-8.753907-1.328125-3.011719-4.347656-4.957031-7.695312-4.957031h-83.371094c-3.023438 0-5.757812 1.558594-7.253906 4.101562l-11.539063 16.882813h-64.730469c-27.386718 0-54.304687-4.816406-79.996093-14.316406l-4.164063 11.253906c27.03125 9.996094 55.347656 15.0625 84.160156 15.0625h56.527344l-46.105468 67.445313-.390626.660156c-1.292968 2.53125-1.175781 5.492187.308594 7.914062 1.53125 2.496094 4.214844 3.988282 7.183594 3.988282h36.09375c2.210938 0 4.335938-.863282 5.894531-2.378907l91.082031-77.628906h80.636719c20.078125 0 57.164063-15.550781 57.164063-37.710937 0-22.15625-37.082032-37.707032-57.164063-37.707032zm-373.234375 78.445313h-13.96875l21.261719-45.25h35.730469zm111.226563-331.96875c6.941406 2.785156 12.183593 8.140625 14.757812 15.082031 2.539063 6.84375 2.0625 14.480469-1.296875 20.953125l10.648438 5.535156c3.363281-6.480469 9.34375-11.257812 16.410156-13.121093 7.152344-1.882813 14.546875-.675782 20.808594 3.402343 9.730468 6.328125 14.054687 18.425781 10.515625 29.414063-.402344 1.257812-.890625 2.453125-1.484375 3.667968-2.449219 5-6.847656 9.109376-12.375 11.570313l-10.382813 4.621094-59.597656 21.601562-.390625.15625c-.917969.40625-1.695312.136719-2.074219-.0625-.382812-.199219-1.050781-.675781-1.242187-1.660156l-10.503906-38.777344 5.394531-19.867187 2.332031-11.769532c1.707031-8.6875.429688-17.519531-3.597656-24.875-.605469-1.105468-1.289063-2.175781-2.003906-3.222656 6.984374-4.714844 16.109374-5.835937 24.082031-2.648437zm-122.835938 76.503906c-5.527343-2.457031-9.925781-6.566406-12.382812-11.574219-.578125-1.175781-1.074219-2.40625-1.476563-3.652344-3.542968-10.996093.78125-23.097656 10.511719-29.425781 6.261719-4.078125 13.65625-5.285156 20.8125-3.398437 7.0625 1.859375 13.042969 6.640625 16.40625 13.117187l10.648437-5.527343c-3.363281-6.476563-3.835937-14.117188-1.292968-20.964844 2.574218-6.941406 7.8125-12.292969 14.75-15.074219 10.773437-4.316406 23.160156-.894531 30.113281 8.328125.792969 1.050781 1.515625 2.164062 2.144531 3.3125 2.679688 4.890625 3.511719 10.851562 2.34375 16.789062l-2.195312 11.148438-16.605469 61.167969-.097656.414062c-.191407.980469-.859375 1.460938-1.242188 1.660157-.382812.195312-1.160156.46875-2.074219.0625l-59.980468-21.765626zm69.574219 69.023437c-4.386719-11.460937 5.945312-27.390624 10.296875-32.558593l-.441406-.375c3.058593-2.074219 5.195312-5.222657 5.980469-8.882813l5-18.421875 4.996093 18.421875c.574219 2.6875 1.882813 5.097656 3.75 7.015625-6.742187 8.582031-18.628906 25.710938-22.050781 43.535157-3.464844-2.300782-6.164062-5.164063-7.53125-8.734376zm49.113281 47.277344c-16.105469-4.070312-25.914062-11.042968-29.207031-20.707031 3.457031.855469 7.164062 1.578125 11.152344 2.140625 55.925781 7.894531 93.136718 24.710938 104.773437 47.347656 5.003907 9.734375 4.9375 20.464844-.148437 31.9375h-4.265625c-1.449219-13.617187-12.972657-43.199218-82.304688-60.71875zm-123.039062-5.84375h14.601562l46 66.5625h-37.894531zm210.269531 209.988282h-27.730469l60.832031-88.992188h71.3125zm0 0"/><path d="m267.160156 293.375h36.902344v12h-36.902344zm0 0"/></svg>