<svg viewBox="0 -34 496.598 496" xmlns="http://www.w3.org/2000/svg"><g fill="#edd7d6"><path d="m496.597656 210.316406-53.988281-19.300781-15.941406 44.609375v-129.277344h-109.199219l-4.734375 221.300782c0 33.832031 22.84375 61.261718 51.023437 61.261718h62.1875c.398438 0 .71875-.386718.71875-.863281v1.378906zm0 0"/><path d="m322.636719 161.289062-22.277344-102.949218c-3.410156-21.6875-20.839844-33.660156-20.839844-33.660156-.003906 0-.003906-.003907-.007812-.003907l-55.65625-24.375h-76.328125l-56.664063 24.378907c-.050781.023437-.082031.082031-.078125.140624l14.074219 137.367188-14.085937 121.570312h66.8125c10.976562 0 20.339843-8.621093 22.113281-20.359374l6.996093-46.378907 11.890626 48.875c2.558593 10.527344 11.347656 17.863281 21.394531 17.863281h59.632812l-.003906-.03125 23.296875.03125zm-48.585938 74.476563-8.523437-73.578125 4.441406-43.371094 15.640625 45.378906-11.898437 67.773438zm0 0"/><path d="m295.414062 364.578125c0-8.804687-6.53125-16.035156-14.789062-16.375l-31.148438-1.28125c-10.242187-.425781-20.417968-2.277344-30.09375-5.882813-7.980468-2.96875-15.53125-6.953124-22.472656-12.496093l-36.542968-30.605469c-2.921876-2.460938-9-3.710938-11.410157 2.039062-2.011719 5.304688-11.78125 27.511719-50.574219 32.203126-23.773437 2.875-49-7.066407-61.5625-13.03125-4.363281-2.074219-9.566406.542968-10.554687 5.523437-7.855469 39.734375-1.316406 51.925781-1.316406 51.925781l37.449219-.5h20.238281c13.433593 0 32.992187 4.863282 50.011719 10.960938 12.25 4.390625 25.113281 6.539062 38.039062 6.539062h27.277344c8.859375 0 17.695312-1.058594 26.332031-3.15625.003906 0 50.988281-12.722656 71.117187-25.863281zm0 0"/></g><path d="m151.050781 315.011719-10.101562-2.800781c-6.332031-1.269532-12.402344 3.007812-13.421875 9.382812-1.1875 7.421875-3.515625 16.632812-8.054688 22.292969 0 0 20.714844-6.441407 31.578125-28.875zm0 0" fill="#506e7f"/><path d="m28.726562 405.960938h53.90625c13.4375 0 32.992188 4.566406 50.011719 10.296874 12.257813 4.121094 25.117188 6.140626 38.042969 6.140626h27.273438c8.863281 0 17.710937-1.003907 26.355468-2.96875 57.816406-13.191407 77.773438-25.328126 77.773438-25.328126v-15.195312l-7.683594 3.28125c-20.765625 12.117188-70.105469 23.683594-70.105469 23.683594-8.640625 1.964844-17.476562 2.960937-26.339843 2.960937h-27.273438c-12.925781 0-25.785156-2.011719-38.042969-6.136719-17.019531-5.726562-36.570312-10.292968-50.011719-10.292968h-20.234374l-37.449219.03125z" fill="#f5ecdb"/><path d="m295.414062 379.859375c0-8.265625-6.53125-15.050781-14.789062-15.371094l-31.148438-1.207031c-10.242187-.394531-20.417968-2.136719-30.09375-5.519531-7.980468-2.789063-15.53125-6.527344-22.472656-11.734375l-43.902344-33.996094c-.324218-.253906-.800781-.128906-.953124.253906-2.007813 4.980469-14.878907 32.753906-53.671876 37.15625-23.773437 2.699219-49-6.632812-61.5625-12.234375-4.363281-1.945312-9.566406.511719-10.554687 5.1875-7.855469 37.304688-1.316406 48.75-1.316406 48.75l37.449219-.46875h20.238281c13.433593 0 32.992187 4.566407 50.011719 10.292969 12.25 4.125 25.113281 6.140625 38.039062 6.140625h27.277344c8.859375 0 17.695312-.996094 26.332031-2.964844.003906 0 50.988281-11.945312 71.117187-24.285156zm0 0" fill="#ef9a60"/><path d="m164.742188 321.308594 9.234374 7.664062-10.03125 12.085938-9.234374-7.664063zm0 0" fill="#163447"/><path d="m179.976562 333.605469 9.234376 7.664062-10.03125 12.082031-9.234376-7.660156zm0 0" fill="#163447"/><path d="m108.816406 408.582031v19.441407h-83.867187v-22.222657h58.421875s7.714844-1.328125 25.445312 2.78125zm0 0" fill="#506e7f"/><path d="m413.769531 85.550781v281.699219c0 .476562-.320312.863281-.71875.863281h-62.191406c-28.179687 0-51.019531-27.429687-51.019531-61.261719l4.734375-221.300781" fill="#506e7f"/><path d="m347.238281 372.707031c-7.675781-5.8125-14.125-15.503906-19.164062-28.808593-5.597657-14.769532-8.351563-31.5625-7.96875-48.558594l4.324219-210.238282 12 .25-4.328126 210.246094c-.347656 15.480469 2.140626 30.710938 7.195313 44.050782 4.226563 11.160156 9.335937 19.0625 15.183594 23.492187zm0 0" fill="#163447"/><path d="m413.769531 368.628906 69.929688-179.109375-53.984375-19.300781-15.949219 44.617188zm0 0" fill="#3b596d"/><path d="m413.769531 170.097656-2.949219-3.066406c-9.65625-10.046875-15.257812-26.109375-15.257812-41.988281v-39.679688h18.207031zm0 0" fill="#f5ecdb"/><path d="m304.570312 62.964844h109.199219v22.398437h-109.199219zm0 0" fill="#ef9a60"/><path d="m223.886719 174.332031 14.074219-137.351562c.007812-.070313-.027344-.136719-.089844-.160157l-55.65625-24.375h-76.324219l-56.667969 24.378907c-.050781.023437-.082031.078125-.078125.140625l14.078125 137.367187-14.085937 121.566407h66.808593c10.980469 0 20.339844-8.617188 22.113282-20.359376l7-46.375 11.886718 48.871094c2.5625 10.527344 11.347657 17.863282 21.394532 17.863282h59.632812zm0 0" fill="#506e7f"/><path d="m172.339844 46.742188-28.785156-31.960938-29.140626 30.332031 27.75 107.4375zm0 0" fill="#f6a8a4"/><path d="m237.964844 295.003906h23.246094l19.785156-121.570312-22.277344-102.949219c-2.984375-13.78125-10.324219-25.992187-20.753906-34.519531l-9.710938 94.777344 15.714844 45.597656-11.898438 67.773437zm0 0" fill="#3b596d"/><path d="m48.261719 295.003906h-23.242188l-19.789062-121.570312 22.277343-102.949219c2.980469-13.78125 10.324219-25.992187 20.753907-34.519531l9.710937 94.777344-15.714844 45.597656 11.898438 67.773437zm0 0" fill="#3b596d"/><path d="m125.414062 181.84375h29.167969v12h-29.167969zm0 0" fill="#ef9a61"/><path d="m172.339844 44.3125-28.785156-31.960938-29.140626 30.332032-8.523437-30.332032h78.179687zm0 0" fill="#f5ecdb"/><path d="m203.714844 21.265625v53.34375l-64.679688 103.082031 43.179688-166.144531zm0 0" fill="#173447"/><path d="m84.007812 20.378906v42.585938l58.15625 89.585937-36.65625-141.890625zm0 0" fill="#173447"/><path d="m42.398438 301.003906h73.546874c14.023438 0 25.820313-10.710937 28.046876-25.46875l2.445312-16.207031 4.675781 19.226563c3.214844 13.21875 14.410157 22.445312 27.230469 22.445312h87.769531l20.789063-127.726562-22.519532-104.058594c-3.160156-14.601563-10.871093-27.675782-21.761718-36.992188-.609375-.761718-1.402344-1.386718-2.34375-1.796875l-56.808594-24.878906h-78.816406l-57.792969 24.863281c-.558594.242188-1.054687.5625-1.503906.933594l-.019531-.023438c-11.453126 9.363282-19.554688 22.824219-22.816407 37.898438l-6.261719 28.933594 11.726563 2.539062 6.261719-28.9375c1.789062-8.257812 5.324218-15.902344 10.234375-22.351562l8.261719 80.632812-15.785157 45.816406 12.015625 68.441407-5.183594 44.707031h-12.796874l-18.78125-115.40625 11.417968-52.773438-11.730468-2.535156-11.898438 54.988282 20.789062 127.730468zm47.453124-276.027344 11.972657-5.148437 25.710937 99.945313-37.683594-56.558594zm52.597657 104.605469-21.390625-83.148437 22.351562-23.269532 22.25 24.703126zm90.761719 72.199219-3.289063-28.386719 1.484375-14.507812 6.1875 17.941406zm19.445312-130.027344 22.035156 101.839844-18.785156 115.410156h-12.589844l-5.261718-45.414062 11.890624-67.738282-15.628906-45.355468 8.285156-80.855469c4.816407 6.402344 8.289063 13.957031 10.054688 22.113281zm-34.804688 101.71875 13.386719 115.53125h-52.894531c-7.265625 0-13.667969-5.464844-15.566406-13.28125l-11.890625-48.875c-3.828125-15.746094-5.476563-31.78125-4.949219-47.5625l64.742188-103.1875v-45.535156l20.878906 9.140625zm-31.746093-153.671875 12.574219 5.507813v47.335937l-49.480469 78.859375c.59375-2.917968 1.25-5.820312 2.003906-8.691406.300781-1.144531.613281-2.285156.9375-3.421875zm-11.832031-2.253906-4.742188 16.6875-15.027344-16.6875zm-56.730469 15.222656-3.914063-15.222656h18.539063zm-39.691407-2.628906v36.703125l58.539063 87.863281c-4.09375 24.054688-3.253906 49.269531 2.558594 73.820313l-6.824219 45.21875c-1.332031 8.839844-8.140625 15.257812-16.179688 15.257812h-60.074218l13.308594-114.878906.078124-.648438-13.703124-133.742187zm-28.539062 146.6875 6.339844-18.398437 1.535156 14.964843-3.371094 29.089844zm0 0"/><path d="m491.535156 185.242188-59.804687-21.378907-4.039063 11.296875 48.175782 17.226563-56.097657 143.675781v-21.148438l32.589844-80.988281-11.132813-4.480469-21.457031 53.324219v-225.804687h-121.195312v28.3125l-4.734375 221.253906-.003906.128906c0 37.089844 25.582031 67.265625 57.023437 67.265625h62.191406c2.667969 0 4.972657-1.605469 6.058594-3.914062l.25.097656zm-89.972656-93.878907h6.207031v60.78125c-3.9375-7.90625-6.207031-17.472656-6.207031-27.101562zm6.207031-12h-71.339843v-10.398437h71.339843zm-97.195312-10.398437h13.855469v10.398437h-13.855469zm40.285156 292.960937c-24.808594 0-44.996094-24.757812-45.019531-55.203125l4.605468-215.359375h79.117188v33.679688c0 17.863281 6.328125 35.113281 16.933594 46.144531l1.273437 1.328125v189.410156zm0 0"/><path d="m452.238281 202.054688 11.132813 4.476562-6.542969 16.265625-11.132813-4.480469zm0 0"/><path d="m304.765625 373.210938c-1.472656-.832032-3.191406-1.046876-4.792969-.648438-2.988281-7.722656-10.328125-13.261719-19.113281-13.601562l-31.148437-1.203126c-10.074219-.390624-19.613282-2.136718-28.351563-5.191406-8.011719-2.800781-14.832031-6.355468-20.773437-10.8125l-43.902344-33.996094c-1.628906-1.265624-3.789063-1.695312-5.78125-1.160156-.980469.265625-1.878906.757813-2.632813 1.417969l-5.714843-1.585937-.425782-.101563c-4.660156-.9375-9.371094.046875-13.273437 2.757813-3.921875 2.726562-6.496094 6.832031-7.253907 11.5625-1.378906 8.621093-3.710937 15.402343-6.582031 19.183593-5.011719 1.914063-10.75 3.375-17.3125 4.117188-22.246093 2.527343-46.167969-6.277344-58.441406-11.753907-3.722656-1.65625-7.953125-1.574218-11.609375.230469-3.644531 1.796875-6.277344 5.09375-7.222656 9.042969-6.644532 27.789062-3.445313 47.675781-.347656 58.28125h-1.136719v28.429688h64.902343v-12h-52.902343v-4.429688h52.421875v-.015625c11.566406.148437 29.175781 3.84375 47.363281 9.964844 12.726563 4.28125 26.167969 6.453125 39.953125 6.453125h27.277344c9.296875 0 18.609375-1.050782 27.683594-3.117188 58.101562-13.25 78.710937-25.535156 79.558593-26.050781l2.882813-1.753906v-18.324219c0-2.355469-1.273438-4.539062-3.324219-5.695312zm-171.316406-50.667969c.238281-1.480469 1.039062-2.757813 2.253906-3.605469 1.148437-.796875 2.523437-1.101562 3.894531-.875l2.410156.667969c-2.300781 3.402343-5.558593 7.363281-10.019531 11.144531.558594-2.296875 1.046875-4.738281 1.460938-7.332031zm-100.484375 20.640625c.261718-.128906.792968-.304688 1.410156-.027344 13.394531 5.972656 39.605469 15.5625 64.683594 12.71875 33.398437-3.792969 49.195312-23.640625 55.472656-34.605469l38.777344 30.027344c.976562.730469 1.972656 1.4375 2.980468 2.125l-6.90625 8.972656c-15.613281-4.917969-29.886718-5.554687-42.480468-1.878906l3.359375 11.519531c11.226562-3.273437 24.429687-2.242187 39.238281 3.0625l4.113281 1.472656 13.15625-17.09375c3.347657 1.632813 6.875 3.105469 10.632813 4.417969 9.863281 3.449219 20.578125 5.417969 31.84375 5.855469l31.148437 1.203125c4.238281.164063 7.707031 3.085937 8.722657 7.007813-10.820313 4.953124-31.539063 12.910156-66.152344 20.804687-8.1875 1.867187-16.601563 2.8125-24.996094 2.8125h-27.277344c-12.480468 0-24.636718-1.960937-36.128906-5.824219-3.460938-1.164062-6.914062-2.242187-10.320312-3.238281 2.628906-4.304687 7.113281-10.175781 13.996093-14.832031l-6.722656-9.941406c-10.289063 6.960937-16.304687 16.066406-19.261719 21.605468-1.015625-.242187-2.027344-.476562-3.027344-.695312-2.265624-13.921875-13.90625-24.972656-28.355468-26.0625l-19.648438-1.480469c-10.957031-.824219-21.570312-4.9375-30.25-11.65625.339844-1.695313.710938-3.421875 1.132813-5.191406.140625-.613281.546875-.921875.859375-1.078125zm-3.957032 19.523437c9.398438 5.914063 20.210938 9.53125 31.308594 10.367188l19.652344 1.476562c7.3125.550781 13.445312 5.261719 16.160156 11.683594-5-.710937-9.5625-1.089844-13.492187-1.089844h-53.367188c-.777343-6.019531-1.089843-13.53125-.261719-22.4375zm267.082032 27.546875c-7.222656 3.574219-28.773438 12.96875-73.109375 23.082032-8.199219 1.867187-16.617188 2.816406-25.015625 2.816406h-27.273438c-12.484375 0-24.640625-1.960938-36.128906-5.828125-19.734375-6.640625-39.148438-10.605469-51.925781-10.605469h-49.960938c-.269531-.730469-.566406-1.589844-.867187-2.574219h50.828125c11.550781 0 29.527343 3.730469 48.097656 9.980469 12.726563 4.28125 26.167969 6.453125 39.957031 6.453125h27.273438c9.296875 0 18.605468-1.050781 27.667968-3.113281 37.386719-8.527344 59.242188-17.164063 70.457032-22.503906zm0 0"/></svg>