<svg viewBox="0 -2 480.06301 480" xmlns="http://www.w3.org/2000/svg"><path d="m377.097656 180.179688 52.136719 57.757812v232.023438h-383.285156v-232.023438l52.136719-57.757812" fill="#f6a8a4"/><path d="m300.9375 339.0625 126.046875-98.292969c1.1875-.925781.53125-2.832031-.976563-2.832031h-372.082031c-2.15625 0-3.09375 2.726562-1.394531 4.054688l124.480469 97.070312 62.613281 44.71875zm0 0" fill="#f66e6a"/><path d="m376.847656 281.386719-139.253906 103.597656-139.25-103.996094v-185.4375h278.503906zm0 0" fill="#fff"/><path d="m360.511719 293.097656-121.890625 94.695313-121.890625-95.046875v-179.304688h243.78125zm0 0" fill="#f5ecdb"/><path d="m237.589844 203.148438c0-22.296876 19.167968-40.113282 41.917968-37.882813 16.871094 1.65625 30.84375 14.597656 33.667969 31.308594.328125 1.929687.503907 3.835937.542969 5.714843.191406 8.605469-2.9375 16.957032-8.308594 23.6875l-8.609375 10.792969-51.382812 55.820313c-4.007813 5.023437-11.648438 5.023437-15.652344 0l-51.386719-55.820313-8.609375-10.792969c-5.367187-6.730468-8.5-15.082031-8.308593-23.6875.042968-1.878906.21875-3.785156.546874-5.714843 2.820313-16.710938 16.796876-29.652344 33.664063-31.308594 22.753906-2.230469 41.917969 15.585937 41.917969 37.882813v11.25" fill="#ef9a60"/><path d="m431.265625 469.957031-178.347656-139.082031c-7.8125-6.09375-18.769531-6.09375-26.585938 0l-178.347656 139.082031zm0 0" fill="#f66e6a"/><path d="m193.621094 424.292969h90v12h-90zm0 0" fill="#f4ebdb"/><g fill="#edd7d4"><path d="m417.398438 121.960938h42v12h-42zm0 0"/><path d="m467.398438 121.960938h12.664062v12h-12.664062zm0 0"/><path d="m378.109375 26.066406h12v50.078125h-12zm0 0"/><path d="m420.148438 73.464844 8.539062 8.429687-10.101562 10.238281-8.542969-8.429687zm0 0"/><path d="m455.601562 37.539062 8.542969 8.425782-28.527343 28.910156-8.542969-8.429688zm0 0"/><path d="m378.109375.03125h12v16.359375h-12zm0 0"/><path d="m20.667969 121.960938h42v12h-42zm0 0"/><path d="m0 121.960938h12.664062v12h-12.664062zm0 0"/><path d="m89.953125 26.066406h12v50.078125h-12zm0 0"/><path d="m59.925781 73.464844 10.101563 10.238281-8.542969 8.429687-10.101563-10.238281zm0 0"/><path d="m24.472656 37.539062 28.527344 28.910157-8.542969 8.429687-28.527343-28.910156zm0 0"/><path d="m89.953125.03125h12v16.359375h-12zm0 0"/></g><path d="m226.253906 296.515625c3.050782 3.71875 7.546875 5.84375 12.367188 5.84375 4.820312 0 9.316406-2.125 12.367187-5.84375l51.257813-55.679687 8.886718-11.121094c6.417969-8.042969 9.832032-17.832032 9.613282-27.5625-.046875-2.195313-.257813-4.410156-.625-6.578125-3.28125-19.429688-19.316406-34.347657-38.996094-36.277344-12.433594-1.222656-24.835938 2.859375-34.027344 11.195313-3.375 3.058593-6.222656 6.601562-8.476562 10.472656-2.253906-3.871094-5.101563-7.414063-8.476563-10.472656-9.195312-8.335938-21.59375-12.417969-34.027343-11.195313-19.679688 1.929687-35.714844 16.847656-38.996094 36.277344-.367188 2.167969-.578125 4.382812-.628906 6.582031-.214844 9.726562 3.199218 19.515625 9.617187 27.558594l8.742187 10.964844zm-57.300781-98.941406c2.382813-14.101563 14.035156-24.933594 28.335937-26.335938 9.203126-.902343 18.007813 1.988281 24.792969 8.144531 6.695313 6.070313 10.539063 14.734376 10.539063 23.765626v11.25h12v-11.25c0-9.03125 3.839844-17.695313 10.535156-23.765626 6.789062-6.15625 15.597656-9.042968 24.796875-8.144531 14.300781 1.402344 25.953125 12.234375 28.335937 26.335938.269532 1.597656.425782 3.230469.460938 4.847656.15625 6.925781-2.332031 13.960937-6.996094 19.8125l-8.480468 10.628906-51.242188 55.664063-.273438.320312c-1.046874 1.316406-2.414062 1.511719-3.136718 1.511719s-2.089844-.195313-3.136719-1.511719l-.132813-.164062-51.382812-55.820313-8.480469-10.628906c-4.664062-5.851563-7.152343-12.886719-6.996093-19.8125.035156-1.617187.191406-3.25.460937-4.847656zm0 0"/><path d="m384.128906 90.308594h-46.324218v12h34.324218v173.355468l-5.617187 4.378907v-172.601563h-255.78125v48.589844h12v-36.589844h231.78125v169.957032l-57.617188 44.933593 7.378907 9.460938 119.988281-93.566407v207.441407l-168.65625-131.523438c-10-7.796875-23.964844-7.796875-33.964844 0l-168.664063 131.527344v-207.449219l119.992188 93.570313 7.378906-9.460938-57.617187-44.933593v-119.007813h-12v109.652344l-5.617188-4.378907v-173.355468h216.371094v-12h-228.371094v87.5625l-52.136719 57.757812v240.332032h395.285157v-240.332032l-52.132813-57.757812zm0 175.996094v-22.367188h28.683594zm-155.113281 69.300781c5.65625-4.410157 13.554687-4.410157 19.210937 0l164.589844 128.355469h-348.390625zm-164.585937-91.667969h28.6875v22.367188zm28.683593-12.003906h-32.636719l32.640626-36.152344v36.152344zm323.648438 0h-32.632813v-36.152344zm0 0"/><path d="m193.621094 436.292969h90v12h-90zm0 0"/><path d="m303.433594 68.679688h26.851562v12h-26.851562zm0 0"/><path d="m144.902344 68.679688h138.71875v12h-138.71875zm0 0"/><path d="m35.421875 104.441406h42v12h-42zm0 0"/><path d="m14.753906 104.441406h12.667969v12h-12.667969zm0 0"/><path d="m106.710938 26.066406h12v50.078125h-12zm0 0"/><path d="m91.792969 80.699219-8.542969 8.429687-10.101562-10.238281 8.539062-8.429687zm0 0"/><path d="m46.230469 34.539062 28.527343 28.910157-8.539062 8.429687-28.527344-28.910156zm0 0"/><path d="m106.710938.03125h12v16.359375h-12zm0 0"/><path d="m402.4375 104.441406h42v12h-42zm0 0"/><path d="m452.441406 104.441406h12.664063v12h-12.664063zm0 0"/><path d="m361.148438 26.066406h12v50.078125h-12zm0 0"/><path d="m398.15625 70.480469 8.539062 8.429687-10.105468 10.238282-8.539063-8.429688zm0 0"/><path d="m433.636719 34.535156 8.542969 8.429688-28.527344 28.910156-8.542969-8.429688zm0 0"/><path d="m361.148438.03125h12v16.359375h-12zm0 0"/></svg>