<svg viewBox="0 -18 488.614 488" xmlns="http://www.w3.org/2000/svg"><path d="m397.226562 230.390625c-6.28125 0-11.722656 3.535156-14.472656 8.71875-2.308594-5.132813-7.5-8.722656-13.546875-8.722656h-80.855469l74.265626-34.652344c5.519531-2.574219 8.6875-8.140625 8.472656-13.867187 4.792968 4.722656 12.1875 6.242187 18.644531 3.222656l78.417969-36.59375-13.085938-28.035156-4.132812-8.871094-1.9375-4.148438c-18.542969 8.648438-40.59375.628906-49.25-17.929687-8.652344-18.550781-.628906-40.609375 17.90625-49.253907l-1.925782-4.128906-4.75-10.195312-11.957031-25.625-78.40625 36.59375c-6.222656 2.90625-9.796875 9.175781-9.570312 15.628906-4.242188-4.28125-10.863281-5.679688-16.636719-2.984375l-277.335938 129.40625 43.050782 92.261719v120.496094h309.085937c6.046875 0 11.234375-3.589844 13.546875-8.722657 2.746094 5.183594 8.191406 8.722657 14.472656 8.722657h85.386719v-44.695313c-20.191406 0-36.5625-16.371094-36.5625-36.574219 0-20.191406 16.371094-36.566406 36.5625-36.566406v-43.484375zm0 0" fill="#edd7d6"/><path d="m458.941406 187.976562-77.378906 36.097657c-8.199219 3.832031-17.941406.28125-21.761719-7.910157l-5.070312-10.867187-43.777344-93.820313-5.519531-11.832031c-3.820313-8.1875-.28125-17.929687 7.917968-21.757812l77.371094-36.101563 11.800782 25.28125 4.6875 10.058594 1.902343 4.070312c-18.292969 8.53125-26.210937 30.289063-17.671875 48.589844 8.539063 18.3125 30.300782 26.222656 48.601563 17.691406l1.910156 4.089844 4.078125 8.75zm0 0" fill="#e2a176"/><path d="m441.953125 151.566406c-7.648437 6.9375-17.78125 11.160156-28.910156 11.160156-23.75 0-43-19.25-43-43 0-21.773437 16.179687-39.761718 37.171875-42.601562l1.898437 4.070312c-18.289062 8.527344-26.210937 30.289063-17.671875 48.589844 8.539063 18.308594 30.300782 26.21875 48.601563 17.6875zm0 0" fill="#e59055"/><path d="m354.789062 205.433594 5.71875 12.257812c3.433594 7.351563.253907 16.089844-7.097656 19.523438l-277.335937 129.40625-68.210938-146.191406 277.332031-129.40625c7.351563-3.429688 16.09375-.25 19.523438 7.101562l3.882812 8.320312" fill="#f5ecdb"/><path d="m115.058594 237.03125c-7.34375-15.738281.3125-34.628906 17.113281-40.550781 12.453125-4.386719 26.582031.144531 34.082031 11.011719.863282 1.253906 1.617188 2.542968 2.265625 3.855468 2.96875 6.011719 3.511719 12.9375 1.9375 19.460938l-2.523437 10.457031-17.886719 56.332031c-1.175781 4.867188-6.566406 7.382813-11.050781 5.15625l-54.664063-22.480468-9.636719-4.785157c-6.003906-2.980469-10.964843-7.847656-13.664062-13.984375-.589844-1.339844-1.09375-2.742187-1.5-4.210937-3.511719-12.730469 2.089844-26.46875 13.457031-33.191407 15.324219-9.074218 34.726563-2.808593 42.070313 12.929688l3.78125 8.105469" fill="#f66e6a"/><path d="m234.488281 141.765625 42.722657-19.929687 23.351562 50.046874-42.722656 19.933594zm0 0" fill="#e2a176"/><path d="m380.851562 294.394531v-13.050781c0-9.035156 7.328126-16.371094 16.375-16.371094h85.386719v43.484375c-20.191406 0-36.5625 16.375-36.5625 36.566407 0 20.203124 16.371094 36.574218 36.5625 36.574218v44.695313h-85.386719c-9.046874 0-16.375-7.335938-16.375-16.375v-11.992188" fill="#e2a176"/><path d="m488.417969 383.398438c-9.367188 4.355468-20.292969 5.371093-30.921875 2.0625-22.675782-7.058594-35.332032-31.160157-28.273438-53.839844 6.472656-20.785156 27.269532-33.152344 48.15625-29.625l.601563 4.453125c-20 2.707031-34.027344 21.128906-31.316407 41.140625 2.710938 20.019531 21.136719 34.042968 41.144532 31.335937zm0 0" fill="#e59055"/><path d="m380.847656 398.074219v13.527343c0 8.113282-6.574218 14.6875-14.6875 14.6875h-306.039062v-161.316406h306.039062c8.113282 0 14.6875 6.574219 14.6875 14.6875v9.179688" fill="#f5ecdb"/><path d="m150.242188 325.339844c0-17.367188 14.929687-31.246094 32.65625-29.507813 13.140624 1.289063 24.027343 11.367188 26.226562 24.390625.253906 1.5.390625 2.984375.425781 4.449219.148438 6.703125-2.289062 13.210937-6.472656 18.453125l-6.707031 8.410156-40.03125 43.484375c-3.121094 3.914063-9.070313 3.914063-12.195313 0l-40.027343-43.484375-6.710938-8.410156c-4.179688-5.242188-6.621094-11.75-6.46875-18.453125.03125-1.464844.167969-2.949219.421875-4.449219 2.199219-13.023437 13.085937-23.101562 26.230469-24.390625 17.722656-1.738281 32.652344 12.140625 32.652344 29.507813v8.945312" fill="#f66e6a"/><path d="m298.765625 289.507812h47.140625v55.230469h-47.140625zm0 0" fill="#e2a176"/><path d="m183.484375 289.859375c-10.054687-.988281-20.089844 2.316406-27.527344 9.058594-2.1875 1.984375-4.101562 4.21875-5.714843 6.636719-1.609376-2.417969-3.523438-4.652344-5.710938-6.636719-7.4375-6.742188-17.472656-10.042969-27.53125-9.058594-15.921875 1.5625-28.898438 13.636719-31.558594 29.363281-.292968 1.75-.464844 3.539063-.503906 5.3125-.175781 7.890625 2.585938 15.820313 7.777344 22.328125l6.710937 8.410157 40.179688 43.671874c2.632812 3.1875 6.492187 5.007813 10.636719 5.007813 4.140624 0 8.003906-1.820313 10.636718-5.007813l39.902344-43.347656 6.984375-8.734375c5.195313-6.507812 7.957031-14.4375 7.78125-22.328125-.039063-1.773437-.210937-3.5625-.507813-5.3125-2.652343-15.726562-15.632812-27.800781-31.554687-29.363281zm14.902344 49.523437-6.574219 8.246094-39.886719 43.328125-.277343.320313c-.46875.589844-1.082032.679687-1.40625.679687-.324219 0-.9375-.089843-1.40625-.679687l-40.164063-43.648438-6.574219-8.246094c-3.445312-4.316406-5.277344-9.492187-5.164062-14.578124.027344-1.195313.140625-2.402344.339844-3.582032 1.757812-10.398437 10.351562-18.382812 20.898437-19.421875 6.792969-.667969 13.289063 1.46875 18.296875 6.007813 4.941406 4.480468 7.773438 10.871094 7.773438 17.53125v8.945312h12v-8.945312c0-6.660156 2.832031-13.050782 7.773437-17.53125 5.003906-4.539063 11.503906-6.675782 18.296875-6.007813 10.546875 1.039063 19.140625 9.023438 20.898438 19.417969.199218 1.183594.3125 2.390625.339843 3.585938.113281 5.085937-1.722656 10.261718-5.164062 14.578124zm0 0"/><path d="m482.613281 313.769531h6v-55.488281h-91.386719c-6.214843 0-11.847656 2.550781-15.90625 6.660156-3.78125-4.085937-9.167968-6.660156-15.160156-6.660156h-43.402344l33.34375-15.621094c5.003907-2.34375 8.796876-6.496094 10.675782-11.695312.089844-.25.152344-.503906.234375-.753906.039062.015624.074219.035156.113281.046874 2.484375.902344 5.0625 1.351563 7.632812 1.351563 3.234376 0 6.460938-.714844 9.476563-2.128906l82.753906-38.769531-24.054687-51.339844-5.433594 2.546875c-7.390625 3.460937-15.6875 3.839843-23.367188 1.058593-7.679687-2.777343-13.816406-8.382812-17.28125-15.777343-3.464843-7.394531-3.839843-15.691407-1.0625-23.371094 2.777344-7.675781 8.382813-13.8125 15.773438-17.273437l5.429688-2.546876-23.539063-50.246093-82.753906 38.773437c-5.632813 2.636719-9.648438 7.335938-11.582031 12.78125-5.152344-2.09375-11.125-2.140625-16.546876.398438l-282.570312 132.386718 54.121094 115.503907v97.996093h312.039062c5.992188 0 11.378906-2.574218 15.160156-6.65625 4.058594 4.105469 9.6875 6.65625 15.90625 6.65625h91.386719v-56.691406h-6c-16.851562 0-30.5625-13.71875-30.5625-30.578125 0-16.851562 13.710938-30.5625 30.5625-30.5625zm-466.65625-89.894531 155.378907-72.796875 4.851562 10.359375 8.671875-4.0625-4.855469-10.359375 107.652344-50.4375c4.339844-2.027344 9.523438-.152344 11.554688 4.175781l3.894531 8.320313.003906-.003907 2.355469 5.03125 10.867187-5.089843-5.535156-11.820313c-2.429687-5.179687-.1875-11.367187 4.992187-13.792968l71.886719-33.683594 13.535157 28.890625c-7.691407 5.011719-13.527344 12.351562-16.707032 21.136719-3.867187 10.691406-3.34375 22.25 1.480469 32.542968 4.824219 10.300782 13.371094 18.101563 24.0625 21.972656 8.789063 3.183594 18.160156 3.394532 26.933594.691407l14.050781 29.984375-71.890625 33.679687c-2.507813 1.175781-5.328125 1.304688-7.933594.359375-2.601562-.941406-4.6875-2.84375-5.859375-5.351562l-5.089844-10.859375-10.867187 5.089843.0625.128907-.003906.003906 5.738281 12.257813c.984375 2.101562 1.09375 4.457031.304688 6.640624-.789063 2.183594-2.382813 3.925782-4.484376 4.90625l-56.539062 26.492188h-62.332031l-4.628907-9.882812-8.667968 4.0625 2.726562 5.820312h-51.976562l4.511718-14.28125 2.621094-10.875c1.9375-8.089844 1.074219-16.4375-2.433594-23.515625-.773437-1.558594-1.679687-3.097656-2.710937-4.597656-9.074219-13.109375-25.949219-18.542969-41.035156-13.203125-9.523438 3.375-17.210938 10.621094-21.085938 19.882812-1.140625 2.726563-1.925781 5.5625-2.355469 8.4375-2.488281-1.507812-5.164062-2.714844-7.988281-3.582031-9.59375-2.953125-20.082031-1.683594-28.773437 3.476563-13.640625 8.097656-20.269532 24.324218-16.21875 39.585937v45.714844zm50.300781 34.40625c-.171874-.496094-.335937-.992188-.476562-1.496094-2.820312-10.160156 1.574219-21.035156 10.6875-26.445312 5.867188-3.484375 12.660156-4.308594 19.121094-2.324219 6.292968 1.9375 11.511718 6.433594 14.363281 12.359375l1.660156 3.769531 10.980469-4.835937-1.671875-3.800782.007813-.003906c-2.828126-6.035156-2.972657-13.027344-.402344-19.179687 2.609375-6.234375 7.589844-10.925781 14.023437-13.203125 9.992188-3.53125 21.164063.054687 27.152344 8.703125.695313 1.019531 1.316406 2.066406 1.835937 3.117187 2.261719 4.5625 2.796876 10.027344 1.515626 15.390625l-2.457032 10.257813-5.589844 17.691406zm373.792969 86.050781c0 21.441407 15.921875 39.230469 36.5625 42.15625v33.113281h-79.386719c-5.71875 0-10.375-4.652343-10.375-10.371093v-11.992188h-12v.148438h-.003906v13.523437c0 4.792969-3.894531 8.691406-8.6875 8.691406h-300.039062v-149.320312h300.039062c4.792969 0 8.6875 3.894531 8.6875 8.6875v9.183594h.003906v5.550781h12v-13.050781c0-5.71875 4.65625-10.371094 10.375-10.371094h79.386719v31.90625c-20.640625 2.925781-36.5625 20.710938-36.5625 42.144531zm0 0"/><path d="m374.847656 369.367188h12v12.75h-12zm0 0"/><path d="m374.847656 336.800781h12v16.285157h-12zm0 0"/><path d="m374.847656 307.761719h12v12.75h-12zm0 0"/><path d="m236.613281 307.828125h12v15h-12zm0 0"/><path d="m236.613281 277.828125h12v15h-12zm0 0"/><path d="m236.613281 337.828125h12v15h-12zm0 0"/><path d="m236.613281 367.828125h12v15h-12zm0 0"/><path d="m236.613281 397.828125h12v15h-12zm0 0"/><path d="m311.03125 394.375h39.859375v12h-39.859375zm0 0"/><path d="m311.03125 376.765625h39.859375v12h-39.859375zm0 0"/><path d="m311.03125 359.160156h39.859375v12h-39.859375zm0 0"/><path d="m287.277344 394.375h11.488281v12h-11.488281zm0 0"/><path d="m287.277344 376.765625h11.488281v12h-11.488281zm0 0"/><path d="m287.277344 359.160156h11.488281v12h-11.488281zm0 0"/><path d="m292.765625 350.738281h59.140625v-67.230469h-59.140625zm12-55.230469h35.140625v43.230469h-35.140625zm0 0"/><path d="m353.851562 189.074219-10.867187 5.089843-5.410156-11.546874 10.867187-5.089844zm0 0"/><path d="m341.511719 162.769531-10.867188 5.089844-6.90625-14.746094 10.867188-5.089843zm0 0"/><path d="m322.289062 121.71875 5.40625 11.546875-10.863281 5.089844-5.410156-11.542969zm0 0"/><path d="m190.964844 170.375 6.089844 13.003906-8.667969 4.0625-6.09375-13.003906zm0 0"/><path d="m221.425781 235.386719-8.667969 4.0625-6.09375-13.003907 8.667969-4.0625zm0 0"/><path d="m209.226562 209.40625-8.667968 4.0625-6.089844-13.003906 8.667969-4.058594zm0 0"/><path d="m295.464844 243.214844-5.089844-10.867188 36.09375-16.914062 5.089844 10.867187zm0 0"/><path d="m282.910156 216.378906 36.097656-16.910156 5.089844 10.863281-36.09375 16.914063zm0 0"/><path d="m311.539062 183.53125 5.089844 10.867188-36.09375 16.914062-5.089844-10.867188zm0 0"/><path d="m273.957031 253.289062-5.09375-10.867187 10.402344-4.875 5.09375 10.867187zm0 0"/><path d="m261.417969 226.464844 10.402343-4.875 5.09375 10.863281-10.402343 4.875zm0 0"/><path d="m253.933594 210.507812 10.402344-4.875 5.09375 10.867188-10.402344 4.871094zm0 0"/><path d="m308.886719 175.480469-28.523438-60.878907-53.554687 25.09375 28.523437 60.878907zm-34.296875-44.921875 18.339844 39.148437-31.824219 14.910157-18.339844-39.144532zm0 0"/><path d="m247.292969 79.449219 5.066406 10.878906-101.960937 47.457031-5.066407-10.878906zm0 0"/><path d="m129.949219 134.070312 5.0625 10.878907-21.652344 10.078125-5.0625-10.878906zm0 0"/><path d="m45.835938 361.59375h-12v90.332031h66v-12h-54zm0 0"/><path d="m118.171875 439.925781h20.664063v12h-20.664063zm0 0"/></svg>