<?xml version="1.0" encoding="iso-8859-1"?>
<!-- Generator: Adobe Illustrator 19.0.0, SVG Export Plug-In . SVG Version: 6.00 Build 0)  -->
<svg version="1.1" id="Capa_1" xmlns="http://www.w3.org/2000/svg" xmlns:xlink="http://www.w3.org/1999/xlink" x="0px" y="0px"
	 viewBox="0 0 512 512" style="enable-background:new 0 0 512 512;" xml:space="preserve">
<path style="fill:#455A64;" d="M466.379,194.057H62.461c-5.049,0-8.415,3.366-8.415,8.415v99.297
	c15.988,0,29.452,13.464,29.452,29.452c0,15.988-13.464,29.452-29.452,29.452v99.297c0,5.049,3.366,8.415,8.415,8.415h403.918
	c5.049,0,8.415-3.366,8.415-8.415V359.832c-15.988,0-29.452-13.464-29.452-29.452s13.464-29.452,29.452-29.452v-98.455
	C474.794,197.423,471.428,194.057,466.379,194.057z"/>
<path style="fill:#424242;" d="M466.379,472.592H62.461c-7.313,0-12.622-5.31-12.622-12.622v-99.297
	c0-2.323,1.885-4.207,4.207-4.207c13.683,0,25.245-11.562,25.245-25.245c0-13.683-11.562-25.245-25.245-25.245
	c-2.323,0-4.207-1.885-4.207-4.207v-99.297c0-7.313,5.31-12.622,12.622-12.622h403.918c7.313,0,12.622,5.31,12.622,12.622v98.455
	c0,2.323-1.885,4.207-4.207,4.207c-13.683,0-25.245,11.562-25.245,25.245s11.562,25.245,25.245,25.245
	c2.323,0,4.207,1.885,4.207,4.207V459.97C479.002,467.282,473.692,472.592,466.379,472.592z M58.254,364.611v95.358
	c0,2.71,1.498,4.207,4.207,4.207h403.918c2.71,0,4.207-1.498,4.207-4.207v-96.208c-16.342-2.146-29.452-16.569-29.452-33.391
	c0-16.821,13.111-31.245,29.452-33.391v-94.508c0-2.71-1.498-4.207-4.207-4.207H62.461c-2.71,0-4.207,1.498-4.207,4.207v95.367
	c16.342,2.146,29.452,16.569,29.452,33.391C87.706,348.051,74.604,362.465,58.254,364.611z"/>
<path style="fill:#546E7A;" d="M483.209,194.057H79.291c-5.049,0-8.415,3.366-8.415,8.415v99.297
	c15.988,0,29.452,13.464,29.452,29.452c0,15.988-13.464,29.452-29.452,29.452v99.297c0,5.049,3.366,8.415,8.415,8.415h403.918
	c5.049,0,8.415-3.366,8.415-8.415V359.832c-15.988,0-29.452-13.464-29.452-29.452s13.464-29.452,29.452-29.452v-98.455
	C491.624,197.423,488.258,194.057,483.209,194.057z"/>
<path style="fill:#424242;" d="M483.209,472.592H79.291c-7.313,0-12.622-5.31-12.622-12.622v-99.297
	c0-2.323,1.885-4.207,4.207-4.207c13.683,0,25.245-11.562,25.245-25.245c0-13.683-11.562-25.245-25.245-25.245
	c-2.323,0-4.207-1.885-4.207-4.207v-99.297c0-7.313,5.31-12.622,12.622-12.622h403.918c7.313,0,12.622,5.31,12.622,12.622v98.455
	c0,2.323-1.885,4.207-4.207,4.207c-13.683,0-25.245,11.562-25.245,25.245s11.562,25.245,25.245,25.245
	c2.323,0,4.207,1.885,4.207,4.207V459.97C495.832,467.282,490.522,472.592,483.209,472.592z M75.084,364.611v95.358
	c0,2.71,1.498,4.207,4.207,4.207h403.918c2.71,0,4.207-1.498,4.207-4.207v-96.208c-16.342-2.146-29.452-16.569-29.452-33.391
	c0-16.821,13.111-31.245,29.452-33.391v-94.508c0-2.71-1.498-4.207-4.207-4.207H79.291c-2.71,0-4.207,1.498-4.207,4.207v95.367
	c16.342,2.146,29.452,16.569,29.452,33.391C104.536,348.051,91.434,362.465,75.084,364.611z"/>
<rect x="100.329" y="223.509" style="fill:#26C6DA;" width="361.843" height="214.582"/>
<g>
	<path style="fill:#424242;" d="M462.172,442.298H100.329c-2.323,0-4.207-1.885-4.207-4.207V223.509
		c0-2.323,1.885-4.207,4.207-4.207h361.843c2.323,0,4.207,1.885,4.207,4.207v214.582
		C466.379,440.422,464.503,442.298,462.172,442.298z M104.536,433.883h353.428V227.717H104.536
		C104.536,227.717,104.536,433.883,104.536,433.883z"/>
	<path style="fill:#424242;" d="M352.777,215.094c-2.323,0-4.207-1.885-4.207-4.207v-16.83c0-2.323,1.885-4.207,4.207-4.207
		s4.207,1.885,4.207,4.207v16.83C356.985,213.209,355.108,215.094,352.777,215.094z"/>
	<path style="fill:#424242;" d="M352.777,420.899c-2.323,0-4.207-1.885-4.207-4.207v-34.266c0-2.323,1.885-4.207,4.207-4.207
		s4.207,1.885,4.207,4.207v34.266C356.985,419.022,355.108,420.899,352.777,420.899z M352.777,352.376
		c-2.323,0-4.207-1.885-4.207-4.207v-34.257c0-2.323,1.885-4.207,4.207-4.207s4.207,1.885,4.207,4.207v34.257
		C356.985,350.491,355.108,352.376,352.777,352.376z M352.777,283.853c-2.323,0-4.207-1.885-4.207-4.207v-34.257
		c0-2.323,1.885-4.207,4.207-4.207s4.207,1.885,4.207,4.207v34.257C356.985,281.976,355.108,283.853,352.777,283.853z"/>
	<path style="fill:#424242;" d="M352.777,471.751c-2.323,0-4.207-1.885-4.207-4.207v-16.83c0-2.323,1.885-4.207,4.207-4.207
		s4.207,1.885,4.207,4.207v16.83C356.985,469.874,355.108,471.751,352.777,471.751z"/>
</g>
<rect x="100.329" y="223.509" style="fill:#CFD8DC;" width="231.411" height="214.582"/>
<g>
	<path style="fill:#424242;" d="M331.74,442.298H100.329c-2.323,0-4.207-1.885-4.207-4.207V223.509c0-2.323,1.885-4.207,4.207-4.207
		H331.74c2.323,0,4.207,1.885,4.207,4.207v214.582C335.947,440.422,334.071,442.298,331.74,442.298z M104.536,433.883h222.997
		V227.717H104.536C104.536,227.717,104.536,433.883,104.536,433.883z"/>
	<path style="fill:#424242;" d="M216.455,442.298c-2.323,0-4.207-1.885-4.207-4.207V330.379c0-2.323,1.885-4.207,4.207-4.207
		s4.207,1.885,4.207,4.207v107.72C220.662,440.422,218.778,442.298,216.455,442.298z"/>
	<path style="fill:#424242;" d="M216.455,265.584h-82.467c-2.323,0-4.207-1.885-4.207-4.207c0-2.323,1.885-4.207,4.207-4.207h82.467
		c2.323,0,4.207,1.885,4.207,4.207C220.662,263.699,218.778,265.584,216.455,265.584z"/>
	<path style="fill:#424242;" d="M216.455,295.036h-82.467c-2.323,0-4.207-1.885-4.207-4.207s1.885-4.207,4.207-4.207h82.467
		c2.323,0,4.207,1.885,4.207,4.207S218.778,295.036,216.455,295.036z"/>
</g>
<path style="fill:#ECEFF1;" d="M117.158,425.468c-2.323,0-4.207-1.885-4.207-4.207V240.339c0-2.323,1.885-4.207,4.207-4.207
	c2.323,0,4.207,1.885,4.207,4.207v180.922C121.366,423.592,119.489,425.468,117.158,425.468z"/>
<path style="fill:#00ACC1;" d="M445.342,425.468c-2.323,0-4.207-1.885-4.207-4.207V240.339c0-2.323,1.885-4.207,4.207-4.207
	s4.207,1.885,4.207,4.207v180.922C449.549,423.592,447.673,425.468,445.342,425.468z"/>
<path style="fill:#424242;" d="M331.74,334.587H100.329c-2.323,0-4.207-1.885-4.207-4.207s1.885-4.207,4.207-4.207H331.74
	c2.323,0,4.207,1.885,4.207,4.207S334.071,334.587,331.74,334.587z"/>
<path style="fill:#455A64;" d="M382.23,51.002L9.447,204.996c-4.207,1.683-6.732,6.732-4.207,10.939l37.867,91.723
	c15.147-5.891,31.977,0.841,38.709,15.988c5.89,15.147-0.841,31.977-15.988,38.709l37.026,90.882
	c1.683,4.207,6.732,6.732,10.939,4.207l373.624-153.994c4.207-1.683,6.732-6.732,4.207-10.939l-37.867-91.723
	c-15.147,5.89-31.977-0.842-38.709-15.988c-5.891-15.147,0.841-31.977,15.988-38.709L393.169,55.21
	C391.486,51.002,386.437,48.478,382.23,51.002z"/>
<path style="fill:#424242;" d="M110.334,462.679c-1.229,0-2.508-0.202-3.77-0.623c-3.416-1.153-6.261-3.862-7.624-7.254
	l-37.009-90.856c-0.858-2.104,0.109-4.502,2.188-5.436c12.993-5.789,18.925-20.12,13.775-33.34
	c-5.697-12.816-20.019-18.706-33.264-13.59c-2.137,0.825-4.544-0.185-5.419-2.314L1.343,217.543
	c-1.439-2.314-1.792-5.646-0.715-8.836c1.153-3.416,3.862-6.261,7.254-7.616L380.37,47.216c2.802-1.565,6.017-1.868,9.088-0.825
	c3.408,1.153,6.261,3.862,7.616,7.254l37.851,90.831c0.875,2.112-0.093,4.536-2.179,5.461c-12.993,5.773-18.917,20.112-13.784,33.34
	c5.705,12.808,20.061,18.723,33.264,13.59c2.121-0.841,4.544,0.194,5.419,2.314l37.867,91.723c1.439,2.306,1.801,5.646,0.724,8.836
	c-1.153,3.408-3.862,6.261-7.254,7.616L115.391,461.333C113.994,462.208,112.227,462.679,110.334,462.679z M71.179,364.342
	l35.57,87.314c0.454,1.144,1.414,2.062,2.499,2.423c0.841,0.295,1.633,0.202,2.373-0.236l374.197-154.272
	c1.153-0.471,2.078-1.422,2.44-2.516c0.286-0.841,0.202-1.641-0.236-2.381l-36.656-88.685c-16.325,4.308-33.088-3.576-40.156-19.472
	c-6.362-16.367-0.126-33.828,14.465-42.386l-36.395-87.305c-0.471-1.17-1.422-2.095-2.516-2.457
	c-0.833-0.295-1.632-0.194-2.373,0.244c-0.177,0.109-0.362,0.202-0.555,0.278L11.054,208.884c-1.161,0.463-2.078,1.414-2.449,2.508
	c-0.286,0.841-0.202,1.632,0.244,2.373l36.664,88.694c16.317-4.3,33.088,3.576,40.148,19.472
	C92.031,338.306,85.787,355.776,71.179,364.342z M382.23,51.002h0.084H382.23z"/>
<path style="fill:#546E7A;" d="M398.218,44.27L24.594,199.106c-4.207,1.683-6.732,6.732-4.207,10.939l37.867,90.882
	c15.147-5.891,31.977,0.841,38.709,15.988c6.732,15.147-0.841,31.977-15.988,38.709l37.867,91.723
	c1.683,4.207,6.732,6.732,10.939,4.207l372.783-154.835c4.207-1.683,6.732-6.732,4.207-10.939l-37.867-91.723
	c-15.147,5.89-31.977-0.842-38.709-15.988c-5.89-15.147,0.841-31.977,15.988-38.709l-37.026-90.882
	C407.475,44.27,402.426,42.587,398.218,44.27z"/>
<path style="fill:#424242;" d="M126.322,456.789c-1.229,0-2.508-0.202-3.77-0.623c-3.416-1.153-6.261-3.862-7.624-7.254
	l-37.842-91.689c-0.867-2.104,0.101-4.519,2.179-5.444c6.437-2.861,11.419-7.834,14.036-13.994
	c2.625-6.185,2.558-12.984-0.185-19.152c-5.773-12.993-20.095-18.917-33.332-13.784c-2.112,0.85-4.536-0.185-5.411-2.297
	l-37.867-90.873c-1.447-2.314-1.801-5.655-0.732-8.844c1.153-3.416,3.862-6.269,7.254-7.624L396.603,40.383
	c0.017-0.008,0.034-0.008,0.051-0.017c6.538-2.617,13.91,0.311,16.409,6.547l37.009,90.856c0.858,2.104-0.109,4.51-2.188,5.436
	c-13.001,5.781-18.917,20.112-13.775,33.34c5.714,12.816,20.053,18.749,33.256,13.59c2.121-0.85,4.544,0.194,5.419,2.314
	l37.867,91.723c1.447,2.306,1.801,5.646,0.715,8.844c-1.153,3.408-3.862,6.252-7.245,7.607L131.397,455.442
	C129.991,456.309,128.216,456.789,126.322,456.789z M86.343,357.593l36.395,88.155c0.463,1.161,1.414,2.078,2.508,2.44
	c0.841,0.295,1.641,0.202,2.373-0.236l373.338-155.121c1.17-0.471,2.087-1.414,2.449-2.508c0.286-0.841,0.202-1.641-0.236-2.381
	l-36.656-88.685c-16.376,4.3-33.096-3.585-40.148-19.481c-6.379-16.376-0.135-33.837,14.482-42.403L405.27,50.068
	c-0.85-2.104-3.509-2.684-5.461-1.893L26.21,202.993c-1.161,0.471-2.087,1.422-2.457,2.516c-0.286,0.842-0.202,1.633,0.244,2.373
	l36.647,87.844c16.333-4.317,33.096,3.576,40.156,19.472c3.694,8.322,3.787,17.503,0.236,25.859
	C98.115,347.975,92.965,353.731,86.343,357.593z"/>
<rect x="82.573" y="140.309" transform="matrix(-0.9239 0.3827 -0.3827 -0.9239 601.6977 375.5259)" style="fill:#EC407A;" width="361.853" height="214.595"/>
<g>
	<path style="fill:#424242;" d="M137.405,420.167c-1.649,0-3.215-0.976-3.888-2.6L51.396,219.318c-0.429-1.035-0.429-2.188,0-3.223
		c0.429-1.035,1.245-1.851,2.28-2.28L387.977,75.347c2.163-0.875,4.611,0.143,5.495,2.28l82.122,198.248
		c0.429,1.035,0.429,2.188,0,3.223c-0.429,1.027-1.245,1.851-2.28,2.28l-334.301,138.46
		C138.482,420.066,137.935,420.167,137.405,420.167z M60.778,219.983l78.899,190.473l326.534-135.254L387.312,84.73L60.778,219.983z
		"/>
	<path style="fill:#424242;" d="M283.775,114.115c-1.708,0-3.324-1.052-3.947-2.752l-5.89-15.988
		c-0.808-2.179,0.311-4.595,2.491-5.402c2.163-0.808,4.595,0.311,5.402,2.491l5.89,15.988c0.808,2.179-0.311,4.595-2.491,5.402
		C284.751,114.03,284.263,114.115,283.775,114.115z"/>
	<path style="fill:#424242;" d="M362.96,303.443c-1.649,0-3.215-0.976-3.888-2.6l-13.144-31.64c-0.884-2.146,0.126-4.603,2.28-5.495
		c2.121-0.9,4.603,0.126,5.495,2.28l13.144,31.64c0.884,2.146-0.126,4.603-2.28,5.495
		C364.045,303.35,363.506,303.443,362.96,303.443z M336.671,240.162c-1.641,0-3.215-0.976-3.888-2.592l-13.153-31.64
		c-0.884-2.146,0.126-4.611,2.28-5.503c2.121-0.875,4.603,0.118,5.495,2.272l13.153,31.64c0.884,2.146-0.126,4.611-2.28,5.503
		C337.757,240.061,337.218,240.162,336.671,240.162z M310.383,176.89c-1.641,0-3.215-0.976-3.888-2.592l-13.153-31.64
		c-0.884-2.146,0.126-4.611,2.28-5.503c2.129-0.875,4.603,0.118,5.495,2.272l13.153,31.64c0.884,2.146-0.126,4.611-2.28,5.503
		C311.468,176.789,310.93,176.89,310.383,176.89z"/>
	<path style="fill:#424242;" d="M382.23,350.575c-1.607,0-3.147-0.926-3.846-2.499l-6.732-15.147
		c-0.942-2.121,0.017-4.611,2.137-5.554c2.121-0.934,4.611,0.008,5.554,2.137l6.732,15.147c0.942,2.121-0.017,4.611-2.137,5.554
		C383.383,350.457,382.81,350.575,382.23,350.575z"/>
</g>
<rect x="87.729" y="165.49" transform="matrix(-0.9239 0.3827 -0.3827 -0.9239 495.7909 446.9539)" style="fill:#CFD8DC;" width="231.426" height="214.595"/>
<g>
	<path style="fill:#424242;" d="M137.59,420.402c-0.547,0-1.094-0.109-1.607-0.32c-1.035-0.429-1.851-1.245-2.28-2.28
		L51.581,219.546c-0.884-2.146,0.135-4.611,2.28-5.495l213.799-88.559c1.035-0.429,2.188-0.429,3.223,0
		c1.027,0.429,1.851,1.245,2.28,2.28l82.122,198.257c0.884,2.146-0.135,4.611-2.28,5.495l-213.807,88.559
		C138.684,420.293,138.137,420.402,137.59,420.402z M60.972,220.219L139.87,410.7l206.024-85.345l-78.899-190.481L60.972,220.219z"
		/>
	<path style="fill:#424242;" d="M244.224,375.82c-1.658,0-3.231-0.985-3.896-2.625l-40.392-99.297
		c-0.875-2.154,0.16-4.611,2.314-5.478c2.137-0.875,4.603,0.151,5.487,2.306l40.392,99.297c0.875,2.154-0.16,4.611-2.314,5.478
		C245.293,375.719,244.755,375.82,244.224,375.82z"/>
	<path style="fill:#424242;" d="M101.17,244.547c-1.641,0-3.198-0.968-3.871-2.575c-0.9-2.137,0.101-4.603,2.238-5.512
		l75.735-31.977c2.129-0.892,4.603,0.093,5.512,2.238c0.9,2.137-0.101,4.603-2.238,5.512l-75.735,31.977
		C102.272,244.437,101.717,244.547,101.17,244.547z"/>
	<path style="fill:#424242;" d="M112.109,271.474c-1.649,0-3.223-0.976-3.888-2.609c-0.884-2.154,0.143-4.611,2.289-5.495
		l75.735-31.127c2.146-0.858,4.603,0.143,5.487,2.289c0.884,2.146-0.143,4.603-2.289,5.487l-75.735,31.135
		C113.187,271.373,112.648,271.474,112.109,271.474z"/>
</g>
<path style="fill:#ECEFF1;" d="M146.611,398.54c-1.649,0-3.223-0.976-3.888-2.609L73.72,228.474
	c-0.884-2.146,0.143-4.603,2.289-5.495c2.146-0.875,4.611,0.143,5.495,2.289l69.003,167.458c0.884,2.146-0.143,4.611-2.289,5.487
	C147.696,398.448,147.149,398.54,146.611,398.54z"/>
<path style="fill:#D81B60;" d="M450.391,273.157c-1.641,0-3.215-0.968-3.888-2.592l-69.844-167.458
	c-0.884-2.146,0.126-4.603,2.272-5.503c2.121-0.892,4.611,0.118,5.503,2.264l69.844,167.458c0.884,2.146-0.126,4.611-2.272,5.503
	C451.485,273.048,450.93,273.157,450.391,273.157z"/>
<path style="fill:#424242;" d="M96.963,321.123c-1.649,0-3.215-0.976-3.888-2.6c-0.884-2.154,0.135-4.611,2.28-5.495l213.74-88.357
	c2.163-0.875,4.62,0.135,5.495,2.28c0.884,2.146-0.135,4.603-2.28,5.495L98.561,320.803
	C98.04,321.022,97.501,321.123,96.963,321.123z"/>
<g>
</g>
<g>
</g>
<g>
</g>
<g>
</g>
<g>
</g>
<g>
</g>
<g>
</g>
<g>
</g>
<g>
</g>
<g>
</g>
<g>
</g>
<g>
</g>
<g>
</g>
<g>
</g>
<g>
</g>
</svg>
