<svg viewBox="-17 0 497 498" xmlns="http://www.w3.org/2000/svg"><path d="m155.515625 6h300.773437v486h-450.84375v-486h71.121094" fill="#e2a176"/><path d="m421.546875 123.953125v266.582031h-381.359375v-346.429687h381.359375v55.175781" fill="#fff"/><path d="m404.207031 134.078125v242.339844h-346.679687v-314.929688h346.679687v50.160157" fill="#f5ecdb"/><path d="m341.335938 436.335938h81.265624v12h-81.265624zm0 0" fill="#f4ebdb"/><path d="m299.277344 436.335938h25.394531v12h-25.394531zm0 0" fill="#f4ebdb"/><path d="m217.921875 92.691406c0-12.398437 10.65625-22.304687 23.308594-21.0625 9.378906.917969 17.148437 8.113282 18.71875 17.40625.179687 1.074219.277343 2.132813.300781 3.175782.105469 4.785156-1.632812 9.429687-4.617188 13.171874l-4.789062 6-28.570312 31.035157c-2.226563 2.796875-6.472657 2.796875-8.703126 0l-28.566406-31.035157-4.789062-6c-2.984375-3.742187-4.726563-8.386718-4.621094-13.171874.023438-1.042969.121094-2.105469.304688-3.175782 1.570312-9.292968 9.339843-16.488281 18.71875-17.40625 12.648437-1.242187 23.304687 8.664063 23.304687 21.0625v3.109375" fill="#f66e6a"/><path d="m286.695312 217.242188-4.816406 1.179687c-5.441406 1.332031-10.933594-2.003906-12.265625-7.445313-1.332031-5.441406 2-10.933593 7.445313-12.265624l4.816406-1.179688" fill="#ed9b7c"/><path d="m376.804688 174.847656 6.417968-1.570312c5.164063-1.261719 10.371094 1.898437 11.632813 7.0625 1.265625 5.164062-1.894531 10.371094-7.058594 11.636718l-4.574219 1.117188" fill="#ed9b7c"/><path d="m281.964844 198.25c7 28.617188 34.382812 46.503906 61.164062 39.953125 26.402344-6.460937 42.359375-34.261719 36.097656-62.464844-.144531-.660156-.808593-1.070312-1.46875-.917969-7.695312 1.8125-51.058593 10.644532-77.960937-12.828124-2.5625-2.234376-5.996094-2.945313-9.089844-1.917969-.054687.019531-.109375.039062-.164062.054687-4.851563 1.519532-7.539063 6.925782-6.207031 12.1875 2.269531 8.953125 2.816406 19.929688-2.371094 25.933594" fill="#f9c7bb"/><path d="m387.847656 174.96875-8.351562 2.0625c-.078125-.429688-.171875-.859375-.269532-1.292969-.152343-.660156-.8125-1.066406-1.46875-.917969-7.691406 1.808594-51.0625 10.648438-77.960937-12.832031-2.5625-2.226562-5.992187-2.9375-9.09375-1.910156-.046875.011719-.105469.03125-.15625.050781-4.859375 1.519532-7.539063 6.921875-6.210937 12.191406 2.269531 8.949219 2.820312 19.917969-2.371094 25.929688.222656.898438.460937 1.800781.722656 2.679688l-9.191406 2.269531c-3.261719-3-5.699219-6.960938-6.839844-11.589844l-4.871094-19.9375c-4.628906-18.910156 1.222656-37.921875 13.832032-50.941406 6.898437-7.121094 15.828124-12.449219 26.167968-14.980469l15.882813-3.890625c29.25-7.148437 58.757812 10.761719 65.917969 40.011719l4.882812 19.949218c1.097656 4.53125.796875 9.058594-.621094 13.148438zm0 0" fill="#453542"/><path d="m328.96875 234.707031-.296875 1.234375c-3.503906 14.738282-10.742187 25.765625-25.769531 27.714844l-30.394532 3.300781c-23.382812 3.042969-40.886718 22.953125-40.886718 46.539063 0 0-.488282 3.003906-1.234375 7.917968-.964844 6.4375-2.371094 16.125-3.652344 26.636719v42.488281h195.867187v-120.179687c-3.894531-1.675781-8.070312-2.835937-12.449218-3.398437l-30.390625-3.304688c-15.019531-1.953125-22.265625-12.980469-25.761719-27.714844l-.300781-1.234375zm0 0" fill="#ed9b7c"/><path d="m422.605469 270.359375v120.179687h-195.867188v-42.488281c1.277344-10.511719 2.6875-20.199219 3.648438-26.640625.75-4.910156 1.238281-7.910156 1.238281-7.910156 0-23.589844 17.5-43.5 40.882812-46.539062l30.398438-3.300782c5.441406-.710937 9.859375-2.609375 13.449219-5.4375l24.980469 11.898438 24.980468-11.898438c3.589844 2.839844 8.007813 4.726563 13.449219 5.4375l30.390625 3.300782c4.378906.558593 8.550781 1.726562 12.449219 3.398437zm0 0" fill="#506e7f"/><path d="m85.058594 227.898438-5.09375-.890626c-5.75-1.007812-9.59375-6.488281-8.585938-12.238281 1.011719-5.75 6.488282-9.59375 12.238282-8.585937l4.234374 2.171875" fill="#ed9b7c"/><path d="m184.175781 224.050781 6.992188 1.226563c5.628906.988281 9.390625 6.351562 8.402343 11.980468-.984374 5.625-6.347656 9.386719-11.976562 8.398438l-4.984375-.871094" fill="#ed9b7c"/><path d="m199.554688 331.578125c1.824218-8.425781.035156-22.335937.175781-30.078125.238281-13.371094-4.035157-21.230469-7.109375-27.972656-7.390625-16.210938-3.363282-26.847656-3.363282-26.847656l-111.167968-21.363282s-.46875 11.351563-14.136719 27.21875c-10.808594 12.550782-23.765625 21.890625-23.765625 50.464844zm0 0" fill="#453542"/><path d="m186.726562 222.707031c-3.082031 28.578125-25.859374 50.34375-53.085937 47.242188-36.535156-4.164063-48.871094-33.296875-45.789063-61.875 0 0 47.253907 10.355469 78.402344-16.480469 2.515625-2.167969 5.421875-3.625 8.542969-3.027344.058594.007813.113281.019532.167969.03125 4.890625.839844 8.1875 5.722656 7.574218 10.988282-1.039062 8.945312-3.769531 17.09375 4.1875 23.121093" fill="#f9c7bb"/><path d="m118.117188 265.785156-.253907 1.070313c-3.042969 12.789062-9.328125 22.371093-22.371093 24.066406l-26.382813 2.859375c-11.574219 1.5-21.496094 7.769531-27.871094 16.683594v80.066406h189.628907c-1.367188-23.191406-6.785157-56.359375-6.785157-56.359375 0-20.46875-15.195312-37.761719-35.488281-40.390625l-26.378906-2.859375c-13.046875-1.695313-19.328125-11.277344-22.371094-24.066406l-.246094-1.070313" fill="#f9c7bb"/><path d="m150.738281 292.855469c-9.90625-6.457031-25.414062-10.347657-35.761719-8.355469.511719-1.125 4.035157-5.464844 4.449219-6.6875.570313-1.667969 1.066407-3.429688 1.488281-5.261719l.035157-.144531c.089843-.390625.179687-.78125.261719-1.171875l.007812-.027344.21875-1.015625h18.871094l.222656 1.042969c1.796875 8.4375 4.898438 17.441406 10.207031 21.621094zm0 0" fill="#ed9b7c"/><path d="m196.816406 207.75-3.488281 19.871094-7.222656-1.332032c.070312-.320312.121093-.628906.179687-.949218-5.578125-5.648438-5.757812-16.648438-4.078125-25.738282.980469-5.351562-2.058593-10.570312-7.011719-11.773437-.058593-.007813-.105468-.019531-.167968-.039063-3.160156-.820312-6.539063.121094-8.949219 2.519532-27.859375 27.761718-78.230469 17.769531-78.230469 17.769531-.007812.042969-.007812.070313-.019531.113281l-6.820313-1.261718c1.109376-6.300782 2.21875-12.609376 3.320313-18.910157.71875-4.097656 4.929687-25.859375 24.117187-40.679687 12.132813-9.359375 27.402344-13.800782 42.933594-11.070313 2.167969.378907 4.828125.980469 7.828125 2 2.980469 1.011719 6.289063 2.441407 9.722657 4.441407 2.5 1.46875 11.847656 7.230468 19.058593 18.578124 12.207031 19.242188 9.628907 40.941407 8.828125 46.460938zm0 0" fill="#453542"/><path d="m199.96875 390.535156c0-14.609375-4.984375-28.789062-14.136719-40.183594l-8.242187-10.265624-50.980469 18.464843-44.773437-18.464843-8.242188 10.265624c-9.152344 11.394532-14.136719 25.570313-14.136719 40.183594zm0 0" fill="#f66e6a"/><path d="m241.816406 65.65625c-7.671875-.75-15.304687 1.765625-20.972656 6.902344-1.0625.964844-2.035156 2.003906-2.921875 3.105468-.886719-1.105468-1.863281-2.144531-2.925781-3.105468-5.664063-5.136719-13.304688-7.652344-20.96875-6.902344-12.132813 1.191406-22.023438 10.394531-24.046875 22.378906-.226563 1.332032-.355469 2.691406-.386719 4.042969-.132812 6.03125 1.972656 12.085937 5.925781 17.046875l4.789063 6 28.726562 31.230469c2.207032 2.648437 5.429688 4.160156 8.886719 4.160156s6.679687-1.511719 8.882813-4.160156l28.453124-30.910157 5.0625-6.324218c3.957032-4.957032 6.0625-11.011719 5.925782-17.039063-.027344-1.34375-.15625-2.703125-.382813-4.046875-2.023437-11.984375-11.914062-21.1875-24.046875-22.378906zm9.125 35.984375-4.65625 5.835937-28.363281 30.8125-28.363281-30.8125-4.65625-5.835937c-2.207032-2.765625-3.382813-6.066406-3.308594-9.292969.015625-.773437.089844-1.550781.21875-2.3125 1.109375-6.550781 6.738281-11.78125 13.390625-12.433594 4.351563-.425781 8.527344.9375 11.734375 3.847657 3.167969 2.871093 4.984375 6.96875 4.984375 11.242187v6.589844h12v-6.589844c0-4.273437 1.816406-8.371094 4.984375-11.242187 3.207031-2.910157 7.375-4.277344 11.738281-3.851563 6.648438.65625 12.28125 5.882813 13.386719 12.433594.128906.769531.203125 1.546875.222656 2.3125.066406 3.230469-1.105468 6.53125-3.3125 9.296875zm0 0"/><path d="m341.792969 228.488281c6.753906-2.011719 11.023437-7.328125 12.765625-11.628906l-11.121094-4.503906c-.144531.363281-1.539062 3.582031-5.074219 4.632812-3.777343 1.128907-6.921875-1.195312-7.050781-1.296875l-7.238281 9.574219c1.0625.800781 5.742187 4.039063 12.175781 4.039063 1.734375 0 3.59375-.234376 5.542969-.816407zm0 0"/><path d="m132.625 245.597656c-3.917969-.488281-5.859375-3.882812-5.9375-4.027344l-10.472656 5.863282c.824218 1.472656 5.425781 8.886718 14.929687 10.070312.800781.101563 1.589844.148438 2.363281.148438 5.976563 0 11.050782-2.796875 13.996094-5.660156l-8.367187-8.605469c-.28125.277343-2.859375 2.671875-6.511719 2.210937zm0 0"/><path d="m335.335938 296.792969h12v35.859375h-12zm0 0"/><path d="m335.335938 348.050781h12v17.261719h-12zm0 0"/><path d="m156.570312 0v12h294.773438v474h-438.84375v-474h65.121094v-12h-77.121094v498h462.84375v-498zm0 0"/><path d="m428.601562 99.28125v-61.175781h-393.359374v358.433593h393.359374v-272.585937h-12v138.109375c-1.871093-.453125-3.765624-.808594-5.679687-1.054688l-30.445313-3.308593c-10.132812-1.339844-16.363281-7.695313-19.957031-20.5 7.332031-4.679688 13.53125-11.148438 18.105469-19.078125 3.535156-6.132813 5.902344-12.8125 7.082031-19.742188l3.511719-.859375c8.371094-2.042969 13.511719-10.519531 11.464844-18.886719-.867188-3.542968-2.890625-6.601562-5.769532-8.765624.425782-3.480469.222657-7.027344-.625-10.480469l-4.878906-19.949219c-3.839844-15.703125-13.566406-28.96875-27.386718-37.359375-13.820313-8.386719-30.082032-10.890625-45.785157-7.050781l-15.878906 3.882812c-11.09375 2.714844-21.144531 8.46875-29.058594 16.636719-14.585937 15.058594-20.328125 36.195313-15.351562 56.535156l4.878906 19.949219c.816406 3.335938 2.207031 6.457031 4.082031 9.269531-1.621094 3.359375-2.023437 7.144531-1.128906 10.820313 1.804688 7.363281 8.421875 12.308594 15.6875 12.308594 1.265625 0 2.550781-.148438 3.832031-.464844l4.042969-.988282c8.253906 10.644532 19.710938 18.125 32.332031 21.117188-3.761719 8.242188-9.371093 12.535156-17.488281 13.605469l-30.328125 3.292969-.125.015624c-26.125 3.394532-45.867187 25.703126-46.113281 51.996094-.035156.238282-.09375.574219-.15625.988282-4.351563-9.027344-11.523438-16.507813-20.449219-21.203126-.078125-.453124-.148437-.902343-.238281-1.371093-1.707032-8.90625-4.914063-16.789063-7.253906-22.550781-.5-1.226563-.960938-2.363282-1.367188-3.40625-2.410156-6.191407-2.3125-11.3125-1.699219-14.753907 5.546875-1.824219 9.945313-6.554687 11.023438-12.695312.753906-4.300781-.210938-8.636719-2.71875-12.210938-.675781-.964843-1.449219-1.832031-2.289063-2.617187l2.25-12.847656.027344-.175782c1.253906-8.625 2.8125-30.820312-9.699219-50.542968-7.183593-11.300782-16.292969-17.714844-21.097656-20.535157-3.453125-2.019531-7.097656-3.6875-10.816406-4.945312-2.824219-.960938-5.757813-1.710938-8.71875-2.230469-16.703125-2.929688-33.617188 1.410156-47.644531 12.230469-19.929688 15.390625-25.214844 37.871093-26.359376 44.394531l-2.132812 12.160156c-1.402344.5-2.753906 1.179688-4.007812 2.058594-3.625 2.542969-6.039063 6.34375-6.804688 10.703125-1.078125 6.136719 1.394531 12.085937 5.925781 15.753906-.570312 3.777344-2.382812 9.289063-7.691406 14.9375-.828125.882813-1.757813 1.839844-2.761719 2.875-3.921875 4.042969-9.039062 9.328125-13.699218 15.746094v-212.660156h369.355468v49.175781zm-381.359374 213.195312c5.574218-6.964843 13.699218-11.570312 22.582031-12.738281l4.875-.527343v40.179687l-5.789063 7.207031c-8.710937 10.847656-14 24.136719-15.195312 37.941406h-6.472656zm132.601562-85.5625c-4.980469 21.757813-23.617188 37.089844-43.953125 37.085938-2.320313 0-4.664063-.199219-7.007813-.609375-22.050781-3.867187-37.195312-24.96875-35.808593-48.460937 15.109375 1.804687 53.265625 3.519531 77.234375-20.367188.878906-.875 2.046875-1.238281 3.144531-.980469.152344.042969.292969.078125.417969.105469 1.75.484375 2.835937 2.628906 2.433594 4.824219-1.070313 5.800781-2.660157 19.355469 3.539062 28.402343zm-57.847656 47.203126c1.574218.429687 3.175781.804687 4.8125 1.09375 3.082031.539062 6.171875.808593 9.25.808593.121094 0 .242187-.007812.363281-.007812 4.816406 12.304687 13.195313 19.324219 25.015625 20.859375l10.152344 1.101562v37.902344l-44.917969 16.257812-39.972656-16.101562v-38.121094l9.4375-1.019531.125-.019531c12.425781-1.613282 21.054687-9.265625 25.734375-22.753906zm-43.726563 79.992187 5.179688-6.449219 42.996093 17.316406 49.152344-17.789062 5.558594 6.921875c7.003906 8.726563 11.328125 19.355469 12.488281 30.425781h-127.863281c1.160156-11.074218 5.484375-21.699218 12.488281-30.425781zm278.089844-97.792969-15.023437 7.15625-15.023438-7.15625c2.234375-3.074218 4.128906-6.667968 5.679688-10.769531 4.160156 0 8.367187-.492187 12.5625-1.515625 1.726562-.421875 3.414062-.929688 5.066406-1.515625 1.722656 5.386719 3.96875 9.992187 6.738281 13.800781zm32.246094-72.089844c-.46875.773438-1.195313 1.320313-2.054688 1.578126-.085937-2.347657-.324219-4.699219-.679687-7.050782.53125.050782 1.050781.210938 1.519531.492188.824219.503906 1.40625 1.300781 1.636719 2.238281.230468.941406.082031 1.914063-.421875 2.742187zm-108.683594-60.328124c6.339844-6.542969 14.394531-11.152344 23.292969-13.328126l15.875-3.882812c12.589844-3.082031 25.628906-1.074219 36.707031 5.652344 11.082031 6.726562 18.878906 17.363281 21.957031 29.949218l4.878906 19.949219c.378907 1.542969.53125 3.113281.480469 4.675781-.4375.070313-.878906.148438-1.316406.257813l-6.417969 1.566406.109375.449219c-9.605469 2.140625-48.003906 9-71.746093-11.714844-4.183594-3.648437-9.761719-4.804687-14.988282-3.070312-7.871094 2.460937-12.363281 10.980468-10.234375 19.390625 1.847657 7.277343 1.925781 13.914062.34375 18.019531l-3.230469.789062c-.5625.136719-1.113281.308594-1.652343.503907-.648438-1.234375-1.15625-2.546875-1.492188-3.925781l-4.878906-19.945313c-3.992187-16.3125.613281-33.257813 12.3125-45.335937zm.53125 88.414062c-2.21875.539062-4.46875-.824219-5.011719-3.042969-.261718-1.074219-.09375-2.1875.484375-3.136719.398438-.65625.96875-1.167968 1.632813-1.515624.882812 2.648437 1.929687 5.191406 3.121094 7.636718zm8.039063-12.914062c5.578124-9.429688 3.109374-22.839844 1.660156-28.554688-.558594-2.199219.421875-4.4375 2.195312-4.992188l.25-.082031c1.089844-.363281 2.304688-.082031 3.253906.746094 25.339844 22.109375 63.292969 17.957031 78.324219 15.175781 2.914063 23.257813-10.917969 45.410156-32.472656 50.683594-22.714844 5.554688-46.050781-9.125-53.210937-32.976562zm-52.171876 122.914062c.738282-4.863281 1.21875-7.839844 1.222657-7.855469l.078125-.480469v-.480468c0-20.476563 15.300781-37.910156 35.601562-40.582032l30.328125-3.292968.125-.015625c4.945313-.640625 9.355469-2.140625 13.226563-4.484375l24.4375 11.644531 24.433594-11.640625c3.867187 2.34375 8.277343 3.839844 13.21875 4.480469l30.453124 3.308593c2.441407.320313 4.832032.878907 7.15625 1.625v109.996094h-180.136718c-.957032-12.097656-2.6875-25.648437-4.121094-35.800781l.347656.042969c.992188-8.15625 2.179688-16.8125 3.628906-26.464844zm-18.238281 11.863281v.484375l.078125.480469c.050782.296875 4.464844 27.46875 6.265625 49.394531h-18.714843c-1.195313-13.804687-6.488282-27.089844-15.199219-37.941406l-6.921875-8.621094v-38.699218l4.292968.464843c17.21875 2.265625 30.199219 17.058594 30.199219 34.4375zm-28.71875-46.347656-26.4375-2.863281c-4.671875-.617188-10.144531-2.519532-14.121093-10.503906 6.984374-1.726563 13.683593-4.878907 19.765624-9.371094 5.398438-3.992188 10.039063-8.855469 13.789063-14.355469-.59375 5.042969-.292969 11.605469 2.613281 19.070313.421875 1.089843.910156 2.289062 1.433594 3.582031 1.722656 4.234375 3.761719 9.257812 5.292969 14.808593-.769531-.136718-1.546875-.261718-2.335938-.367187zm4.296875-51.890625c-.414062 2.359375-2.671875 3.945312-5.027344 3.53125l-.210937-.039062c1.082031-2.648438 1.988281-5.390626 2.710937-8.203126.71875.3125 1.34375.808594 1.804688 1.464844.667969.949219.925781 2.101563.722656 3.246094zm-81.554687-82.304688c11.324219-8.730468 24.902343-12.25 38.238281-9.910156 2.386719.417969 4.652344 1 6.9375 1.777344 2.960938 1.003906 5.859375 2.328125 8.605469 3.933594 3.105469 1.828125 10.988281 7.101562 17.035156 16.617187 10.320313 16.265625 9.023437 34.9375 7.96875 42.304688l-1.789063 10.1875-.238281-.042969c-1.773437-4.011719-2.101562-10.539062-.753906-17.816406 1.5625-8.535156-3.488281-16.742188-11.5-18.683594l-.199219-.050781c-5.226562-1.308594-10.664062.222656-14.566406 4.109375-23.429688 23.34375-65.761719 17.320312-72.039062 16.273437l-1.488282-.765625 1.921875-10.960937c.953125-5.449219 5.355469-24.21875 21.867188-36.972657zm-34.816407 61.890626c.210938-1.203126.878907-2.25 1.878907-2.953126.644531-.453124 1.359375-.726562 2.140625-.800781-.300782 3.054688-.375 6.078125-.234375 9.058594l-.070313-.011719c-1.203125-.210937-2.25-.878906-2.953125-1.878906-.699219-.996094-.972656-2.210938-.761719-3.414062zm-7.730468 39.847656c1.050781-1.082032 2.023437-2.085938 2.894531-3.011719 6.332031-6.738281 9.148437-13.578125 10.34375-19.046875l.152344.027344c4.054687 15.621094 14.125 28.902344 27.894531 36.328125-3.980469 12.078125-10.574219 14.570312-16.0625 15.296875l-26.3125 2.851562-.125.015625c-7.664062.992188-14.902344 3.898438-21.097656 8.3125v-4.023437c2.03125-15.84375 14.234375-28.421875 22.3125-36.75zm0 0"/><path d="m341.335938 448.992188h81.265624v12h-81.265624zm0 0"/><path d="m299.277344 448.992188h25.394531v12h-25.394531zm0 0"/><path d="m101.886719 0h33.679687v12h-33.679687zm0 0"/></svg>