  0
SECTION
  2
HEADER
  9
$ACADVER
  1
AC1009
  9
$EXTMIN
 10
0.0
 20
0.0
 30
0.0
  9
$EXTMAX
 10
1000.0
 20
1000.0
 30
0.0
  9
$FILLMODE
 70
 0
  9
$SPLFRAME
 70
 1
  0
ENDSEC
  0
SECTION
  2
TABLES
  0
TABLE
  2
LAYER
 70
1
  0
LAYER
  2
0
 70
     0
 62
     7
  6
CONTINUOUS
  0
ENDTAB
  0
ENDSEC
  0
SECTION
  2
ENTITIES
  0
POLYLINE
  8
0
 62
     0
 66
     1
 10
0
 20
0
 30
0.0
 70
     1
 40
1.0212
 41
1.0212
  0
VERTEX
  8
0
 10
115.43
 20
78.9245
 30
0.0
 40
0.360257
 41
0.360257
  0
VERTEX
  8
0
 10
115.232
 20
78.9217
 30
0.0
 40
0.360257
 41
0.360257
  0
VERTEX
  8
0
 10
114.639
 20
78.8088
 30
0.0
 40
0.360257
 41
0.360257
  0
VERTEX
  8
0
 10
114.045
 20
78.5248
 30
0.0
 40
0.360257
 41
0.360257
  0
VERTEX
  8
0
 10
113.619
 20
78.1293
 30
0.0
 40
0.360257
 41
0.360257
  0
VERTEX
  8
0
 10
113.334
 20
77.6785
 30
0.0
 40
0.360257
 41
0.360257
  0
VERTEX
  8
0
 10
113.161
 20
77.2294
 30
0.0
 40
0.360257
 41
0.360257
  0
VERTEX
  8
0
 10
113.072
 20
76.8396
 30
0.0
 40
0.360257
 41
0.360257
  0
VERTEX
  8
0
 10
113.039
 20
76.5623
 30
0.0
 40
0.360257
 41
0.360257
  0
VERTEX
  8
0
 10
113.035
 20
76.4575
 30
0.0
 40
0.360257
 41
0.360257
  0
VERTEX
  8
0
 10
113.035
 20
76.4575
 30
0.0
 40
0.360257
 41
0.360257
  0
VERTEX
  8
0
 10
0.180523
 20
76.4575
 30
0.0
 40
0.360257
 41
0.360257
  0
VERTEX
  8
0
 10
0.180523
 20
152.299
 30
0.0
 40
0.360257
 41
0.360257
  0
VERTEX
  8
0
 10
113.035
 20
152.299
 30
0.0
 40
0.360257
 41
0.360257
  0
VERTEX
  8
0
 10
113.035
 20
152.299
 30
0.0
 40
0.360257
 41
0.360257
  0
VERTEX
  8
0
 10
113.042
 20
152.196
 30
0.0
 40
0.360257
 41
0.360257
  0
VERTEX
  8
0
 10
113.082
 20
151.919
 30
0.0
 40
0.360257
 41
0.360257
  0
VERTEX
  8
0
 10
113.18
 20
151.529
 30
0.0
 40
0.360257
 41
0.360257
  0
VERTEX
  8
0
 10
113.36
 20
151.08
 30
0.0
 40
0.360257
 41
0.360257
  0
VERTEX
  8
0
 10
113.651
 20
150.629
 30
0.0
 40
0.360257
 41
0.360257
  0
VERTEX
  8
0
 10
114.075
 20
150.234
 30
0.0
 40
0.360257
 41
0.360257
  0
VERTEX
  8
0
 10
114.66
 20
149.949
 30
0.0
 40
0.360257
 41
0.360257
  0
VERTEX
  8
0
 10
115.237
 20
149.834
 30
0.0
 40
0.360257
 41
0.360257
  0
VERTEX
  8
0
 10
115.43
 20
149.831
 30
0.0
 40
0.360257
 41
0.360257
  0
VERTEX
  8
0
 10
115.43
 20
149.831
 30
0.0
 40
0.360257
 41
0.360257
  0
VERTEX
  8
0
 10
115.525
 20
149.837
 30
0.0
 40
0.360257
 41
0.360257
  0
VERTEX
  8
0
 10
115.778
 20
149.87
 30
0.0
 40
0.360257
 41
0.360257
  0
VERTEX
  8
0
 10
116.14
 20
149.962
 30
0.0
 40
0.360257
 41
0.360257
  0
VERTEX
  8
0
 10
116.56
 20
150.14
 30
0.0
 40
0.360257
 41
0.360257
  0
VERTEX
  8
0
 10
116.989
 20
150.435
 30
0.0
 40
0.360257
 41
0.360257
  0
VERTEX
  8
0
 10
117.376
 20
150.873
 30
0.0
 40
0.360257
 41
0.360257
  0
VERTEX
  8
0
 10
117.671
 20
151.485
 30
0.0
 40
0.360257
 41
0.360257
  0
VERTEX
  8
0
 10
117.81
 20
152.096
 30
0.0
 40
0.360257
 41
0.360257
  0
VERTEX
  8
0
 10
117.825
 20
152.299
 30
0.0
 40
0.360257
 41
0.360257
  0
VERTEX
  8
0
 10
152.214
 20
152.299
 30
0.0
 40
0.360257
 41
0.360257
  0
VERTEX
  8
0
 10
152.214
 20
76.4205
 30
0.0
 40
0.360257
 41
0.360257
  0
VERTEX
  8
0
 10
117.825
 20
76.4205
 30
0.0
 40
0.360257
 41
0.360257
  0
VERTEX
  8
0
 10
117.818
 20
76.6286
 30
0.0
 40
0.360257
 41
0.360257
  0
VERTEX
  8
0
 10
117.701
 20
77.2474
 30
0.0
 40
0.360257
 41
0.360257
  0
VERTEX
  8
0
 10
117.42
 20
77.8686
 30
0.0
 40
0.360257
 41
0.360257
  0
VERTEX
  8
0
 10
117.035
 20
78.3138
 30
0.0
 40
0.360257
 41
0.360257
  0
VERTEX
  8
0
 10
116.6
 20
78.6116
 30
0.0
 40
0.360257
 41
0.360257
  0
VERTEX
  8
0
 10
116.169
 20
78.7936
 30
0.0
 40
0.360257
 41
0.360257
  0
VERTEX
  8
0
 10
115.794
 20
78.8857
 30
0.0
 40
0.360257
 41
0.360257
  0
VERTEX
  8
0
 10
115.529
 20
78.9203
 30
0.0
 40
0.360257
 41
0.360257
  0
VERTEX
  8
0
 10
115.43
 20
78.9245
 30
0.0
 40
0.360257
 41
0.360257
  0
VERTEX
  8
0
 10
115.43
 20
78.9245
 30
0.0
 40
0.360257
 41
0.360257
  0
SEQEND
 8
0
  0
POLYLINE
  8
0
 62
     0
 66
     1
 10
0
 20
0
 30
0.0
 70
     1
 40
0
 41
0
  0
VERTEX
  8
0
 10
115.109
 20
146.057
 30
0.0
 40
0
 41
0
  0
VERTEX
  8
0
 10
115.645
 20
146.057
 30
0.0
 40
0
 41
0
  0
VERTEX
  8
0
 10
115.645
 20
145.113
 30
0.0
 40
0
 41
0
  0
VERTEX
  8
0
 10
115.109
 20
145.113
 30
0.0
 40
0
 41
0
  0
VERTEX
  8
0
 10
115.109
 20
146.057
 30
0.0
 40
0
 41
0
  0
SEQEND
 8
0
  0
POLYLINE
  8
0
 62
     0
 66
     1
 10
0
 20
0
 30
0.0
 70
     1
 40
0
 41
0
  0
VERTEX
  8
0
 10
115.109
 20
147.763
 30
0.0
 40
0
 41
0
  0
VERTEX
  8
0
 10
115.645
 20
147.763
 30
0.0
 40
0
 41
0
  0
VERTEX
  8
0
 10
115.645
 20
146.819
 30
0.0
 40
0
 41
0
  0
VERTEX
  8
0
 10
115.109
 20
146.819
 30
0.0
 40
0
 41
0
  0
VERTEX
  8
0
 10
115.109
 20
147.763
 30
0.0
 40
0
 41
0
  0
SEQEND
 8
0
  0
POLYLINE
  8
0
 62
     0
 66
     1
 10
0
 20
0
 30
0.0
 70
     1
 40
0
 41
0
  0
VERTEX
  8
0
 10
115.109
 20
149.433
 30
0.0
 40
0
 41
0
  0
VERTEX
  8
0
 10
115.645
 20
149.433
 30
0.0
 40
0
 41
0
  0
VERTEX
  8
0
 10
115.645
 20
148.488
 30
0.0
 40
0
 41
0
  0
VERTEX
  8
0
 10
115.109
 20
148.488
 30
0.0
 40
0
 41
0
  0
VERTEX
  8
0
 10
115.109
 20
149.433
 30
0.0
 40
0
 41
0
  0
SEQEND
 8
0
  0
POLYLINE
  8
0
 62
     0
 66
     1
 10
0
 20
0
 30
0.0
 70
     1
 40
0
 41
0
  0
VERTEX
  8
0
 10
115.109
 20
141.011
 30
0.0
 40
0
 41
0
  0
VERTEX
  8
0
 10
115.645
 20
141.011
 30
0.0
 40
0
 41
0
  0
VERTEX
  8
0
 10
115.645
 20
140.065
 30
0.0
 40
0
 41
0
  0
VERTEX
  8
0
 10
115.109
 20
140.065
 30
0.0
 40
0
 41
0
  0
VERTEX
  8
0
 10
115.109
 20
141.011
 30
0.0
 40
0
 41
0
  0
SEQEND
 8
0
  0
POLYLINE
  8
0
 62
     0
 66
     1
 10
0
 20
0
 30
0.0
 70
     1
 40
0
 41
0
  0
VERTEX
  8
0
 10
115.109
 20
142.679
 30
0.0
 40
0
 41
0
  0
VERTEX
  8
0
 10
115.645
 20
142.679
 30
0.0
 40
0
 41
0
  0
VERTEX
  8
0
 10
115.645
 20
141.736
 30
0.0
 40
0
 41
0
  0
VERTEX
  8
0
 10
115.109
 20
141.736
 30
0.0
 40
0
 41
0
  0
VERTEX
  8
0
 10
115.109
 20
142.679
 30
0.0
 40
0
 41
0
  0
SEQEND
 8
0
  0
POLYLINE
  8
0
 62
     0
 66
     1
 10
0
 20
0
 30
0.0
 70
     1
 40
0
 41
0
  0
VERTEX
  8
0
 10
115.109
 20
144.385
 30
0.0
 40
0
 41
0
  0
VERTEX
  8
0
 10
115.645
 20
144.385
 30
0.0
 40
0
 41
0
  0
VERTEX
  8
0
 10
115.645
 20
143.441
 30
0.0
 40
0
 41
0
  0
VERTEX
  8
0
 10
115.109
 20
143.441
 30
0.0
 40
0
 41
0
  0
VERTEX
  8
0
 10
115.109
 20
144.385
 30
0.0
 40
0
 41
0
  0
SEQEND
 8
0
  0
POLYLINE
  8
0
 62
     0
 66
     1
 10
0
 20
0
 30
0.0
 70
     1
 40
0
 41
0
  0
VERTEX
  8
0
 10
115.109
 20
135.961
 30
0.0
 40
0
 41
0
  0
VERTEX
  8
0
 10
115.645
 20
135.961
 30
0.0
 40
0
 41
0
  0
VERTEX
  8
0
 10
115.645
 20
135.018
 30
0.0
 40
0
 41
0
  0
VERTEX
  8
0
 10
115.109
 20
135.018
 30
0.0
 40
0
 41
0
  0
VERTEX
  8
0
 10
115.109
 20
135.961
 30
0.0
 40
0
 41
0
  0
SEQEND
 8
0
  0
POLYLINE
  8
0
 62
     0
 66
     1
 10
0
 20
0
 30
0.0
 70
     1
 40
0
 41
0
  0
VERTEX
  8
0
 10
115.109
 20
137.633
 30
0.0
 40
0
 41
0
  0
VERTEX
  8
0
 10
115.645
 20
137.633
 30
0.0
 40
0
 41
0
  0
VERTEX
  8
0
 10
115.645
 20
136.689
 30
0.0
 40
0
 41
0
  0
VERTEX
  8
0
 10
115.109
 20
136.689
 30
0.0
 40
0
 41
0
  0
VERTEX
  8
0
 10
115.109
 20
137.633
 30
0.0
 40
0
 41
0
  0
SEQEND
 8
0
  0
POLYLINE
  8
0
 62
     0
 66
     1
 10
0
 20
0
 30
0.0
 70
     1
 40
0
 41
0
  0
VERTEX
  8
0
 10
115.109
 20
139.302
 30
0.0
 40
0
 41
0
  0
VERTEX
  8
0
 10
115.645
 20
139.302
 30
0.0
 40
0
 41
0
  0
VERTEX
  8
0
 10
115.645
 20
138.358
 30
0.0
 40
0
 41
0
  0
VERTEX
  8
0
 10
115.109
 20
138.358
 30
0.0
 40
0
 41
0
  0
VERTEX
  8
0
 10
115.109
 20
139.302
 30
0.0
 40
0
 41
0
  0
SEQEND
 8
0
  0
POLYLINE
  8
0
 62
     0
 66
     1
 10
0
 20
0
 30
0.0
 70
     1
 40
0
 41
0
  0
VERTEX
  8
0
 10
115.109
 20
130.879
 30
0.0
 40
0
 41
0
  0
VERTEX
  8
0
 10
115.645
 20
130.879
 30
0.0
 40
0
 41
0
  0
VERTEX
  8
0
 10
115.645
 20
129.935
 30
0.0
 40
0
 41
0
  0
VERTEX
  8
0
 10
115.109
 20
129.935
 30
0.0
 40
0
 41
0
  0
VERTEX
  8
0
 10
115.109
 20
130.879
 30
0.0
 40
0
 41
0
  0
SEQEND
 8
0
  0
POLYLINE
  8
0
 62
     0
 66
     1
 10
0
 20
0
 30
0.0
 70
     1
 40
0
 41
0
  0
VERTEX
  8
0
 10
115.109
 20
132.549
 30
0.0
 40
0
 41
0
  0
VERTEX
  8
0
 10
115.645
 20
132.549
 30
0.0
 40
0
 41
0
  0
VERTEX
  8
0
 10
115.645
 20
131.606
 30
0.0
 40
0
 41
0
  0
VERTEX
  8
0
 10
115.109
 20
131.606
 30
0.0
 40
0
 41
0
  0
VERTEX
  8
0
 10
115.109
 20
132.549
 30
0.0
 40
0
 41
0
  0
SEQEND
 8
0
  0
POLYLINE
  8
0
 62
     0
 66
     1
 10
0
 20
0
 30
0.0
 70
     1
 40
0
 41
0
  0
VERTEX
  8
0
 10
115.109
 20
134.255
 30
0.0
 40
0
 41
0
  0
VERTEX
  8
0
 10
115.645
 20
134.255
 30
0.0
 40
0
 41
0
  0
VERTEX
  8
0
 10
115.645
 20
133.312
 30
0.0
 40
0
 41
0
  0
VERTEX
  8
0
 10
115.109
 20
133.312
 30
0.0
 40
0
 41
0
  0
VERTEX
  8
0
 10
115.109
 20
134.255
 30
0.0
 40
0
 41
0
  0
SEQEND
 8
0
  0
POLYLINE
  8
0
 62
     0
 66
     1
 10
0
 20
0
 30
0.0
 70
     1
 40
0
 41
0
  0
VERTEX
  8
0
 10
115.109
 20
125.833
 30
0.0
 40
0
 41
0
  0
VERTEX
  8
0
 10
115.645
 20
125.833
 30
0.0
 40
0
 41
0
  0
VERTEX
  8
0
 10
115.645
 20
124.889
 30
0.0
 40
0
 41
0
  0
VERTEX
  8
0
 10
115.109
 20
124.889
 30
0.0
 40
0
 41
0
  0
VERTEX
  8
0
 10
115.109
 20
125.833
 30
0.0
 40
0
 41
0
  0
SEQEND
 8
0
  0
POLYLINE
  8
0
 62
     0
 66
     1
 10
0
 20
0
 30
0.0
 70
     1
 40
0
 41
0
  0
VERTEX
  8
0
 10
115.109
 20
127.504
 30
0.0
 40
0
 41
0
  0
VERTEX
  8
0
 10
115.645
 20
127.504
 30
0.0
 40
0
 41
0
  0
VERTEX
  8
0
 10
115.645
 20
126.56
 30
0.0
 40
0
 41
0
  0
VERTEX
  8
0
 10
115.109
 20
126.56
 30
0.0
 40
0
 41
0
  0
VERTEX
  8
0
 10
115.109
 20
127.504
 30
0.0
 40
0
 41
0
  0
SEQEND
 8
0
  0
POLYLINE
  8
0
 62
     0
 66
     1
 10
0
 20
0
 30
0.0
 70
     1
 40
0
 41
0
  0
VERTEX
  8
0
 10
115.109
 20
129.173
 30
0.0
 40
0
 41
0
  0
VERTEX
  8
0
 10
115.645
 20
129.173
 30
0.0
 40
0
 41
0
  0
VERTEX
  8
0
 10
115.645
 20
128.229
 30
0.0
 40
0
 41
0
  0
VERTEX
  8
0
 10
115.109
 20
128.229
 30
0.0
 40
0
 41
0
  0
VERTEX
  8
0
 10
115.109
 20
129.173
 30
0.0
 40
0
 41
0
  0
SEQEND
 8
0
  0
POLYLINE
  8
0
 62
     0
 66
     1
 10
0
 20
0
 30
0.0
 70
     1
 40
0
 41
0
  0
VERTEX
  8
0
 10
115.109
 20
120.749
 30
0.0
 40
0
 41
0
  0
VERTEX
  8
0
 10
115.645
 20
120.749
 30
0.0
 40
0
 41
0
  0
VERTEX
  8
0
 10
115.645
 20
119.805
 30
0.0
 40
0
 41
0
  0
VERTEX
  8
0
 10
115.109
 20
119.805
 30
0.0
 40
0
 41
0
  0
VERTEX
  8
0
 10
115.109
 20
120.749
 30
0.0
 40
0
 41
0
  0
SEQEND
 8
0
  0
POLYLINE
  8
0
 62
     0
 66
     1
 10
0
 20
0
 30
0.0
 70
     1
 40
0
 41
0
  0
VERTEX
  8
0
 10
115.109
 20
122.421
 30
0.0
 40
0
 41
0
  0
VERTEX
  8
0
 10
115.645
 20
122.421
 30
0.0
 40
0
 41
0
  0
VERTEX
  8
0
 10
115.645
 20
121.477
 30
0.0
 40
0
 41
0
  0
VERTEX
  8
0
 10
115.109
 20
121.477
 30
0.0
 40
0
 41
0
  0
VERTEX
  8
0
 10
115.109
 20
122.421
 30
0.0
 40
0
 41
0
  0
SEQEND
 8
0
  0
POLYLINE
  8
0
 62
     0
 66
     1
 10
0
 20
0
 30
0.0
 70
     1
 40
0
 41
0
  0
VERTEX
  8
0
 10
115.109
 20
124.127
 30
0.0
 40
0
 41
0
  0
VERTEX
  8
0
 10
115.645
 20
124.127
 30
0.0
 40
0
 41
0
  0
VERTEX
  8
0
 10
115.645
 20
123.183
 30
0.0
 40
0
 41
0
  0
VERTEX
  8
0
 10
115.109
 20
123.183
 30
0.0
 40
0
 41
0
  0
VERTEX
  8
0
 10
115.109
 20
124.127
 30
0.0
 40
0
 41
0
  0
SEQEND
 8
0
  0
POLYLINE
  8
0
 62
     0
 66
     1
 10
0
 20
0
 30
0.0
 70
     1
 40
0
 41
0
  0
VERTEX
  8
0
 10
115.109
 20
115.704
 30
0.0
 40
0
 41
0
  0
VERTEX
  8
0
 10
115.645
 20
115.704
 30
0.0
 40
0
 41
0
  0
VERTEX
  8
0
 10
115.645
 20
114.76
 30
0.0
 40
0
 41
0
  0
VERTEX
  8
0
 10
115.109
 20
114.76
 30
0.0
 40
0
 41
0
  0
VERTEX
  8
0
 10
115.109
 20
115.704
 30
0.0
 40
0
 41
0
  0
SEQEND
 8
0
  0
POLYLINE
  8
0
 62
     0
 66
     1
 10
0
 20
0
 30
0.0
 70
     1
 40
0
 41
0
  0
VERTEX
  8
0
 10
115.109
 20
117.374
 30
0.0
 40
0
 41
0
  0
VERTEX
  8
0
 10
115.645
 20
117.374
 30
0.0
 40
0
 41
0
  0
VERTEX
  8
0
 10
115.645
 20
116.429
 30
0.0
 40
0
 41
0
  0
VERTEX
  8
0
 10
115.109
 20
116.429
 30
0.0
 40
0
 41
0
  0
VERTEX
  8
0
 10
115.109
 20
117.374
 30
0.0
 40
0
 41
0
  0
SEQEND
 8
0
  0
POLYLINE
  8
0
 62
     0
 66
     1
 10
0
 20
0
 30
0.0
 70
     1
 40
0
 41
0
  0
VERTEX
  8
0
 10
115.109
 20
119.043
 30
0.0
 40
0
 41
0
  0
VERTEX
  8
0
 10
115.645
 20
119.043
 30
0.0
 40
0
 41
0
  0
VERTEX
  8
0
 10
115.645
 20
118.099
 30
0.0
 40
0
 41
0
  0
VERTEX
  8
0
 10
115.109
 20
118.099
 30
0.0
 40
0
 41
0
  0
VERTEX
  8
0
 10
115.109
 20
119.043
 30
0.0
 40
0
 41
0
  0
SEQEND
 8
0
  0
POLYLINE
  8
0
 62
     0
 66
     1
 10
0
 20
0
 30
0.0
 70
     1
 40
0
 41
0
  0
VERTEX
  8
0
 10
115.109
 20
110.621
 30
0.0
 40
0
 41
0
  0
VERTEX
  8
0
 10
115.645
 20
110.621
 30
0.0
 40
0
 41
0
  0
VERTEX
  8
0
 10
115.645
 20
109.677
 30
0.0
 40
0
 41
0
  0
VERTEX
  8
0
 10
115.109
 20
109.677
 30
0.0
 40
0
 41
0
  0
VERTEX
  8
0
 10
115.109
 20
110.621
 30
0.0
 40
0
 41
0
  0
SEQEND
 8
0
  0
POLYLINE
  8
0
 62
     0
 66
     1
 10
0
 20
0
 30
0.0
 70
     1
 40
0
 41
0
  0
VERTEX
  8
0
 10
115.109
 20
112.327
 30
0.0
 40
0
 41
0
  0
VERTEX
  8
0
 10
115.645
 20
112.327
 30
0.0
 40
0
 41
0
  0
VERTEX
  8
0
 10
115.645
 20
111.383
 30
0.0
 40
0
 41
0
  0
VERTEX
  8
0
 10
115.109
 20
111.383
 30
0.0
 40
0
 41
0
  0
VERTEX
  8
0
 10
115.109
 20
112.327
 30
0.0
 40
0
 41
0
  0
SEQEND
 8
0
  0
POLYLINE
  8
0
 62
     0
 66
     1
 10
0
 20
0
 30
0.0
 70
     1
 40
0
 41
0
  0
VERTEX
  8
0
 10
115.109
 20
113.998
 30
0.0
 40
0
 41
0
  0
VERTEX
  8
0
 10
115.645
 20
113.998
 30
0.0
 40
0
 41
0
  0
VERTEX
  8
0
 10
115.645
 20
113.054
 30
0.0
 40
0
 41
0
  0
VERTEX
  8
0
 10
115.109
 20
113.054
 30
0.0
 40
0
 41
0
  0
VERTEX
  8
0
 10
115.109
 20
113.998
 30
0.0
 40
0
 41
0
  0
SEQEND
 8
0
  0
POLYLINE
  8
0
 62
     0
 66
     1
 10
0
 20
0
 30
0.0
 70
     1
 40
0
 41
0
  0
VERTEX
  8
0
 10
115.109
 20
105.576
 30
0.0
 40
0
 41
0
  0
VERTEX
  8
0
 10
115.645
 20
105.576
 30
0.0
 40
0
 41
0
  0
VERTEX
  8
0
 10
115.645
 20
104.632
 30
0.0
 40
0
 41
0
  0
VERTEX
  8
0
 10
115.109
 20
104.632
 30
0.0
 40
0
 41
0
  0
VERTEX
  8
0
 10
115.109
 20
105.576
 30
0.0
 40
0
 41
0
  0
SEQEND
 8
0
  0
POLYLINE
  8
0
 62
     0
 66
     1
 10
0
 20
0
 30
0.0
 70
     1
 40
0
 41
0
  0
VERTEX
  8
0
 10
115.109
 20
107.243
 30
0.0
 40
0
 41
0
  0
VERTEX
  8
0
 10
115.645
 20
107.243
 30
0.0
 40
0
 41
0
  0
VERTEX
  8
0
 10
115.645
 20
106.299
 30
0.0
 40
0
 41
0
  0
VERTEX
  8
0
 10
115.109
 20
106.299
 30
0.0
 40
0
 41
0
  0
VERTEX
  8
0
 10
115.109
 20
107.243
 30
0.0
 40
0
 41
0
  0
SEQEND
 8
0
  0
POLYLINE
  8
0
 62
     0
 66
     1
 10
0
 20
0
 30
0.0
 70
     1
 40
0
 41
0
  0
VERTEX
  8
0
 10
115.109
 20
108.913
 30
0.0
 40
0
 41
0
  0
VERTEX
  8
0
 10
115.645
 20
108.913
 30
0.0
 40
0
 41
0
  0
VERTEX
  8
0
 10
115.645
 20
107.969
 30
0.0
 40
0
 41
0
  0
VERTEX
  8
0
 10
115.109
 20
107.969
 30
0.0
 40
0
 41
0
  0
VERTEX
  8
0
 10
115.109
 20
108.913
 30
0.0
 40
0
 41
0
  0
SEQEND
 8
0
  0
POLYLINE
  8
0
 62
     0
 66
     1
 10
0
 20
0
 30
0.0
 70
     1
 40
0
 41
0
  0
VERTEX
  8
0
 10
115.109
 20
100.491
 30
0.0
 40
0
 41
0
  0
VERTEX
  8
0
 10
115.645
 20
100.491
 30
0.0
 40
0
 41
0
  0
VERTEX
  8
0
 10
115.645
 20
99.5468
 30
0.0
 40
0
 41
0
  0
VERTEX
  8
0
 10
115.109
 20
99.5468
 30
0.0
 40
0
 41
0
  0
VERTEX
  8
0
 10
115.109
 20
100.491
 30
0.0
 40
0
 41
0
  0
SEQEND
 8
0
  0
POLYLINE
  8
0
 62
     0
 66
     1
 10
0
 20
0
 30
0.0
 70
     1
 40
0
 41
0
  0
VERTEX
  8
0
 10
115.109
 20
102.197
 30
0.0
 40
0
 41
0
  0
VERTEX
  8
0
 10
115.645
 20
102.197
 30
0.0
 40
0
 41
0
  0
VERTEX
  8
0
 10
115.645
 20
101.253
 30
0.0
 40
0
 41
0
  0
VERTEX
  8
0
 10
115.109
 20
101.253
 30
0.0
 40
0
 41
0
  0
VERTEX
  8
0
 10
115.109
 20
102.197
 30
0.0
 40
0
 41
0
  0
SEQEND
 8
0
  0
POLYLINE
  8
0
 62
     0
 66
     1
 10
0
 20
0
 30
0.0
 70
     1
 40
0
 41
0
  0
VERTEX
  8
0
 10
115.109
 20
103.868
 30
0.0
 40
0
 41
0
  0
VERTEX
  8
0
 10
115.645
 20
103.868
 30
0.0
 40
0
 41
0
  0
VERTEX
  8
0
 10
115.645
 20
102.924
 30
0.0
 40
0
 41
0
  0
VERTEX
  8
0
 10
115.109
 20
102.924
 30
0.0
 40
0
 41
0
  0
VERTEX
  8
0
 10
115.109
 20
103.868
 30
0.0
 40
0
 41
0
  0
SEQEND
 8
0
  0
POLYLINE
  8
0
 62
     0
 66
     1
 10
0
 20
0
 30
0.0
 70
     1
 40
0
 41
0
  0
VERTEX
  8
0
 10
115.109
 20
95.4458
 30
0.0
 40
0
 41
0
  0
VERTEX
  8
0
 10
115.645
 20
95.4458
 30
0.0
 40
0
 41
0
  0
VERTEX
  8
0
 10
115.645
 20
94.5018
 30
0.0
 40
0
 41
0
  0
VERTEX
  8
0
 10
115.109
 20
94.5018
 30
0.0
 40
0
 41
0
  0
VERTEX
  8
0
 10
115.109
 20
95.4458
 30
0.0
 40
0
 41
0
  0
SEQEND
 8
0
  0
POLYLINE
  8
0
 62
     0
 66
     1
 10
0
 20
0
 30
0.0
 70
     1
 40
0
 41
0
  0
VERTEX
  8
0
 10
115.109
 20
97.1144
 30
0.0
 40
0
 41
0
  0
VERTEX
  8
0
 10
115.645
 20
97.1144
 30
0.0
 40
0
 41
0
  0
VERTEX
  8
0
 10
115.645
 20
96.1704
 30
0.0
 40
0
 41
0
  0
VERTEX
  8
0
 10
115.109
 20
96.1704
 30
0.0
 40
0
 41
0
  0
VERTEX
  8
0
 10
115.109
 20
97.1144
 30
0.0
 40
0
 41
0
  0
SEQEND
 8
0
  0
POLYLINE
  8
0
 62
     0
 66
     1
 10
0
 20
0
 30
0.0
 70
     1
 40
0
 41
0
  0
VERTEX
  8
0
 10
115.109
 20
98.7859
 30
0.0
 40
0
 41
0
  0
VERTEX
  8
0
 10
115.645
 20
98.7859
 30
0.0
 40
0
 41
0
  0
VERTEX
  8
0
 10
115.645
 20
97.8422
 30
0.0
 40
0
 41
0
  0
VERTEX
  8
0
 10
115.109
 20
97.8422
 30
0.0
 40
0
 41
0
  0
VERTEX
  8
0
 10
115.109
 20
98.7859
 30
0.0
 40
0
 41
0
  0
SEQEND
 8
0
  0
POLYLINE
  8
0
 62
     0
 66
     1
 10
0
 20
0
 30
0.0
 70
     1
 40
0
 41
0
  0
VERTEX
  8
0
 10
115.109
 20
90.3623
 30
0.0
 40
0
 41
0
  0
VERTEX
  8
0
 10
115.645
 20
90.3623
 30
0.0
 40
0
 41
0
  0
VERTEX
  8
0
 10
115.645
 20
89.4182
 30
0.0
 40
0
 41
0
  0
VERTEX
  8
0
 10
115.109
 20
89.4182
 30
0.0
 40
0
 41
0
  0
VERTEX
  8
0
 10
115.109
 20
90.3623
 30
0.0
 40
0
 41
0
  0
SEQEND
 8
0
  0
POLYLINE
  8
0
 62
     0
 66
     1
 10
0
 20
0
 30
0.0
 70
     1
 40
0
 41
0
  0
VERTEX
  8
0
 10
115.109
 20
92.0679
 30
0.0
 40
0
 41
0
  0
VERTEX
  8
0
 10
115.645
 20
92.0679
 30
0.0
 40
0
 41
0
  0
VERTEX
  8
0
 10
115.645
 20
91.1243
 30
0.0
 40
0
 41
0
  0
VERTEX
  8
0
 10
115.109
 20
91.1243
 30
0.0
 40
0
 41
0
  0
VERTEX
  8
0
 10
115.109
 20
92.0679
 30
0.0
 40
0
 41
0
  0
SEQEND
 8
0
  0
POLYLINE
  8
0
 62
     0
 66
     1
 10
0
 20
0
 30
0.0
 70
     1
 40
0
 41
0
  0
VERTEX
  8
0
 10
115.109
 20
93.7398
 30
0.0
 40
0
 41
0
  0
VERTEX
  8
0
 10
115.645
 20
93.7398
 30
0.0
 40
0
 41
0
  0
VERTEX
  8
0
 10
115.645
 20
92.7943
 30
0.0
 40
0
 41
0
  0
VERTEX
  8
0
 10
115.109
 20
92.7943
 30
0.0
 40
0
 41
0
  0
VERTEX
  8
0
 10
115.109
 20
93.7398
 30
0.0
 40
0
 41
0
  0
SEQEND
 8
0
  0
POLYLINE
  8
0
 62
     0
 66
     1
 10
0
 20
0
 30
0.0
 70
     1
 40
0
 41
0
  0
VERTEX
  8
0
 10
115.109
 20
85.3158
 30
0.0
 40
0
 41
0
  0
VERTEX
  8
0
 10
115.645
 20
85.3158
 30
0.0
 40
0
 41
0
  0
VERTEX
  8
0
 10
115.645
 20
84.3703
 30
0.0
 40
0
 41
0
  0
VERTEX
  8
0
 10
115.109
 20
84.3703
 30
0.0
 40
0
 41
0
  0
VERTEX
  8
0
 10
115.109
 20
85.3158
 30
0.0
 40
0
 41
0
  0
SEQEND
 8
0
  0
POLYLINE
  8
0
 62
     0
 66
     1
 10
0
 20
0
 30
0.0
 70
     1
 40
0
 41
0
  0
VERTEX
  8
0
 10
115.109
 20
86.9844
 30
0.0
 40
0
 41
0
  0
VERTEX
  8
0
 10
115.645
 20
86.9844
 30
0.0
 40
0
 41
0
  0
VERTEX
  8
0
 10
115.645
 20
86.0407
 30
0.0
 40
0
 41
0
  0
VERTEX
  8
0
 10
115.109
 20
86.0407
 30
0.0
 40
0
 41
0
  0
VERTEX
  8
0
 10
115.109
 20
86.9844
 30
0.0
 40
0
 41
0
  0
SEQEND
 8
0
  0
POLYLINE
  8
0
 62
     0
 66
     1
 10
0
 20
0
 30
0.0
 70
     1
 40
0
 41
0
  0
VERTEX
  8
0
 10
115.109
 20
88.6562
 30
0.0
 40
0
 41
0
  0
VERTEX
  8
0
 10
115.645
 20
88.6562
 30
0.0
 40
0
 41
0
  0
VERTEX
  8
0
 10
115.645
 20
87.7122
 30
0.0
 40
0
 41
0
  0
VERTEX
  8
0
 10
115.109
 20
87.7122
 30
0.0
 40
0
 41
0
  0
VERTEX
  8
0
 10
115.109
 20
88.6562
 30
0.0
 40
0
 41
0
  0
SEQEND
 8
0
  0
POLYLINE
  8
0
 62
     0
 66
     1
 10
0
 20
0
 30
0.0
 70
     1
 40
0
 41
0
  0
VERTEX
  8
0
 10
115.109
 20
80.2337
 30
0.0
 40
0
 41
0
  0
VERTEX
  8
0
 10
115.645
 20
80.2337
 30
0.0
 40
0
 41
0
  0
VERTEX
  8
0
 10
115.645
 20
79.2896
 30
0.0
 40
0
 41
0
  0
VERTEX
  8
0
 10
115.109
 20
79.2896
 30
0.0
 40
0
 41
0
  0
VERTEX
  8
0
 10
115.109
 20
80.2337
 30
0.0
 40
0
 41
0
  0
SEQEND
 8
0
  0
POLYLINE
  8
0
 62
     0
 66
     1
 10
0
 20
0
 30
0.0
 70
     1
 40
0
 41
0
  0
VERTEX
  8
0
 10
115.109
 20
81.9397
 30
0.0
 40
0
 41
0
  0
VERTEX
  8
0
 10
115.645
 20
81.9397
 30
0.0
 40
0
 41
0
  0
VERTEX
  8
0
 10
115.645
 20
80.9957
 30
0.0
 40
0
 41
0
  0
VERTEX
  8
0
 10
115.109
 20
80.9957
 30
0.0
 40
0
 41
0
  0
VERTEX
  8
0
 10
115.109
 20
81.9397
 30
0.0
 40
0
 41
0
  0
SEQEND
 8
0
  0
POLYLINE
  8
0
 62
     0
 66
     1
 10
0
 20
0
 30
0.0
 70
     1
 40
0
 41
0
  0
VERTEX
  8
0
 10
115.109
 20
83.6097
 30
0.0
 40
0
 41
0
  0
VERTEX
  8
0
 10
115.645
 20
83.6097
 30
0.0
 40
0
 41
0
  0
VERTEX
  8
0
 10
115.645
 20
82.6643
 30
0.0
 40
0
 41
0
  0
VERTEX
  8
0
 10
115.109
 20
82.6643
 30
0.0
 40
0
 41
0
  0
VERTEX
  8
0
 10
115.109
 20
83.6097
 30
0.0
 40
0
 41
0
  0
SEQEND
 8
0
  0
POLYLINE
  8
0
 62
     0
 66
     1
 10
0
 20
0
 30
0.0
 70
     1
 40
1.0212
 41
1.0212
  0
VERTEX
  8
0
 10
115.43
 20
2.6858
 30
0.0
 40
0.360257
 41
0.360257
  0
VERTEX
  8
0
 10
115.232
 20
2.68304
 30
0.0
 40
0.360257
 41
0.360257
  0
VERTEX
  8
0
 10
114.639
 20
2.57004
 30
0.0
 40
0.360257
 41
0.360257
  0
VERTEX
  8
0
 10
114.045
 20
2.28479
 30
0.0
 40
0.360257
 41
0.360257
  0
VERTEX
  8
0
 10
113.619
 20
1.88929
 30
0.0
 40
0.360257
 41
0.360257
  0
VERTEX
  8
0
 10
113.334
 20
1.43867
 30
0.0
 40
0.360257
 41
0.360257
  0
VERTEX
  8
0
 10
113.161
 20
0.989432
 30
0.0
 40
0.360257
 41
0.360257
  0
VERTEX
  8
0
 10
113.072
 20
0.599447
 30
0.0
 40
0.360257
 41
0.360257
  0
VERTEX
  8
0
 10
113.039
 20
0.322461
 30
0.0
 40
0.360257
 41
0.360257
  0
VERTEX
  8
0
 10
113.035
 20
0.21773
 30
0.0
 40
0.360257
 41
0.360257
  0
VERTEX
  8
0
 10
113.035
 20
0.21773
 30
0.0
 40
0.360257
 41
0.360257
  0
VERTEX
  8
0
 10
0.180523
 20
0.21773
 30
0.0
 40
0.360257
 41
0.360257
  0
VERTEX
  8
0
 10
0.180523
 20
76.0607
 30
0.0
 40
0.360257
 41
0.360257
  0
VERTEX
  8
0
 10
113.035
 20
76.0607
 30
0.0
 40
0.360257
 41
0.360257
  0
VERTEX
  8
0
 10
113.035
 20
76.0607
 30
0.0
 40
0.360257
 41
0.360257
  0
VERTEX
  8
0
 10
113.042
 20
75.9576
 30
0.0
 40
0.360257
 41
0.360257
  0
VERTEX
  8
0
 10
113.082
 20
75.6804
 30
0.0
 40
0.360257
 41
0.360257
  0
VERTEX
  8
0
 10
113.18
 20
75.2891
 30
0.0
 40
0.360257
 41
0.360257
  0
VERTEX
  8
0
 10
113.36
 20
74.84
 30
0.0
 40
0.360257
 41
0.360257
  0
VERTEX
  8
0
 10
113.651
 20
74.3892
 30
0.0
 40
0.360257
 41
0.360257
  0
VERTEX
  8
0
 10
114.075
 20
73.9923
 30
0.0
 40
0.360257
 41
0.360257
  0
VERTEX
  8
0
 10
114.66
 20
73.7087
 30
0.0
 40
0.360257
 41
0.360257
  0
VERTEX
  8
0
 10
115.237
 20
73.594
 30
0.0
 40
0.360257
 41
0.360257
  0
VERTEX
  8
0
 10
115.43
 20
73.5912
 30
0.0
 40
0.360257
 41
0.360257
  0
VERTEX
  8
0
 10
115.43
 20
73.5912
 30
0.0
 40
0.360257
 41
0.360257
  0
VERTEX
  8
0
 10
115.525
 20
73.5969
 30
0.0
 40
0.360257
 41
0.360257
  0
VERTEX
  8
0
 10
115.778
 20
73.63
 30
0.0
 40
0.360257
 41
0.360257
  0
VERTEX
  8
0
 10
116.14
 20
73.7224
 30
0.0
 40
0.360257
 41
0.360257
  0
VERTEX
  8
0
 10
116.56
 20
73.8999
 30
0.0
 40
0.360257
 41
0.360257
  0
VERTEX
  8
0
 10
116.989
 20
74.1948
 30
0.0
 40
0.360257
 41
0.360257
  0
VERTEX
  8
0
 10
117.376
 20
74.6333
 30
0.0
 40
0.360257
 41
0.360257
  0
VERTEX
  8
0
 10
117.671
 20
75.2464
 30
0.0
 40
0.360257
 41
0.360257
  0
VERTEX
  8
0
 10
117.81
 20
75.8567
 30
0.0
 40
0.360257
 41
0.360257
  0
VERTEX
  8
0
 10
117.825
 20
76.0607
 30
0.0
 40
0.360257
 41
0.360257
  0
VERTEX
  8
0
 10
152.214
 20
76.0607
 30
0.0
 40
0.360257
 41
0.360257
  0
VERTEX
  8
0
 10
152.214
 20
0.179145
 30
0.0
 40
0.360257
 41
0.360257
  0
VERTEX
  8
0
 10
117.825
 20
0.179145
 30
0.0
 40
0.360257
 41
0.360257
  0
VERTEX
  8
0
 10
117.818
 20
0.38723
 30
0.0
 40
0.360257
 41
0.360257
  0
VERTEX
  8
0
 10
117.701
 20
1.00735
 30
0.0
 40
0.360257
 41
0.360257
  0
VERTEX
  8
0
 10
117.42
 20
1.62884
 30
0.0
 40
0.360257
 41
0.360257
  0
VERTEX
  8
0
 10
117.035
 20
2.07395
 30
0.0
 40
0.360257
 41
0.360257
  0
VERTEX
  8
0
 10
116.6
 20
2.37298
 30
0.0
 40
0.360257
 41
0.360257
  0
VERTEX
  8
0
 10
116.169
 20
2.55488
 30
0.0
 40
0.360257
 41
0.360257
  0
VERTEX
  8
0
 10
115.794
 20
2.64721
 30
0.0
 40
0.360257
 41
0.360257
  0
VERTEX
  8
0
 10
115.529
 20
2.68166
 30
0.0
 40
0.360257
 41
0.360257
  0
VERTEX
  8
0
 10
115.43
 20
2.6858
 30
0.0
 40
0.360257
 41
0.360257
  0
VERTEX
  8
0
 10
115.43
 20
2.6858
 30
0.0
 40
0.360257
 41
0.360257
  0
SEQEND
 8
0
  0
POLYLINE
  8
0
 62
     0
 66
     1
 10
0
 20
0
 30
0.0
 70
     1
 40
0
 41
0
  0
VERTEX
  8
0
 10
115.109
 20
69.814
 30
0.0
 40
0
 41
0
  0
VERTEX
  8
0
 10
115.645
 20
69.814
 30
0.0
 40
0
 41
0
  0
VERTEX
  8
0
 10
115.645
 20
68.8703
 30
0.0
 40
0
 41
0
  0
VERTEX
  8
0
 10
115.109
 20
68.8703
 30
0.0
 40
0
 41
0
  0
VERTEX
  8
0
 10
115.109
 20
69.814
 30
0.0
 40
0
 41
0
  0
SEQEND
 8
0
  0
POLYLINE
  8
0
 62
     0
 66
     1
 10
0
 20
0
 30
0.0
 70
     1
 40
0
 41
0
  0
VERTEX
  8
0
 10
115.109
 20
71.5215
 30
0.0
 40
0
 41
0
  0
VERTEX
  8
0
 10
115.645
 20
71.5215
 30
0.0
 40
0
 41
0
  0
VERTEX
  8
0
 10
115.645
 20
70.5778
 30
0.0
 40
0
 41
0
  0
VERTEX
  8
0
 10
115.109
 20
70.5778
 30
0.0
 40
0
 41
0
  0
VERTEX
  8
0
 10
115.109
 20
71.5215
 30
0.0
 40
0
 41
0
  0
SEQEND
 8
0
  0
POLYLINE
  8
0
 62
     0
 66
     1
 10
0
 20
0
 30
0.0
 70
     1
 40
0
 41
0
  0
VERTEX
  8
0
 10
115.109
 20
73.1933
 30
0.0
 40
0
 41
0
  0
VERTEX
  8
0
 10
115.645
 20
73.1933
 30
0.0
 40
0
 41
0
  0
VERTEX
  8
0
 10
115.645
 20
72.2492
 30
0.0
 40
0
 41
0
  0
VERTEX
  8
0
 10
115.109
 20
72.2492
 30
0.0
 40
0
 41
0
  0
VERTEX
  8
0
 10
115.109
 20
73.1933
 30
0.0
 40
0
 41
0
  0
SEQEND
 8
0
  0
POLYLINE
  8
0
 62
     0
 66
     1
 10
0
 20
0
 30
0.0
 70
     1
 40
0
 41
0
  0
VERTEX
  8
0
 10
115.109
 20
64.7693
 30
0.0
 40
0
 41
0
  0
VERTEX
  8
0
 10
115.645
 20
64.7693
 30
0.0
 40
0
 41
0
  0
VERTEX
  8
0
 10
115.645
 20
63.8253
 30
0.0
 40
0
 41
0
  0
VERTEX
  8
0
 10
115.109
 20
63.8253
 30
0.0
 40
0
 41
0
  0
VERTEX
  8
0
 10
115.109
 20
64.7693
 30
0.0
 40
0
 41
0
  0
SEQEND
 8
0
  0
POLYLINE
  8
0
 62
     0
 66
     1
 10
0
 20
0
 30
0.0
 70
     1
 40
0
 41
0
  0
VERTEX
  8
0
 10
115.109
 20
66.4379
 30
0.0
 40
0
 41
0
  0
VERTEX
  8
0
 10
115.645
 20
66.4379
 30
0.0
 40
0
 41
0
  0
VERTEX
  8
0
 10
115.645
 20
65.4939
 30
0.0
 40
0
 41
0
  0
VERTEX
  8
0
 10
115.109
 20
65.4939
 30
0.0
 40
0
 41
0
  0
VERTEX
  8
0
 10
115.109
 20
66.4379
 30
0.0
 40
0
 41
0
  0
SEQEND
 8
0
  0
POLYLINE
  8
0
 62
     0
 66
     1
 10
0
 20
0
 30
0.0
 70
     1
 40
0
 41
0
  0
VERTEX
  8
0
 10
115.109
 20
68.1468
 30
0.0
 40
0
 41
0
  0
VERTEX
  8
0
 10
115.645
 20
68.1468
 30
0.0
 40
0
 41
0
  0
VERTEX
  8
0
 10
115.645
 20
67.2013
 30
0.0
 40
0
 41
0
  0
VERTEX
  8
0
 10
115.109
 20
67.2013
 30
0.0
 40
0
 41
0
  0
VERTEX
  8
0
 10
115.109
 20
68.1468
 30
0.0
 40
0
 41
0
  0
SEQEND
 8
0
  0
POLYLINE
  8
0
 62
     0
 66
     1
 10
0
 20
0
 30
0.0
 70
     1
 40
0
 41
0
  0
VERTEX
  8
0
 10
115.109
 20
59.7214
 30
0.0
 40
0
 41
0
  0
VERTEX
  8
0
 10
115.645
 20
59.7214
 30
0.0
 40
0
 41
0
  0
VERTEX
  8
0
 10
115.645
 20
58.7774
 30
0.0
 40
0
 41
0
  0
VERTEX
  8
0
 10
115.109
 20
58.7774
 30
0.0
 40
0
 41
0
  0
VERTEX
  8
0
 10
115.109
 20
59.7214
 30
0.0
 40
0
 41
0
  0
SEQEND
 8
0
  0
POLYLINE
  8
0
 62
     0
 66
     1
 10
0
 20
0
 30
0.0
 70
     1
 40
0
 41
0
  0
VERTEX
  8
0
 10
115.109
 20
61.3914
 30
0.0
 40
0
 41
0
  0
VERTEX
  8
0
 10
115.645
 20
61.3914
 30
0.0
 40
0
 41
0
  0
VERTEX
  8
0
 10
115.645
 20
60.4478
 30
0.0
 40
0
 41
0
  0
VERTEX
  8
0
 10
115.109
 20
60.4478
 30
0.0
 40
0
 41
0
  0
VERTEX
  8
0
 10
115.109
 20
61.3914
 30
0.0
 40
0
 41
0
  0
SEQEND
 8
0
  0
POLYLINE
  8
0
 62
     0
 66
     1
 10
0
 20
0
 30
0.0
 70
     1
 40
0
 41
0
  0
VERTEX
  8
0
 10
115.109
 20
63.0633
 30
0.0
 40
0
 41
0
  0
VERTEX
  8
0
 10
115.645
 20
63.0633
 30
0.0
 40
0
 41
0
  0
VERTEX
  8
0
 10
115.645
 20
62.1192
 30
0.0
 40
0
 41
0
  0
VERTEX
  8
0
 10
115.109
 20
62.1192
 30
0.0
 40
0
 41
0
  0
VERTEX
  8
0
 10
115.109
 20
63.0633
 30
0.0
 40
0
 41
0
  0
SEQEND
 8
0
  0
POLYLINE
  8
0
 62
     0
 66
     1
 10
0
 20
0
 30
0.0
 70
     1
 40
0
 41
0
  0
VERTEX
  8
0
 10
115.109
 20
54.6407
 30
0.0
 40
0
 41
0
  0
VERTEX
  8
0
 10
115.645
 20
54.6407
 30
0.0
 40
0
 41
0
  0
VERTEX
  8
0
 10
115.645
 20
53.6967
 30
0.0
 40
0
 41
0
  0
VERTEX
  8
0
 10
115.109
 20
53.6967
 30
0.0
 40
0
 41
0
  0
VERTEX
  8
0
 10
115.109
 20
54.6407
 30
0.0
 40
0
 41
0
  0
SEQEND
 8
0
  0
POLYLINE
  8
0
 62
     0
 66
     1
 10
0
 20
0
 30
0.0
 70
     1
 40
0
 41
0
  0
VERTEX
  8
0
 10
115.109
 20
56.3093
 30
0.0
 40
0
 41
0
  0
VERTEX
  8
0
 10
115.645
 20
56.3093
 30
0.0
 40
0
 41
0
  0
VERTEX
  8
0
 10
115.645
 20
55.3653
 30
0.0
 40
0
 41
0
  0
VERTEX
  8
0
 10
115.109
 20
55.3653
 30
0.0
 40
0
 41
0
  0
VERTEX
  8
0
 10
115.109
 20
56.3093
 30
0.0
 40
0
 41
0
  0
SEQEND
 8
0
  0
POLYLINE
  8
0
 62
     0
 66
     1
 10
0
 20
0
 30
0.0
 70
     1
 40
0
 41
0
  0
VERTEX
  8
0
 10
115.109
 20
58.0154
 30
0.0
 40
0
 41
0
  0
VERTEX
  8
0
 10
115.645
 20
58.0154
 30
0.0
 40
0
 41
0
  0
VERTEX
  8
0
 10
115.645
 20
57.0713
 30
0.0
 40
0
 41
0
  0
VERTEX
  8
0
 10
115.109
 20
57.0713
 30
0.0
 40
0
 41
0
  0
VERTEX
  8
0
 10
115.109
 20
58.0154
 30
0.0
 40
0
 41
0
  0
SEQEND
 8
0
  0
POLYLINE
  8
0
 62
     0
 66
     1
 10
0
 20
0
 30
0.0
 70
     1
 40
0
 41
0
  0
VERTEX
  8
0
 10
115.109
 20
49.5928
 30
0.0
 40
0
 41
0
  0
VERTEX
  8
0
 10
115.645
 20
49.5928
 30
0.0
 40
0
 41
0
  0
VERTEX
  8
0
 10
115.645
 20
48.6488
 30
0.0
 40
0
 41
0
  0
VERTEX
  8
0
 10
115.109
 20
48.6488
 30
0.0
 40
0
 41
0
  0
VERTEX
  8
0
 10
115.109
 20
49.5928
 30
0.0
 40
0
 41
0
  0
SEQEND
 8
0
  0
POLYLINE
  8
0
 62
     0
 66
     1
 10
0
 20
0
 30
0.0
 70
     1
 40
0
 41
0
  0
VERTEX
  8
0
 10
115.109
 20
51.2632
 30
0.0
 40
0
 41
0
  0
VERTEX
  8
0
 10
115.645
 20
51.2632
 30
0.0
 40
0
 41
0
  0
VERTEX
  8
0
 10
115.645
 20
50.3192
 30
0.0
 40
0
 41
0
  0
VERTEX
  8
0
 10
115.109
 20
50.3192
 30
0.0
 40
0
 41
0
  0
VERTEX
  8
0
 10
115.109
 20
51.2632
 30
0.0
 40
0
 41
0
  0
SEQEND
 8
0
  0
POLYLINE
  8
0
 62
     0
 66
     1
 10
0
 20
0
 30
0.0
 70
     1
 40
0
 41
0
  0
VERTEX
  8
0
 10
115.109
 20
52.9332
 30
0.0
 40
0
 41
0
  0
VERTEX
  8
0
 10
115.645
 20
52.9332
 30
0.0
 40
0
 41
0
  0
VERTEX
  8
0
 10
115.645
 20
51.9878
 30
0.0
 40
0
 41
0
  0
VERTEX
  8
0
 10
115.109
 20
51.9878
 30
0.0
 40
0
 41
0
  0
VERTEX
  8
0
 10
115.109
 20
52.9332
 30
0.0
 40
0
 41
0
  0
SEQEND
 8
0
  0
POLYLINE
  8
0
 62
     0
 66
     1
 10
0
 20
0
 30
0.0
 70
     1
 40
0
 41
0
  0
VERTEX
  8
0
 10
115.109
 20
44.5107
 30
0.0
 40
0
 41
0
  0
VERTEX
  8
0
 10
115.645
 20
44.5107
 30
0.0
 40
0
 41
0
  0
VERTEX
  8
0
 10
115.645
 20
43.5652
 30
0.0
 40
0
 41
0
  0
VERTEX
  8
0
 10
115.109
 20
43.5652
 30
0.0
 40
0
 41
0
  0
VERTEX
  8
0
 10
115.109
 20
44.5107
 30
0.0
 40
0
 41
0
  0
SEQEND
 8
0
  0
POLYLINE
  8
0
 62
     0
 66
     1
 10
0
 20
0
 30
0.0
 70
     1
 40
0
 41
0
  0
VERTEX
  8
0
 10
115.109
 20
46.1793
 30
0.0
 40
0
 41
0
  0
VERTEX
  8
0
 10
115.645
 20
46.1793
 30
0.0
 40
0
 41
0
  0
VERTEX
  8
0
 10
115.645
 20
45.2356
 30
0.0
 40
0
 41
0
  0
VERTEX
  8
0
 10
115.109
 20
45.2356
 30
0.0
 40
0
 41
0
  0
VERTEX
  8
0
 10
115.109
 20
46.1793
 30
0.0
 40
0
 41
0
  0
SEQEND
 8
0
  0
POLYLINE
  8
0
 62
     0
 66
     1
 10
0
 20
0
 30
0.0
 70
     1
 40
0
 41
0
  0
VERTEX
  8
0
 10
115.109
 20
47.8854
 30
0.0
 40
0
 41
0
  0
VERTEX
  8
0
 10
115.645
 20
47.8854
 30
0.0
 40
0
 41
0
  0
VERTEX
  8
0
 10
115.645
 20
46.9417
 30
0.0
 40
0
 41
0
  0
VERTEX
  8
0
 10
115.109
 20
46.9417
 30
0.0
 40
0
 41
0
  0
VERTEX
  8
0
 10
115.109
 20
47.8854
 30
0.0
 40
0
 41
0
  0
SEQEND
 8
0
  0
POLYLINE
  8
0
 62
     0
 66
     1
 10
0
 20
0
 30
0.0
 70
     1
 40
0
 41
0
  0
VERTEX
  8
0
 10
115.109
 20
39.4628
 30
0.0
 40
0
 41
0
  0
VERTEX
  8
0
 10
115.645
 20
39.4628
 30
0.0
 40
0
 41
0
  0
VERTEX
  8
0
 10
115.645
 20
38.5191
 30
0.0
 40
0
 41
0
  0
VERTEX
  8
0
 10
115.109
 20
38.5191
 30
0.0
 40
0
 41
0
  0
VERTEX
  8
0
 10
115.109
 20
39.4628
 30
0.0
 40
0
 41
0
  0
SEQEND
 8
0
  0
POLYLINE
  8
0
 62
     0
 66
     1
 10
0
 20
0
 30
0.0
 70
     1
 40
0
 41
0
  0
VERTEX
  8
0
 10
115.109
 20
41.1346
 30
0.0
 40
0
 41
0
  0
VERTEX
  8
0
 10
115.645
 20
41.1346
 30
0.0
 40
0
 41
0
  0
VERTEX
  8
0
 10
115.645
 20
40.1906
 30
0.0
 40
0
 41
0
  0
VERTEX
  8
0
 10
115.109
 20
40.1906
 30
0.0
 40
0
 41
0
  0
VERTEX
  8
0
 10
115.109
 20
41.1346
 30
0.0
 40
0
 41
0
  0
SEQEND
 8
0
  0
POLYLINE
  8
0
 62
     0
 66
     1
 10
0
 20
0
 30
0.0
 70
     1
 40
0
 41
0
  0
VERTEX
  8
0
 10
115.109
 20
42.8032
 30
0.0
 40
0
 41
0
  0
VERTEX
  8
0
 10
115.645
 20
42.8032
 30
0.0
 40
0
 41
0
  0
VERTEX
  8
0
 10
115.645
 20
41.8592
 30
0.0
 40
0
 41
0
  0
VERTEX
  8
0
 10
115.109
 20
41.8592
 30
0.0
 40
0
 41
0
  0
VERTEX
  8
0
 10
115.109
 20
42.8032
 30
0.0
 40
0
 41
0
  0
SEQEND
 8
0
  0
POLYLINE
  8
0
 62
     0
 66
     1
 10
0
 20
0
 30
0.0
 70
     1
 40
0
 41
0
  0
VERTEX
  8
0
 10
115.109
 20
34.3793
 30
0.0
 40
0
 41
0
  0
VERTEX
  8
0
 10
115.645
 20
34.3793
 30
0.0
 40
0
 41
0
  0
VERTEX
  8
0
 10
115.645
 20
33.4353
 30
0.0
 40
0
 41
0
  0
VERTEX
  8
0
 10
115.109
 20
33.4353
 30
0.0
 40
0
 41
0
  0
VERTEX
  8
0
 10
115.109
 20
34.3793
 30
0.0
 40
0
 41
0
  0
SEQEND
 8
0
  0
POLYLINE
  8
0
 62
     0
 66
     1
 10
0
 20
0
 30
0.0
 70
     1
 40
0
 41
0
  0
VERTEX
  8
0
 10
115.109
 20
36.0881
 30
0.0
 40
0
 41
0
  0
VERTEX
  8
0
 10
115.645
 20
36.0881
 30
0.0
 40
0
 41
0
  0
VERTEX
  8
0
 10
115.645
 20
35.1427
 30
0.0
 40
0
 41
0
  0
VERTEX
  8
0
 10
115.109
 20
35.1427
 30
0.0
 40
0
 41
0
  0
VERTEX
  8
0
 10
115.109
 20
36.0881
 30
0.0
 40
0
 41
0
  0
SEQEND
 8
0
  0
POLYLINE
  8
0
 62
     0
 66
     1
 10
0
 20
0
 30
0.0
 70
     1
 40
0
 41
0
  0
VERTEX
  8
0
 10
115.109
 20
37.7567
 30
0.0
 40
0
 41
0
  0
VERTEX
  8
0
 10
115.645
 20
37.7567
 30
0.0
 40
0
 41
0
  0
VERTEX
  8
0
 10
115.645
 20
36.8131
 30
0.0
 40
0
 41
0
  0
VERTEX
  8
0
 10
115.109
 20
36.8131
 30
0.0
 40
0
 41
0
  0
VERTEX
  8
0
 10
115.109
 20
37.7567
 30
0.0
 40
0
 41
0
  0
SEQEND
 8
0
  0
POLYLINE
  8
0
 62
     0
 66
     1
 10
0
 20
0
 30
0.0
 70
     1
 40
0
 41
0
  0
VERTEX
  8
0
 10
115.109
 20
29.3329
 30
0.0
 40
0
 41
0
  0
VERTEX
  8
0
 10
115.645
 20
29.3329
 30
0.0
 40
0
 41
0
  0
VERTEX
  8
0
 10
115.645
 20
28.389
 30
0.0
 40
0
 41
0
  0
VERTEX
  8
0
 10
115.109
 20
28.389
 30
0.0
 40
0
 41
0
  0
VERTEX
  8
0
 10
115.109
 20
29.3329
 30
0.0
 40
0
 41
0
  0
SEQEND
 8
0
  0
POLYLINE
  8
0
 62
     0
 66
     1
 10
0
 20
0
 30
0.0
 70
     1
 40
0
 41
0
  0
VERTEX
  8
0
 10
115.109
 20
31.0045
 30
0.0
 40
0
 41
0
  0
VERTEX
  8
0
 10
115.645
 20
31.0045
 30
0.0
 40
0
 41
0
  0
VERTEX
  8
0
 10
115.645
 20
30.0605
 30
0.0
 40
0
 41
0
  0
VERTEX
  8
0
 10
115.109
 20
30.0605
 30
0.0
 40
0
 41
0
  0
VERTEX
  8
0
 10
115.109
 20
31.0045
 30
0.0
 40
0
 41
0
  0
SEQEND
 8
0
  0
POLYLINE
  8
0
 62
     0
 66
     1
 10
0
 20
0
 30
0.0
 70
     1
 40
0
 41
0
  0
VERTEX
  8
0
 10
115.109
 20
32.6733
 30
0.0
 40
0
 41
0
  0
VERTEX
  8
0
 10
115.645
 20
32.6733
 30
0.0
 40
0
 41
0
  0
VERTEX
  8
0
 10
115.645
 20
31.7293
 30
0.0
 40
0
 41
0
  0
VERTEX
  8
0
 10
115.109
 20
31.7293
 30
0.0
 40
0
 41
0
  0
VERTEX
  8
0
 10
115.109
 20
32.6733
 30
0.0
 40
0
 41
0
  0
SEQEND
 8
0
  0
POLYLINE
  8
0
 62
     0
 66
     1
 10
0
 20
0
 30
0.0
 70
     1
 40
0
 41
0
  0
VERTEX
  8
0
 10
115.109
 20
24.2507
 30
0.0
 40
0
 41
0
  0
VERTEX
  8
0
 10
115.645
 20
24.2507
 30
0.0
 40
0
 41
0
  0
VERTEX
  8
0
 10
115.645
 20
23.3068
 30
0.0
 40
0
 41
0
  0
VERTEX
  8
0
 10
115.109
 20
23.3068
 30
0.0
 40
0
 41
0
  0
VERTEX
  8
0
 10
115.109
 20
24.2507
 30
0.0
 40
0
 41
0
  0
SEQEND
 8
0
  0
POLYLINE
  8
0
 62
     0
 66
     1
 10
0
 20
0
 30
0.0
 70
     1
 40
0
 41
0
  0
VERTEX
  8
0
 10
115.109
 20
25.9567
 30
0.0
 40
0
 41
0
  0
VERTEX
  8
0
 10
115.645
 20
25.9567
 30
0.0
 40
0
 41
0
  0
VERTEX
  8
0
 10
115.645
 20
25.0128
 30
0.0
 40
0
 41
0
  0
VERTEX
  8
0
 10
115.109
 20
25.0128
 30
0.0
 40
0
 41
0
  0
VERTEX
  8
0
 10
115.109
 20
25.9567
 30
0.0
 40
0
 41
0
  0
SEQEND
 8
0
  0
POLYLINE
  8
0
 62
     0
 66
     1
 10
0
 20
0
 30
0.0
 70
     1
 40
0
 41
0
  0
VERTEX
  8
0
 10
115.109
 20
27.6283
 30
0.0
 40
0
 41
0
  0
VERTEX
  8
0
 10
115.645
 20
27.6283
 30
0.0
 40
0
 41
0
  0
VERTEX
  8
0
 10
115.645
 20
26.6843
 30
0.0
 40
0
 41
0
  0
VERTEX
  8
0
 10
115.109
 20
26.6843
 30
0.0
 40
0
 41
0
  0
VERTEX
  8
0
 10
115.109
 20
27.6283
 30
0.0
 40
0
 41
0
  0
SEQEND
 8
0
  0
POLYLINE
  8
0
 62
     0
 66
     1
 10
0
 20
0
 30
0.0
 70
     1
 40
0
 41
0
  0
VERTEX
  8
0
 10
115.109
 20
19.2057
 30
0.0
 40
0
 41
0
  0
VERTEX
  8
0
 10
115.645
 20
19.2057
 30
0.0
 40
0
 41
0
  0
VERTEX
  8
0
 10
115.645
 20
18.2618
 30
0.0
 40
0
 41
0
  0
VERTEX
  8
0
 10
115.109
 20
18.2618
 30
0.0
 40
0
 41
0
  0
VERTEX
  8
0
 10
115.109
 20
19.2057
 30
0.0
 40
0
 41
0
  0
SEQEND
 8
0
  0
POLYLINE
  8
0
 62
     0
 66
     1
 10
0
 20
0
 30
0.0
 70
     1
 40
0
 41
0
  0
VERTEX
  8
0
 10
115.109
 20
20.8759
 30
0.0
 40
0
 41
0
  0
VERTEX
  8
0
 10
115.645
 20
20.8759
 30
0.0
 40
0
 41
0
  0
VERTEX
  8
0
 10
115.645
 20
19.9306
 30
0.0
 40
0
 41
0
  0
VERTEX
  8
0
 10
115.109
 20
19.9306
 30
0.0
 40
0
 41
0
  0
VERTEX
  8
0
 10
115.109
 20
20.8759
 30
0.0
 40
0
 41
0
  0
SEQEND
 8
0
  0
POLYLINE
  8
0
 62
     0
 66
     1
 10
0
 20
0
 30
0.0
 70
     1
 40
0
 41
0
  0
VERTEX
  8
0
 10
115.109
 20
22.5447
 30
0.0
 40
0
 41
0
  0
VERTEX
  8
0
 10
115.645
 20
22.5447
 30
0.0
 40
0
 41
0
  0
VERTEX
  8
0
 10
115.645
 20
21.6008
 30
0.0
 40
0
 41
0
  0
VERTEX
  8
0
 10
115.109
 20
21.6008
 30
0.0
 40
0
 41
0
  0
VERTEX
  8
0
 10
115.109
 20
22.5447
 30
0.0
 40
0
 41
0
  0
SEQEND
 8
0
  0
POLYLINE
  8
0
 62
     0
 66
     1
 10
0
 20
0
 30
0.0
 70
     1
 40
0
 41
0
  0
VERTEX
  8
0
 10
115.109
 20
14.1207
 30
0.0
 40
0
 41
0
  0
VERTEX
  8
0
 10
115.645
 20
14.1207
 30
0.0
 40
0
 41
0
  0
VERTEX
  8
0
 10
115.645
 20
13.1768
 30
0.0
 40
0
 41
0
  0
VERTEX
  8
0
 10
115.109
 20
13.1768
 30
0.0
 40
0
 41
0
  0
VERTEX
  8
0
 10
115.109
 20
14.1207
 30
0.0
 40
0
 41
0
  0
SEQEND
 8
0
  0
POLYLINE
  8
0
 62
     0
 66
     1
 10
0
 20
0
 30
0.0
 70
     1
 40
0
 41
0
  0
VERTEX
  8
0
 10
115.109
 20
15.8268
 30
0.0
 40
0
 41
0
  0
VERTEX
  8
0
 10
115.645
 20
15.8268
 30
0.0
 40
0
 41
0
  0
VERTEX
  8
0
 10
115.645
 20
14.8828
 30
0.0
 40
0
 41
0
  0
VERTEX
  8
0
 10
115.109
 20
14.8828
 30
0.0
 40
0
 41
0
  0
VERTEX
  8
0
 10
115.109
 20
15.8268
 30
0.0
 40
0
 41
0
  0
SEQEND
 8
0
  0
POLYLINE
  8
0
 62
     0
 66
     1
 10
0
 20
0
 30
0.0
 70
     1
 40
0
 41
0
  0
VERTEX
  8
0
 10
115.109
 20
17.4983
 30
0.0
 40
0
 41
0
  0
VERTEX
  8
0
 10
115.645
 20
17.4983
 30
0.0
 40
0
 41
0
  0
VERTEX
  8
0
 10
115.645
 20
16.5544
 30
0.0
 40
0
 41
0
  0
VERTEX
  8
0
 10
115.109
 20
16.5544
 30
0.0
 40
0
 41
0
  0
VERTEX
  8
0
 10
115.109
 20
17.4983
 30
0.0
 40
0
 41
0
  0
SEQEND
 8
0
  0
POLYLINE
  8
0
 62
     0
 66
     1
 10
0
 20
0
 30
0.0
 70
     1
 40
0
 41
0
  0
VERTEX
  8
0
 10
115.109
 20
9.07577
 30
0.0
 40
0
 41
0
  0
VERTEX
  8
0
 10
115.645
 20
9.07577
 30
0.0
 40
0
 41
0
  0
VERTEX
  8
0
 10
115.645
 20
8.13181
 30
0.0
 40
0
 41
0
  0
VERTEX
  8
0
 10
115.109
 20
8.13181
 30
0.0
 40
0
 41
0
  0
VERTEX
  8
0
 10
115.109
 20
9.07577
 30
0.0
 40
0
 41
0
  0
SEQEND
 8
0
  0
POLYLINE
  8
0
 62
     0
 66
     1
 10
0
 20
0
 30
0.0
 70
     1
 40
0
 41
0
  0
VERTEX
  8
0
 10
115.109
 20
10.7446
 30
0.0
 40
0
 41
0
  0
VERTEX
  8
0
 10
115.645
 20
10.7446
 30
0.0
 40
0
 41
0
  0
VERTEX
  8
0
 10
115.645
 20
9.80063
 30
0.0
 40
0
 41
0
  0
VERTEX
  8
0
 10
115.109
 20
9.80063
 30
0.0
 40
0
 41
0
  0
VERTEX
  8
0
 10
115.109
 20
10.7446
 30
0.0
 40
0
 41
0
  0
SEQEND
 8
0
  0
POLYLINE
  8
0
 62
     0
 66
     1
 10
0
 20
0
 30
0.0
 70
     1
 40
0
 41
0
  0
VERTEX
  8
0
 10
115.109
 20
12.4147
 30
0.0
 40
0
 41
0
  0
VERTEX
  8
0
 10
115.645
 20
12.4147
 30
0.0
 40
0
 41
0
  0
VERTEX
  8
0
 10
115.645
 20
11.4708
 30
0.0
 40
0
 41
0
  0
VERTEX
  8
0
 10
115.109
 20
11.4708
 30
0.0
 40
0
 41
0
  0
VERTEX
  8
0
 10
115.109
 20
12.4147
 30
0.0
 40
0
 41
0
  0
SEQEND
 8
0
  0
POLYLINE
  8
0
 62
     0
 66
     1
 10
0
 20
0
 30
0.0
 70
     1
 40
0
 41
0
  0
VERTEX
  8
0
 10
115.109
 20
3.99217
 30
0.0
 40
0
 41
0
  0
VERTEX
  8
0
 10
115.645
 20
3.99217
 30
0.0
 40
0
 41
0
  0
VERTEX
  8
0
 10
115.645
 20
3.04822
 30
0.0
 40
0
 41
0
  0
VERTEX
  8
0
 10
115.109
 20
3.04822
 30
0.0
 40
0
 41
0
  0
VERTEX
  8
0
 10
115.109
 20
3.99217
 30
0.0
 40
0
 41
0
  0
SEQEND
 8
0
  0
POLYLINE
  8
0
 62
     0
 66
     1
 10
0
 20
0
 30
0.0
 70
     1
 40
0
 41
0
  0
VERTEX
  8
0
 10
115.109
 20
5.69817
 30
0.0
 40
0
 41
0
  0
VERTEX
  8
0
 10
115.645
 20
5.69817
 30
0.0
 40
0
 41
0
  0
VERTEX
  8
0
 10
115.645
 20
4.75424
 30
0.0
 40
0
 41
0
  0
VERTEX
  8
0
 10
115.109
 20
4.75424
 30
0.0
 40
0
 41
0
  0
VERTEX
  8
0
 10
115.109
 20
5.69817
 30
0.0
 40
0
 41
0
  0
SEQEND
 8
0
  0
POLYLINE
  8
0
 62
     0
 66
     1
 10
0
 20
0
 30
0.0
 70
     1
 40
0
 41
0
  0
VERTEX
  8
0
 10
115.109
 20
7.36974
 30
0.0
 40
0
 41
0
  0
VERTEX
  8
0
 10
115.645
 20
7.36974
 30
0.0
 40
0
 41
0
  0
VERTEX
  8
0
 10
115.645
 20
6.42578
 30
0.0
 40
0
 41
0
  0
VERTEX
  8
0
 10
115.109
 20
6.42578
 30
0.0
 40
0
 41
0
  0
VERTEX
  8
0
 10
115.109
 20
7.36974
 30
0.0
 40
0
 41
0
  0
SEQEND
 8
0
  0
ENDSEC
  0
EOF
