<?xml version="1.0" encoding="UTF-8" standalone="no"?>
<!-- Created with Inkscape (http://www.inkscape.org/) -->

<svg
   xmlns:dc="http://purl.org/dc/elements/1.1/"
   xmlns:cc="http://creativecommons.org/ns#"
   xmlns:rdf="http://www.w3.org/1999/02/22-rdf-syntax-ns#"
   xmlns:svg="http://www.w3.org/2000/svg"
   xmlns="http://www.w3.org/2000/svg"
   xmlns:sodipodi="http://sodipodi.sourceforge.net/DTD/sodipodi-0.dtd"
   xmlns:inkscape="http://www.inkscape.org/namespaces/inkscape"
   width="152.39462mm"
   height="304.9613mm"
   viewBox="0 0 539.98095 1080.5715"
   id="svg3836"
   version="1.1"
   inkscape:version="0.91 r13725"
   sodipodi:docname="cut_template_sheet.svg">
  <defs
     id="defs3838" />
  <sodipodi:namedview
     id="base"
     pagecolor="#ffffff"
     bordercolor="#666666"
     borderopacity="1.0"
     inkscape:pageopacity="0.0"
     inkscape:pageshadow="2"
     inkscape:zoom="0.72021948"
     inkscape:cx="867.92321"
     inkscape:cy="378.13695"
     inkscape:document-units="px"
     inkscape:current-layer="layer1"
     showgrid="false"
     inkscape:window-width="2560"
     inkscape:window-height="1377"
     inkscape:window-x="-8"
     inkscape:window-y="-8"
     inkscape:window-maximized="1"
     fit-margin-top="0"
     fit-margin-left="0"
     fit-margin-right="0"
     fit-margin-bottom="0" />
  <metadata
     id="metadata3841">
    <rdf:RDF>
      <cc:Work
         rdf:about="">
        <dc:format>image/svg+xml</dc:format>
        <dc:type
           rdf:resource="http://purl.org/dc/dcmitype/StillImage" />
        <dc:title></dc:title>
      </cc:Work>
    </rdf:RDF>
  </metadata>
  <g
     inkscape:label="Layer 1"
     inkscape:groupmode="layer"
     id="layer1"
     transform="translate(1298.0672,810.70443)">
    <path
       style="fill:none;stroke:#000000;stroke-width:1.27650535;stroke-miterlimit:10"
       inkscape:connector-curvature="0"
       class="st0"
       d="m -889.0623,-550.07633 c -8.48653,0.12865 -8.48653,8.74781 -8.48653,8.74781 l -399.88007,0 0,-268.73766 399.88007,0 c 0,0 0.25333,8.61916 8.48653,8.7478 0,0 7.8532,0 8.48652,-8.7478 l 121.85133,0 0,268.8663 -121.85133,0 c -0.25333,-8.87645 -8.48652,-8.87645 -8.48652,-8.87645 z"
       id="path14" />
    <path
       style="fill:none;stroke:#000000;stroke-width:1.27650535;stroke-miterlimit:10"
       inkscape:connector-curvature="0"
       class="st0"
       d="m -889.06229,260.35237 c -8.48653,0.1287 -8.48653,8.7479 -8.48653,8.7479 l -399.88008,0 0,-268.73772067 399.88008,0 c 0,0 0.25333,8.61915997 8.48653,8.74779997 0,0 7.8532,0 8.48652,-8.74779997 l 121.85131,0 0,268.86632067 -121.85131,0 c -0.25333,-8.8765 -8.48652,-8.8765 -8.48652,-8.8765 z"
       id="path14-1" />
    <path
       style="fill:none;stroke:#000000;stroke-width:1.27650535;stroke-miterlimit:10"
       inkscape:connector-curvature="0"
       class="st0"
       d="m -889.0623,-279.93342 c -8.48653,0.12865 -8.48653,8.74781 -8.48653,8.74781 l -399.88007,0 0,-268.73766 399.88007,0 c 0,0 0.25333,8.61916 8.48653,8.7478 0,0 7.8532,0 8.48652,-8.7478 l 121.85133,0 0,268.8663 -121.85133,0 c -0.25333,-8.87645 -8.48652,-8.87645 -8.48652,-8.87645 z"
       id="path14-18" />
    <path
       style="fill:none;stroke:#000000;stroke-width:1.27650535;stroke-miterlimit:10"
       inkscape:connector-curvature="0"
       class="st0"
       d="m -889.0623,-9.7905007 c -8.48653,0.12865 -8.48653,8.74781 -8.48653,8.74781 l -399.88007,0 0,-268.7376693 399.88007,0 c 0,0 0.25333,8.61916 8.48653,8.7478 0,0 7.8532,0 8.48652,-8.7478 l 121.85133,0 0,268.86630933 -121.85133,0 c -0.25333,-8.87645003 -8.48652,-8.87645003 -8.48652,-8.87645003 z"
       id="path14-4" />
  </g>
  <style
     id="style4"
     type="text/css">
	.st0{fill:none;stroke:#000000;stroke-miterlimit:10;}
	.st1{fill:none;}
	.st2{fill-rule:evenodd;clip-rule:evenodd;}
	.st3{fill:none;stroke:#000000;stroke-width:0.5;stroke-miterlimit:10;}
	.st4{fill:#FFFFFF;stroke:#000000;stroke-width:0.25;stroke-miterlimit:10;}
	.st5{stroke:#000000;stroke-width:0.5;stroke-miterlimit:10;}
	.st6{font-family:'Didot';font-weight:bold;}
	.st7{font-size:22.5px;}
	.st8{letter-spacing:1;}
	.st9{font-size:15px;}
	.st10{font-family:'SnellRoundhand BoldScript';}
	.st11{font-size:26.25px;}
	.st12{font-family:'Didot';}
	.st13{font-size:11.25px;}
	.st14{font-size:9px;}
	.st15{font-size:12px;}
	.st16{font-size:13.5px;}
	.st17{font-family:'SnellRoundhand Script';}
	.st18{font-size:22px;}
	.st19{font-size:10px;}
</style>
</svg>
