  0
SECTION
  2
HEADER
  9
$ACADVER
  1
AC1009
  9
$EXTMIN
 10
0.0
 20
0.0
 30
0.0
  9
$EXTMAX
 10
1000.0
 20
1000.0
 30
0.0
  9
$FILLMODE
 70
 0
  9
$SPLFRAME
 70
 1
  0
ENDSEC
  0
SECTION
  2
TABLES
  0
TABLE
  2
LAYER
 70
1
  0
LAYER
  2
0
 70
     0
 62
     7
  6
CONTINUOUS
  0
ENDTAB
  0
ENDSEC
  0
SECTION
  2
ENTITIES
  0
POLYLINE
  8
0
 62
     0
 66
     1
 10
0
 20
0
 30
0.0
 70
     1
 40
1.0212
 41
1.0212
  0
VERTEX
  8
0
 10
115.43
 20
2.68442
 30
0.0
 40
0.360257
 41
0.360257
  0
VERTEX
  8
0
 10
115.232
 20
2.68166
 30
0.0
 40
0.360257
 41
0.360257
  0
VERTEX
  8
0
 10
114.639
 20
2.56866
 30
0.0
 40
0.360257
 41
0.360257
  0
VERTEX
  8
0
 10
114.045
 20
2.28479
 30
0.0
 40
0.360257
 41
0.360257
  0
VERTEX
  8
0
 10
113.619
 20
1.88791
 30
0.0
 40
0.360257
 41
0.360257
  0
VERTEX
  8
0
 10
113.334
 20
1.43729
 30
0.0
 40
0.360257
 41
0.360257
  0
VERTEX
  8
0
 10
113.161
 20
0.988053
 30
0.0
 40
0.360257
 41
0.360257
  0
VERTEX
  8
0
 10
113.072
 20
0.598068
 30
0.0
 40
0.360257
 41
0.360257
  0
VERTEX
  8
0
 10
113.039
 20
0.321083
 30
0.0
 40
0.360257
 41
0.360257
  0
VERTEX
  8
0
 10
113.035
 20
0.216352
 30
0.0
 40
0.360257
 41
0.360257
  0
VERTEX
  8
0
 10
113.035
 20
0.216352
 30
0.0
 40
0.360257
 41
0.360257
  0
VERTEX
  8
0
 10
0.180523
 20
0.216352
 30
0.0
 40
0.360257
 41
0.360257
  0
VERTEX
  8
0
 10
0.180523
 20
76.0596
 30
0.0
 40
0.360257
 41
0.360257
  0
VERTEX
  8
0
 10
113.035
 20
76.0596
 30
0.0
 40
0.360257
 41
0.360257
  0
VERTEX
  8
0
 10
113.035
 20
76.0596
 30
0.0
 40
0.360257
 41
0.360257
  0
VERTEX
  8
0
 10
113.042
 20
75.9562
 30
0.0
 40
0.360257
 41
0.360257
  0
VERTEX
  8
0
 10
113.082
 20
75.6789
 30
0.0
 40
0.360257
 41
0.360257
  0
VERTEX
  8
0
 10
113.18
 20
75.2891
 30
0.0
 40
0.360257
 41
0.360257
  0
VERTEX
  8
0
 10
113.36
 20
74.84
 30
0.0
 40
0.360257
 41
0.360257
  0
VERTEX
  8
0
 10
113.651
 20
74.3892
 30
0.0
 40
0.360257
 41
0.360257
  0
VERTEX
  8
0
 10
114.075
 20
73.9923
 30
0.0
 40
0.360257
 41
0.360257
  0
VERTEX
  8
0
 10
114.66
 20
73.7087
 30
0.0
 40
0.360257
 41
0.360257
  0
VERTEX
  8
0
 10
115.237
 20
73.594
 30
0.0
 40
0.360257
 41
0.360257
  0
VERTEX
  8
0
 10
115.43
 20
73.5912
 30
0.0
 40
0.360257
 41
0.360257
  0
VERTEX
  8
0
 10
115.43
 20
73.5912
 30
0.0
 40
0.360257
 41
0.360257
  0
VERTEX
  8
0
 10
115.525
 20
73.5969
 30
0.0
 40
0.360257
 41
0.360257
  0
VERTEX
  8
0
 10
115.778
 20
73.63
 30
0.0
 40
0.360257
 41
0.360257
  0
VERTEX
  8
0
 10
116.14
 20
73.7224
 30
0.0
 40
0.360257
 41
0.360257
  0
VERTEX
  8
0
 10
116.56
 20
73.8999
 30
0.0
 40
0.360257
 41
0.360257
  0
VERTEX
  8
0
 10
116.989
 20
74.1948
 30
0.0
 40
0.360257
 41
0.360257
  0
VERTEX
  8
0
 10
117.376
 20
74.6333
 30
0.0
 40
0.360257
 41
0.360257
  0
VERTEX
  8
0
 10
117.671
 20
75.245
 30
0.0
 40
0.360257
 41
0.360257
  0
VERTEX
  8
0
 10
117.81
 20
75.8553
 30
0.0
 40
0.360257
 41
0.360257
  0
VERTEX
  8
0
 10
117.825
 20
76.0596
 30
0.0
 40
0.360257
 41
0.360257
  0
VERTEX
  8
0
 10
152.214
 20
76.0596
 30
0.0
 40
0.360257
 41
0.360257
  0
VERTEX
  8
0
 10
152.214
 20
0.179145
 30
0.0
 40
0.360257
 41
0.360257
  0
VERTEX
  8
0
 10
117.825
 20
0.179145
 30
0.0
 40
0.360257
 41
0.360257
  0
VERTEX
  8
0
 10
117.818
 20
0.38723
 30
0.0
 40
0.360257
 41
0.360257
  0
VERTEX
  8
0
 10
117.701
 20
1.00735
 30
0.0
 40
0.360257
 41
0.360257
  0
VERTEX
  8
0
 10
117.42
 20
1.62884
 30
0.0
 40
0.360257
 41
0.360257
  0
VERTEX
  8
0
 10
117.035
 20
2.07395
 30
0.0
 40
0.360257
 41
0.360257
  0
VERTEX
  8
0
 10
116.6
 20
2.37161
 30
0.0
 40
0.360257
 41
0.360257
  0
VERTEX
  8
0
 10
116.169
 20
2.5535
 30
0.0
 40
0.360257
 41
0.360257
  0
VERTEX
  8
0
 10
115.794
 20
2.64583
 30
0.0
 40
0.360257
 41
0.360257
  0
VERTEX
  8
0
 10
115.529
 20
2.68029
 30
0.0
 40
0.360257
 41
0.360257
  0
VERTEX
  8
0
 10
115.43
 20
2.68442
 30
0.0
 40
0.360257
 41
0.360257
  0
VERTEX
  8
0
 10
115.43
 20
2.68442
 30
0.0
 40
0.360257
 41
0.360257
  0
SEQEND
 8
0
  0
POLYLINE
  8
0
 62
     0
 66
     1
 10
0
 20
0
 30
0.0
 70
     1
 40
0
 41
0
  0
VERTEX
  8
0
 10
115.109
 20
69.8154
 30
0.0
 40
0
 41
0
  0
VERTEX
  8
0
 10
115.645
 20
69.8154
 30
0.0
 40
0
 41
0
  0
VERTEX
  8
0
 10
115.645
 20
68.8717
 30
0.0
 40
0
 41
0
  0
VERTEX
  8
0
 10
115.109
 20
68.8717
 30
0.0
 40
0
 41
0
  0
VERTEX
  8
0
 10
115.109
 20
69.8154
 30
0.0
 40
0
 41
0
  0
SEQEND
 8
0
  0
POLYLINE
  8
0
 62
     0
 66
     1
 10
0
 20
0
 30
0.0
 70
     1
 40
0
 41
0
  0
VERTEX
  8
0
 10
115.109
 20
71.5215
 30
0.0
 40
0
 41
0
  0
VERTEX
  8
0
 10
115.645
 20
71.5215
 30
0.0
 40
0
 41
0
  0
VERTEX
  8
0
 10
115.645
 20
70.5778
 30
0.0
 40
0
 41
0
  0
VERTEX
  8
0
 10
115.109
 20
70.5778
 30
0.0
 40
0
 41
0
  0
VERTEX
  8
0
 10
115.109
 20
71.5215
 30
0.0
 40
0
 41
0
  0
SEQEND
 8
0
  0
POLYLINE
  8
0
 62
     0
 66
     1
 10
0
 20
0
 30
0.0
 70
     1
 40
0
 41
0
  0
VERTEX
  8
0
 10
115.109
 20
73.1919
 30
0.0
 40
0
 41
0
  0
VERTEX
  8
0
 10
115.645
 20
73.1919
 30
0.0
 40
0
 41
0
  0
VERTEX
  8
0
 10
115.645
 20
72.2478
 30
0.0
 40
0
 41
0
  0
VERTEX
  8
0
 10
115.109
 20
72.2478
 30
0.0
 40
0
 41
0
  0
VERTEX
  8
0
 10
115.109
 20
73.1919
 30
0.0
 40
0
 41
0
  0
SEQEND
 8
0
  0
POLYLINE
  8
0
 62
     0
 66
     1
 10
0
 20
0
 30
0.0
 70
     1
 40
0
 41
0
  0
VERTEX
  8
0
 10
115.109
 20
64.7693
 30
0.0
 40
0
 41
0
  0
VERTEX
  8
0
 10
115.645
 20
64.7693
 30
0.0
 40
0
 41
0
  0
VERTEX
  8
0
 10
115.645
 20
63.8253
 30
0.0
 40
0
 41
0
  0
VERTEX
  8
0
 10
115.109
 20
63.8253
 30
0.0
 40
0
 41
0
  0
VERTEX
  8
0
 10
115.109
 20
64.7693
 30
0.0
 40
0
 41
0
  0
SEQEND
 8
0
  0
POLYLINE
  8
0
 62
     0
 66
     1
 10
0
 20
0
 30
0.0
 70
     1
 40
0
 41
0
  0
VERTEX
  8
0
 10
115.109
 20
66.4393
 30
0.0
 40
0
 41
0
  0
VERTEX
  8
0
 10
115.645
 20
66.4393
 30
0.0
 40
0
 41
0
  0
VERTEX
  8
0
 10
115.645
 20
65.4953
 30
0.0
 40
0
 41
0
  0
VERTEX
  8
0
 10
115.109
 20
65.4953
 30
0.0
 40
0
 41
0
  0
VERTEX
  8
0
 10
115.109
 20
66.4393
 30
0.0
 40
0
 41
0
  0
SEQEND
 8
0
  0
POLYLINE
  8
0
 62
     0
 66
     1
 10
0
 20
0
 30
0.0
 70
     1
 40
0
 41
0
  0
VERTEX
  8
0
 10
115.109
 20
68.1454
 30
0.0
 40
0
 41
0
  0
VERTEX
  8
0
 10
115.645
 20
68.1454
 30
0.0
 40
0
 41
0
  0
VERTEX
  8
0
 10
115.645
 20
67.2013
 30
0.0
 40
0
 41
0
  0
VERTEX
  8
0
 10
115.109
 20
67.2013
 30
0.0
 40
0
 41
0
  0
VERTEX
  8
0
 10
115.109
 20
68.1454
 30
0.0
 40
0
 41
0
  0
SEQEND
 8
0
  0
POLYLINE
  8
0
 62
     0
 66
     1
 10
0
 20
0
 30
0.0
 70
     1
 40
0
 41
0
  0
VERTEX
  8
0
 10
115.109
 20
59.7214
 30
0.0
 40
0
 41
0
  0
VERTEX
  8
0
 10
115.645
 20
59.7214
 30
0.0
 40
0
 41
0
  0
VERTEX
  8
0
 10
115.645
 20
58.7774
 30
0.0
 40
0
 41
0
  0
VERTEX
  8
0
 10
115.109
 20
58.7774
 30
0.0
 40
0
 41
0
  0
VERTEX
  8
0
 10
115.109
 20
59.7214
 30
0.0
 40
0
 41
0
  0
SEQEND
 8
0
  0
POLYLINE
  8
0
 62
     0
 66
     1
 10
0
 20
0
 30
0.0
 70
     1
 40
0
 41
0
  0
VERTEX
  8
0
 10
115.109
 20
61.3914
 30
0.0
 40
0
 41
0
  0
VERTEX
  8
0
 10
115.645
 20
61.3914
 30
0.0
 40
0
 41
0
  0
VERTEX
  8
0
 10
115.645
 20
60.4478
 30
0.0
 40
0
 41
0
  0
VERTEX
  8
0
 10
115.109
 20
60.4478
 30
0.0
 40
0
 41
0
  0
VERTEX
  8
0
 10
115.109
 20
61.3914
 30
0.0
 40
0
 41
0
  0
SEQEND
 8
0
  0
POLYLINE
  8
0
 62
     0
 66
     1
 10
0
 20
0
 30
0.0
 70
     1
 40
0
 41
0
  0
VERTEX
  8
0
 10
115.109
 20
63.0618
 30
0.0
 40
0
 41
0
  0
VERTEX
  8
0
 10
115.645
 20
63.0618
 30
0.0
 40
0
 41
0
  0
VERTEX
  8
0
 10
115.645
 20
62.1178
 30
0.0
 40
0
 41
0
  0
VERTEX
  8
0
 10
115.109
 20
62.1178
 30
0.0
 40
0
 41
0
  0
VERTEX
  8
0
 10
115.109
 20
63.0618
 30
0.0
 40
0
 41
0
  0
SEQEND
 8
0
  0
POLYLINE
  8
0
 62
     0
 66
     1
 10
0
 20
0
 30
0.0
 70
     1
 40
0
 41
0
  0
VERTEX
  8
0
 10
115.109
 20
54.6393
 30
0.0
 40
0
 41
0
  0
VERTEX
  8
0
 10
115.645
 20
54.6393
 30
0.0
 40
0
 41
0
  0
VERTEX
  8
0
 10
115.645
 20
53.6952
 30
0.0
 40
0
 41
0
  0
VERTEX
  8
0
 10
115.109
 20
53.6952
 30
0.0
 40
0
 41
0
  0
VERTEX
  8
0
 10
115.109
 20
54.6393
 30
0.0
 40
0
 41
0
  0
SEQEND
 8
0
  0
POLYLINE
  8
0
 62
     0
 66
     1
 10
0
 20
0
 30
0.0
 70
     1
 40
0
 41
0
  0
VERTEX
  8
0
 10
115.109
 20
56.3093
 30
0.0
 40
0
 41
0
  0
VERTEX
  8
0
 10
115.645
 20
56.3093
 30
0.0
 40
0
 41
0
  0
VERTEX
  8
0
 10
115.645
 20
55.3653
 30
0.0
 40
0
 41
0
  0
VERTEX
  8
0
 10
115.109
 20
55.3653
 30
0.0
 40
0
 41
0
  0
VERTEX
  8
0
 10
115.109
 20
56.3093
 30
0.0
 40
0
 41
0
  0
SEQEND
 8
0
  0
POLYLINE
  8
0
 62
     0
 66
     1
 10
0
 20
0
 30
0.0
 70
     1
 40
0
 41
0
  0
VERTEX
  8
0
 10
115.109
 20
58.0154
 30
0.0
 40
0
 41
0
  0
VERTEX
  8
0
 10
115.645
 20
58.0154
 30
0.0
 40
0
 41
0
  0
VERTEX
  8
0
 10
115.645
 20
57.0713
 30
0.0
 40
0
 41
0
  0
VERTEX
  8
0
 10
115.109
 20
57.0713
 30
0.0
 40
0
 41
0
  0
VERTEX
  8
0
 10
115.109
 20
58.0154
 30
0.0
 40
0
 41
0
  0
SEQEND
 8
0
  0
POLYLINE
  8
0
 62
     0
 66
     1
 10
0
 20
0
 30
0.0
 70
     1
 40
0
 41
0
  0
VERTEX
  8
0
 10
115.109
 20
49.5928
 30
0.0
 40
0
 41
0
  0
VERTEX
  8
0
 10
115.645
 20
49.5928
 30
0.0
 40
0
 41
0
  0
VERTEX
  8
0
 10
115.645
 20
48.6488
 30
0.0
 40
0
 41
0
  0
VERTEX
  8
0
 10
115.109
 20
48.6488
 30
0.0
 40
0
 41
0
  0
VERTEX
  8
0
 10
115.109
 20
49.5928
 30
0.0
 40
0
 41
0
  0
SEQEND
 8
0
  0
POLYLINE
  8
0
 62
     0
 66
     1
 10
0
 20
0
 30
0.0
 70
     1
 40
0
 41
0
  0
VERTEX
  8
0
 10
115.109
 20
51.2632
 30
0.0
 40
0
 41
0
  0
VERTEX
  8
0
 10
115.645
 20
51.2632
 30
0.0
 40
0
 41
0
  0
VERTEX
  8
0
 10
115.645
 20
50.3192
 30
0.0
 40
0
 41
0
  0
VERTEX
  8
0
 10
115.109
 20
50.3192
 30
0.0
 40
0
 41
0
  0
VERTEX
  8
0
 10
115.109
 20
51.2632
 30
0.0
 40
0
 41
0
  0
SEQEND
 8
0
  0
POLYLINE
  8
0
 62
     0
 66
     1
 10
0
 20
0
 30
0.0
 70
     1
 40
0
 41
0
  0
VERTEX
  8
0
 10
115.109
 20
52.9332
 30
0.0
 40
0
 41
0
  0
VERTEX
  8
0
 10
115.645
 20
52.9332
 30
0.0
 40
0
 41
0
  0
VERTEX
  8
0
 10
115.645
 20
51.9892
 30
0.0
 40
0
 41
0
  0
VERTEX
  8
0
 10
115.109
 20
51.9892
 30
0.0
 40
0
 41
0
  0
VERTEX
  8
0
 10
115.109
 20
52.9332
 30
0.0
 40
0
 41
0
  0
SEQEND
 8
0
  0
POLYLINE
  8
0
 62
     0
 66
     1
 10
0
 20
0
 30
0.0
 70
     1
 40
0
 41
0
  0
VERTEX
  8
0
 10
115.109
 20
44.5093
 30
0.0
 40
0
 41
0
  0
VERTEX
  8
0
 10
115.645
 20
44.5093
 30
0.0
 40
0
 41
0
  0
VERTEX
  8
0
 10
115.645
 20
43.5652
 30
0.0
 40
0
 41
0
  0
VERTEX
  8
0
 10
115.109
 20
43.5652
 30
0.0
 40
0
 41
0
  0
VERTEX
  8
0
 10
115.109
 20
44.5093
 30
0.0
 40
0
 41
0
  0
SEQEND
 8
0
  0
POLYLINE
  8
0
 62
     0
 66
     1
 10
0
 20
0
 30
0.0
 70
     1
 40
0
 41
0
  0
VERTEX
  8
0
 10
115.109
 20
46.1793
 30
0.0
 40
0
 41
0
  0
VERTEX
  8
0
 10
115.645
 20
46.1793
 30
0.0
 40
0
 41
0
  0
VERTEX
  8
0
 10
115.645
 20
45.2356
 30
0.0
 40
0
 41
0
  0
VERTEX
  8
0
 10
115.109
 20
45.2356
 30
0.0
 40
0
 41
0
  0
VERTEX
  8
0
 10
115.109
 20
46.1793
 30
0.0
 40
0
 41
0
  0
SEQEND
 8
0
  0
POLYLINE
  8
0
 62
     0
 66
     1
 10
0
 20
0
 30
0.0
 70
     1
 40
0
 41
0
  0
VERTEX
  8
0
 10
115.109
 20
47.8868
 30
0.0
 40
0
 41
0
  0
VERTEX
  8
0
 10
115.645
 20
47.8868
 30
0.0
 40
0
 41
0
  0
VERTEX
  8
0
 10
115.645
 20
46.9427
 30
0.0
 40
0
 41
0
  0
VERTEX
  8
0
 10
115.109
 20
46.9427
 30
0.0
 40
0
 41
0
  0
VERTEX
  8
0
 10
115.109
 20
47.8868
 30
0.0
 40
0
 41
0
  0
SEQEND
 8
0
  0
POLYLINE
  8
0
 62
     0
 66
     1
 10
0
 20
0
 30
0.0
 70
     1
 40
0
 41
0
  0
VERTEX
  8
0
 10
115.109
 20
39.4628
 30
0.0
 40
0
 41
0
  0
VERTEX
  8
0
 10
115.645
 20
39.4628
 30
0.0
 40
0
 41
0
  0
VERTEX
  8
0
 10
115.645
 20
38.5191
 30
0.0
 40
0
 41
0
  0
VERTEX
  8
0
 10
115.109
 20
38.5191
 30
0.0
 40
0
 41
0
  0
VERTEX
  8
0
 10
115.109
 20
39.4628
 30
0.0
 40
0
 41
0
  0
SEQEND
 8
0
  0
POLYLINE
  8
0
 62
     0
 66
     1
 10
0
 20
0
 30
0.0
 70
     1
 40
0
 41
0
  0
VERTEX
  8
0
 10
115.109
 20
41.1332
 30
0.0
 40
0
 41
0
  0
VERTEX
  8
0
 10
115.645
 20
41.1332
 30
0.0
 40
0
 41
0
  0
VERTEX
  8
0
 10
115.645
 20
40.1891
 30
0.0
 40
0
 41
0
  0
VERTEX
  8
0
 10
115.109
 20
40.1891
 30
0.0
 40
0
 41
0
  0
VERTEX
  8
0
 10
115.109
 20
41.1332
 30
0.0
 40
0
 41
0
  0
SEQEND
 8
0
  0
POLYLINE
  8
0
 62
     0
 66
     1
 10
0
 20
0
 30
0.0
 70
     1
 40
0
 41
0
  0
VERTEX
  8
0
 10
115.109
 20
42.8032
 30
0.0
 40
0
 41
0
  0
VERTEX
  8
0
 10
115.645
 20
42.8032
 30
0.0
 40
0
 41
0
  0
VERTEX
  8
0
 10
115.645
 20
41.8592
 30
0.0
 40
0
 41
0
  0
VERTEX
  8
0
 10
115.109
 20
41.8592
 30
0.0
 40
0
 41
0
  0
VERTEX
  8
0
 10
115.109
 20
42.8032
 30
0.0
 40
0
 41
0
  0
SEQEND
 8
0
  0
POLYLINE
  8
0
 62
     0
 66
     1
 10
0
 20
0
 30
0.0
 70
     1
 40
0
 41
0
  0
VERTEX
  8
0
 10
115.109
 20
34.3807
 30
0.0
 40
0
 41
0
  0
VERTEX
  8
0
 10
115.645
 20
34.3807
 30
0.0
 40
0
 41
0
  0
VERTEX
  8
0
 10
115.645
 20
33.4367
 30
0.0
 40
0
 41
0
  0
VERTEX
  8
0
 10
115.109
 20
33.4367
 30
0.0
 40
0
 41
0
  0
VERTEX
  8
0
 10
115.109
 20
34.3807
 30
0.0
 40
0
 41
0
  0
SEQEND
 8
0
  0
POLYLINE
  8
0
 62
     0
 66
     1
 10
0
 20
0
 30
0.0
 70
     1
 40
0
 41
0
  0
VERTEX
  8
0
 10
115.109
 20
36.0867
 30
0.0
 40
0
 41
0
  0
VERTEX
  8
0
 10
115.645
 20
36.0867
 30
0.0
 40
0
 41
0
  0
VERTEX
  8
0
 10
115.645
 20
35.1427
 30
0.0
 40
0
 41
0
  0
VERTEX
  8
0
 10
115.109
 20
35.1427
 30
0.0
 40
0
 41
0
  0
VERTEX
  8
0
 10
115.109
 20
36.0867
 30
0.0
 40
0
 41
0
  0
SEQEND
 8
0
  0
POLYLINE
  8
0
 62
     0
 66
     1
 10
0
 20
0
 30
0.0
 70
     1
 40
0
 41
0
  0
VERTEX
  8
0
 10
115.109
 20
37.7567
 30
0.0
 40
0
 41
0
  0
VERTEX
  8
0
 10
115.645
 20
37.7567
 30
0.0
 40
0
 41
0
  0
VERTEX
  8
0
 10
115.645
 20
36.8131
 30
0.0
 40
0
 41
0
  0
VERTEX
  8
0
 10
115.109
 20
36.8131
 30
0.0
 40
0
 41
0
  0
VERTEX
  8
0
 10
115.109
 20
37.7567
 30
0.0
 40
0
 41
0
  0
SEQEND
 8
0
  0
POLYLINE
  8
0
 62
     0
 66
     1
 10
0
 20
0
 30
0.0
 70
     1
 40
0
 41
0
  0
VERTEX
  8
0
 10
115.109
 20
29.3343
 30
0.0
 40
0
 41
0
  0
VERTEX
  8
0
 10
115.645
 20
29.3343
 30
0.0
 40
0
 41
0
  0
VERTEX
  8
0
 10
115.645
 20
28.3904
 30
0.0
 40
0
 41
0
  0
VERTEX
  8
0
 10
115.109
 20
28.3904
 30
0.0
 40
0
 41
0
  0
VERTEX
  8
0
 10
115.109
 20
29.3343
 30
0.0
 40
0
 41
0
  0
SEQEND
 8
0
  0
POLYLINE
  8
0
 62
     0
 66
     1
 10
0
 20
0
 30
0.0
 70
     1
 40
0
 41
0
  0
VERTEX
  8
0
 10
115.109
 20
31.0031
 30
0.0
 40
0
 41
0
  0
VERTEX
  8
0
 10
115.645
 20
31.0031
 30
0.0
 40
0
 41
0
  0
VERTEX
  8
0
 10
115.645
 20
30.0591
 30
0.0
 40
0
 41
0
  0
VERTEX
  8
0
 10
115.109
 20
30.0591
 30
0.0
 40
0
 41
0
  0
VERTEX
  8
0
 10
115.109
 20
31.0031
 30
0.0
 40
0
 41
0
  0
SEQEND
 8
0
  0
POLYLINE
  8
0
 62
     0
 66
     1
 10
0
 20
0
 30
0.0
 70
     1
 40
0
 41
0
  0
VERTEX
  8
0
 10
115.109
 20
32.6733
 30
0.0
 40
0
 41
0
  0
VERTEX
  8
0
 10
115.645
 20
32.6733
 30
0.0
 40
0
 41
0
  0
VERTEX
  8
0
 10
115.645
 20
31.7293
 30
0.0
 40
0
 41
0
  0
VERTEX
  8
0
 10
115.109
 20
31.7293
 30
0.0
 40
0
 41
0
  0
VERTEX
  8
0
 10
115.109
 20
32.6733
 30
0.0
 40
0
 41
0
  0
SEQEND
 8
0
  0
POLYLINE
  8
0
 62
     0
 66
     1
 10
0
 20
0
 30
0.0
 70
     1
 40
0
 41
0
  0
VERTEX
  8
0
 10
115.109
 20
24.2507
 30
0.0
 40
0
 41
0
  0
VERTEX
  8
0
 10
115.645
 20
24.2507
 30
0.0
 40
0
 41
0
  0
VERTEX
  8
0
 10
115.645
 20
23.3068
 30
0.0
 40
0
 41
0
  0
VERTEX
  8
0
 10
115.109
 20
23.3068
 30
0.0
 40
0
 41
0
  0
VERTEX
  8
0
 10
115.109
 20
24.2507
 30
0.0
 40
0
 41
0
  0
SEQEND
 8
0
  0
POLYLINE
  8
0
 62
     0
 66
     1
 10
0
 20
0
 30
0.0
 70
     1
 40
0
 41
0
  0
VERTEX
  8
0
 10
115.109
 20
25.9567
 30
0.0
 40
0
 41
0
  0
VERTEX
  8
0
 10
115.645
 20
25.9567
 30
0.0
 40
0
 41
0
  0
VERTEX
  8
0
 10
115.645
 20
25.0128
 30
0.0
 40
0
 41
0
  0
VERTEX
  8
0
 10
115.109
 20
25.0128
 30
0.0
 40
0
 41
0
  0
VERTEX
  8
0
 10
115.109
 20
25.9567
 30
0.0
 40
0
 41
0
  0
SEQEND
 8
0
  0
POLYLINE
  8
0
 62
     0
 66
     1
 10
0
 20
0
 30
0.0
 70
     1
 40
0
 41
0
  0
VERTEX
  8
0
 10
115.109
 20
27.6269
 30
0.0
 40
0
 41
0
  0
VERTEX
  8
0
 10
115.645
 20
27.6269
 30
0.0
 40
0
 41
0
  0
VERTEX
  8
0
 10
115.645
 20
26.6829
 30
0.0
 40
0
 41
0
  0
VERTEX
  8
0
 10
115.109
 20
26.6829
 30
0.0
 40
0
 41
0
  0
VERTEX
  8
0
 10
115.109
 20
27.6269
 30
0.0
 40
0
 41
0
  0
SEQEND
 8
0
  0
POLYLINE
  8
0
 62
     0
 66
     1
 10
0
 20
0
 30
0.0
 70
     1
 40
0
 41
0
  0
VERTEX
  8
0
 10
115.109
 20
19.2043
 30
0.0
 40
0
 41
0
  0
VERTEX
  8
0
 10
115.645
 20
19.2043
 30
0.0
 40
0
 41
0
  0
VERTEX
  8
0
 10
115.645
 20
18.2604
 30
0.0
 40
0
 41
0
  0
VERTEX
  8
0
 10
115.109
 20
18.2604
 30
0.0
 40
0
 41
0
  0
VERTEX
  8
0
 10
115.109
 20
19.2043
 30
0.0
 40
0
 41
0
  0
SEQEND
 8
0
  0
POLYLINE
  8
0
 62
     0
 66
     1
 10
0
 20
0
 30
0.0
 70
     1
 40
0
 41
0
  0
VERTEX
  8
0
 10
115.109
 20
20.8745
 30
0.0
 40
0
 41
0
  0
VERTEX
  8
0
 10
115.645
 20
20.8745
 30
0.0
 40
0
 41
0
  0
VERTEX
  8
0
 10
115.645
 20
19.9306
 30
0.0
 40
0
 41
0
  0
VERTEX
  8
0
 10
115.109
 20
19.9306
 30
0.0
 40
0
 41
0
  0
VERTEX
  8
0
 10
115.109
 20
20.8745
 30
0.0
 40
0
 41
0
  0
SEQEND
 8
0
  0
POLYLINE
  8
0
 62
     0
 66
     1
 10
0
 20
0
 30
0.0
 70
     1
 40
0
 41
0
  0
VERTEX
  8
0
 10
115.109
 20
22.5447
 30
0.0
 40
0
 41
0
  0
VERTEX
  8
0
 10
115.645
 20
22.5447
 30
0.0
 40
0
 41
0
  0
VERTEX
  8
0
 10
115.645
 20
21.6008
 30
0.0
 40
0
 41
0
  0
VERTEX
  8
0
 10
115.109
 20
21.6008
 30
0.0
 40
0
 41
0
  0
VERTEX
  8
0
 10
115.109
 20
22.5447
 30
0.0
 40
0
 41
0
  0
SEQEND
 8
0
  0
POLYLINE
  8
0
 62
     0
 66
     1
 10
0
 20
0
 30
0.0
 70
     1
 40
0
 41
0
  0
VERTEX
  8
0
 10
115.109
 20
14.1207
 30
0.0
 40
0
 41
0
  0
VERTEX
  8
0
 10
115.645
 20
14.1207
 30
0.0
 40
0
 41
0
  0
VERTEX
  8
0
 10
115.645
 20
13.1768
 30
0.0
 40
0
 41
0
  0
VERTEX
  8
0
 10
115.109
 20
13.1768
 30
0.0
 40
0
 41
0
  0
VERTEX
  8
0
 10
115.109
 20
14.1207
 30
0.0
 40
0
 41
0
  0
SEQEND
 8
0
  0
POLYLINE
  8
0
 62
     0
 66
     1
 10
0
 20
0
 30
0.0
 70
     1
 40
0
 41
0
  0
VERTEX
  8
0
 10
115.109
 20
15.8282
 30
0.0
 40
0
 41
0
  0
VERTEX
  8
0
 10
115.645
 20
15.8282
 30
0.0
 40
0
 41
0
  0
VERTEX
  8
0
 10
115.645
 20
14.8842
 30
0.0
 40
0
 41
0
  0
VERTEX
  8
0
 10
115.109
 20
14.8842
 30
0.0
 40
0
 41
0
  0
VERTEX
  8
0
 10
115.109
 20
15.8282
 30
0.0
 40
0
 41
0
  0
SEQEND
 8
0
  0
POLYLINE
  8
0
 62
     0
 66
     1
 10
0
 20
0
 30
0.0
 70
     1
 40
0
 41
0
  0
VERTEX
  8
0
 10
115.109
 20
17.4983
 30
0.0
 40
0
 41
0
  0
VERTEX
  8
0
 10
115.645
 20
17.4983
 30
0.0
 40
0
 41
0
  0
VERTEX
  8
0
 10
115.645
 20
16.5544
 30
0.0
 40
0
 41
0
  0
VERTEX
  8
0
 10
115.109
 20
16.5544
 30
0.0
 40
0
 41
0
  0
VERTEX
  8
0
 10
115.109
 20
17.4983
 30
0.0
 40
0
 41
0
  0
SEQEND
 8
0
  0
POLYLINE
  8
0
 62
     0
 66
     1
 10
0
 20
0
 30
0.0
 70
     1
 40
0
 41
0
  0
VERTEX
  8
0
 10
115.109
 20
9.0744
 30
0.0
 40
0
 41
0
  0
VERTEX
  8
0
 10
115.645
 20
9.0744
 30
0.0
 40
0
 41
0
  0
VERTEX
  8
0
 10
115.645
 20
8.13043
 30
0.0
 40
0
 41
0
  0
VERTEX
  8
0
 10
115.109
 20
8.13043
 30
0.0
 40
0
 41
0
  0
VERTEX
  8
0
 10
115.109
 20
9.0744
 30
0.0
 40
0
 41
0
  0
SEQEND
 8
0
  0
POLYLINE
  8
0
 62
     0
 66
     1
 10
0
 20
0
 30
0.0
 70
     1
 40
0
 41
0
  0
VERTEX
  8
0
 10
115.109
 20
10.7446
 30
0.0
 40
0
 41
0
  0
VERTEX
  8
0
 10
115.645
 20
10.7446
 30
0.0
 40
0
 41
0
  0
VERTEX
  8
0
 10
115.645
 20
9.80063
 30
0.0
 40
0
 41
0
  0
VERTEX
  8
0
 10
115.109
 20
9.80063
 30
0.0
 40
0
 41
0
  0
VERTEX
  8
0
 10
115.109
 20
10.7446
 30
0.0
 40
0
 41
0
  0
SEQEND
 8
0
  0
POLYLINE
  8
0
 62
     0
 66
     1
 10
0
 20
0
 30
0.0
 70
     1
 40
0
 41
0
  0
VERTEX
  8
0
 10
115.109
 20
12.4147
 30
0.0
 40
0
 41
0
  0
VERTEX
  8
0
 10
115.645
 20
12.4147
 30
0.0
 40
0
 41
0
  0
VERTEX
  8
0
 10
115.645
 20
11.4708
 30
0.0
 40
0
 41
0
  0
VERTEX
  8
0
 10
115.109
 20
11.4708
 30
0.0
 40
0
 41
0
  0
VERTEX
  8
0
 10
115.109
 20
12.4147
 30
0.0
 40
0
 41
0
  0
SEQEND
 8
0
  0
POLYLINE
  8
0
 62
     0
 66
     1
 10
0
 20
0
 30
0.0
 70
     1
 40
0
 41
0
  0
VERTEX
  8
0
 10
115.109
 20
3.99217
 30
0.0
 40
0
 41
0
  0
VERTEX
  8
0
 10
115.645
 20
3.99217
 30
0.0
 40
0
 41
0
  0
VERTEX
  8
0
 10
115.645
 20
3.04822
 30
0.0
 40
0
 41
0
  0
VERTEX
  8
0
 10
115.109
 20
3.04822
 30
0.0
 40
0
 41
0
  0
VERTEX
  8
0
 10
115.109
 20
3.99217
 30
0.0
 40
0
 41
0
  0
SEQEND
 8
0
  0
POLYLINE
  8
0
 62
     0
 66
     1
 10
0
 20
0
 30
0.0
 70
     1
 40
0
 41
0
  0
VERTEX
  8
0
 10
115.109
 20
5.69817
 30
0.0
 40
0
 41
0
  0
VERTEX
  8
0
 10
115.645
 20
5.69817
 30
0.0
 40
0
 41
0
  0
VERTEX
  8
0
 10
115.645
 20
4.75424
 30
0.0
 40
0
 41
0
  0
VERTEX
  8
0
 10
115.109
 20
4.75424
 30
0.0
 40
0
 41
0
  0
VERTEX
  8
0
 10
115.109
 20
5.69817
 30
0.0
 40
0
 41
0
  0
SEQEND
 8
0
  0
POLYLINE
  8
0
 62
     0
 66
     1
 10
0
 20
0
 30
0.0
 70
     1
 40
0
 41
0
  0
VERTEX
  8
0
 10
115.109
 20
7.36836
 30
0.0
 40
0
 41
0
  0
VERTEX
  8
0
 10
115.645
 20
7.36836
 30
0.0
 40
0
 41
0
  0
VERTEX
  8
0
 10
115.645
 20
6.4244
 30
0.0
 40
0
 41
0
  0
VERTEX
  8
0
 10
115.109
 20
6.4244
 30
0.0
 40
0
 41
0
  0
VERTEX
  8
0
 10
115.109
 20
7.36836
 30
0.0
 40
0
 41
0
  0
SEQEND
 8
0
  0
ENDSEC
  0
EOF
