<?xml version="1.0" encoding="UTF-8" standalone="no"?>
<!-- Created with Inkscape (http://www.inkscape.org/) -->

<svg
   xmlns:dc="http://purl.org/dc/elements/1.1/"
   xmlns:cc="http://creativecommons.org/ns#"
   xmlns:rdf="http://www.w3.org/1999/02/22-rdf-syntax-ns#"
   xmlns:svg="http://www.w3.org/2000/svg"
   xmlns="http://www.w3.org/2000/svg"
   xmlns:sodipodi="http://sodipodi.sourceforge.net/DTD/sodipodi-0.dtd"
   xmlns:inkscape="http://www.inkscape.org/namespaces/inkscape"
   width="152.39185mm"
   height="76.243111mm"
   viewBox="0 0 539.97111 270.15275"
   id="svg3836"
   version="1.1"
   inkscape:version="0.91 r13725"
   sodipodi:docname="invitation_template_midpoint.svg">
  <defs
     id="defs3838" />
  <sodipodi:namedview
     id="base"
     pagecolor="#ffffff"
     bordercolor="#666666"
     borderopacity="1.0"
     inkscape:pageopacity="0.0"
     inkscape:pageshadow="2"
     inkscape:zoom="5.78"
     inkscape:cx="265.79826"
     inkscape:cy="218.42569"
     inkscape:document-units="px"
     inkscape:current-layer="layer1"
     showgrid="false"
     inkscape:window-width="2560"
     inkscape:window-height="1377"
     inkscape:window-x="-8"
     inkscape:window-y="-8"
     inkscape:window-maximized="1"
     fit-margin-top="0"
     fit-margin-left="0"
     fit-margin-right="0"
     fit-margin-bottom="0" />
  <metadata
     id="metadata3841">
    <rdf:RDF>
      <cc:Work
         rdf:about="">
        <dc:format>image/svg+xml</dc:format>
        <dc:type
           rdf:resource="http://purl.org/dc/dcmitype/StillImage" />
        <dc:title></dc:title>
      </cc:Work>
    </rdf:RDF>
  </metadata>
  <g
     inkscape:label="Layer 1"
     inkscape:groupmode="layer"
     id="layer1"
     transform="translate(-121.15016,-164.36567)">
    <g
       id="Layer_1"
       transform="matrix(1.2666458,0,0,1.2864417,117.60355,160.50634)" />
    <g
       id="Layer_2"
       transform="matrix(1.2666458,0,0,1.2864417,117.60355,160.50634)" />
    <g
       id="Layer_3"
       transform="matrix(1.2666458,0,0,1.2864417,117.60355,160.50634)" />
    <path
       style="fill:none;stroke:#000000;stroke-width:1.27650535;stroke-miterlimit:10"
       inkscape:connector-curvature="0"
       class="st0"
       d="m 530.15009,424.99875 c -8.48653,0.12865 -8.48653,8.74781 -8.48653,8.74781 l -399.88008,0 0,-268.73767 399.88008,0 c 0,0 0.25333,8.61916 8.48653,8.7478 0,0 7.8532,0 8.48652,-8.7478 l 121.85133,0 0,268.86631 -121.85133,0 c -0.25333,-8.87645 -8.48652,-8.87645 -8.48652,-8.87645 z"
       id="path14" />
    <path
       style="fill:none;stroke:#000000;stroke-width:1.27650535;stroke-miterlimit:10"
       inkscape:connector-curvature="0"
       class="st0"
       d="m 528.88344,415.99366 c -7.21988,0.51458 -7.21988,8.23323 -7.21988,8.23323 l -391.14022,0 0,-251.88529 391.14022,0.90051 c 0,0 0.88665,7.20408 7.21988,7.46136 0,0 9.62651,1.1578 9.87984,-7.46136 l 113.23813,0 0,251.88529 -113.23813,-0.77187 c -0.75999,-9.64831 -9.87984,-8.36187 -9.87984,-8.36187 z"
       id="path16" />
    <line
       style="fill:none;stroke:#000000;stroke-width:0.63825268;stroke-miterlimit:10"
       class="st3"
       x1="254.27463"
       y1="415.35046"
       x2="254.27463"
       y2="182.24721"
       id="line220" />
    <text
       transform="matrix(0,-1.007784,0.99227612,0,0,0)"
       class="st6 st7 st8"
       id="admit_tag"
       x="-297.89874"
       y="612.06537"
       style="font-weight:bold;font-size:28.7213707px;font-family:Didot;letter-spacing:1.27650535">
      <tspan
         style="text-align:center;text-anchor:middle"
         id="tspan3643">ADMIT TWO</tspan>
    </text>
    <text
       style="font-weight:bold;font-size:19.1475811px;font-family:Didot"
       transform="matrix(0,-1.007784,0.99227612,0,0,0)"
       class="st6 st9"
       id="text223"
       x="-308.07675"
       y="243.13246">15</text>
    <rect
       style="fill:none"
       x="260.98785"
       y="238.85065"
       class="st1"
       width="259.53571"
       height="71.397514"
       id="rect225" />
    <text
       transform="scale(0.99227612,1.007784)"
       id="text227"
       x="273.5614"
       y="260.38638"
       style="font-size:15.31806469px">
      <tspan
         style="font-size:33.50826645px;font-family:'SnellRoundhand BoldScript'"
         x="273.5614"
         y="260.38638"
         class="st10 st11"
         id="tspan229">Antonio J. López</tspan>
      <tspan
         style="font-size:33.50826645px;font-family:'SnellRoundhand BoldScript'"
         x="283.77344"
         y="300.59631"
         class="st10 st11"
         id="tspan231">&amp; Haya Alzaid</tspan>
    </text>
    <rect
       style="fill:none"
       x="268.20773"
       y="353.60126"
       class="st1"
       width="246.36261"
       height="78.987526"
       id="rect233" />
    <text
       id="text235"
       x="396.00845"
       y="358.65674"
       style="font-style:normal;font-variant:normal;font-weight:normal;font-stretch:normal;font-size:14.36068535px;line-height:125%;font-family:Didot;-inkscape-font-specification:'Didot, Normal';text-align:center;writing-mode:lr-tb;text-anchor:middle"
       sodipodi:linespacing="125%"
       transform="scale(0.99227612,1.007784)">
      <tspan
         sodipodi:role="line"
         id="tspan3491"
         style="font-size:14.36068535px;letter-spacing:1.27650535px"
         x="396.50845"
         y="358.65674">RSVP by 11.15.2018</tspan>
      <tspan
         sodipodi:role="line"
         id="tspan3493"
         x="396.00845"
         y="369.81119"
         style="font-size:10.37160587px">at</tspan>
      <tspan
         sodipodi:role="line"
         id="tspan3495"
         style="font-size:14.36068535px;letter-spacing:1.27650535px"
         x="396.50845"
         y="382.87549">https://tonyhaya.com/<tspan
   style="font-style:normal;font-variant:normal;font-weight:normal;font-stretch:normal;font-size:14.36068535px;line-height:125%;font-family:Didot;-inkscape-font-specification:'Didot, Normal';text-align:center;writing-mode:lr-tb;text-anchor:middle"
   id="tspan3499">joe</tspan>
</tspan>
      <tspan
         sodipodi:role="line"
         id="tspan3497"
         x="396.00845"
         y="394.02994"
         style="font-size:10.37160587px">or (707)-456-7394</tspan>
    </text>
    <text
       style="font-size:15.31806469px;font-family:'SnellRoundhand BoldScript'"
       transform="matrix(0,-1.007784,0.99227612,0,0,0)"
       class="st10 st15"
       id="text245"
       x="-329.32227"
       y="222.65552">December</text>
    <text
       transform="matrix(0,-0.96092425,1.0406648,0,0,0)"
       class="st6 st9"
       id="text247"
       x="-222.50446"
       y="224.36728"
       style="font-weight:bold;font-size:24.13797379px;font-family:Didot">
      <tspan
         style="text-align:center;text-anchor:middle"
         id="tspan3647">2018</tspan>
    </text>
    <text
       transform="matrix(0,-1.007784,0.99227612,0,0,0)"
       id="text249"
       x="-408.30234"
       y="222.65578"
       style="font-size:15.31806469px">
      <tspan
         style="font-size:15.31806469px;font-family:'SnellRoundhand BoldScript'"
         x="-408.30234"
         y="222.65578"
         class="st10 st15"
         id="tspan251">Becket,</tspan>
      <tspan
         style="font-size:15.31806469px;font-family:'SnellRoundhand BoldScript'"
         x="-393.11194"
         y="241.80336"
         class="st10 st15"
         id="tspan253">Ma</tspan>
    </text>
    <text
       transform="matrix(0,-1.007784,0.99227612,0,0,0)"
       class="st10 st16"
       id="text255"
       x="-296.49921"
       y="645.56671"
       style="font-size:17.23282242px;font-family:'SnellRoundhand BoldScript'">
      <tspan
         style="text-align:center;text-anchor:middle"
         id="tspan3645">Joe Smith and Guest</tspan>
    </text>
    <text
       transform="matrix(0,-0.90725315,1.1022282,0,0,0)"
       class="st10 st16"
       id="text257"
       x="-330.3331"
       y="510.23047"
       style="font-size:19.46143341px;font-family:'SnellRoundhand BoldScript'">
      <tspan
         style="text-align:center;text-anchor:middle"
         id="tspan3641">No. 9999</tspan>
    </text>
    <g
       id="g259"
       transform="matrix(1.2666458,0,0,1.2864417,117.60355,160.50634)">
      <g
         id="g261">
        <g
           id="g263">
          <path
             inkscape:connector-curvature="0"
             d="m 220.1,132.4 c 0,-0.1 -0.7,-0.1 -1.8,-0.1 -1.1,0 -2.9,-0.1 -4.9,-0.1 -4.1,0 -9.6,0 -15.3,0 -11.4,0.1 -23.7,0.2 -26.7,0.2 -0.2,0 -0.6,0 -0.6,0 0,0 -0.2,0 -0.6,0 -0.7,-0.1 -1.2,-0.2 -1.4,0 -3,0 -9,0 -15.9,0 -1.2,-0.4 -2.8,-1.2 -3,-1.3 -0.3,-0.2 -1.8,-1.2 -2.4,-0.9 -0.6,0.3 0,1.6 0,1.6 0,0 -0.5,-0.2 -1.4,-0.3 -0.4,0 -0.7,0.1 -1,0.4 -1.9,-1.3 -3.7,-1 -5.1,-0.5 -0.9,-0.4 -2,-0.8 -3.9,-1.3 -0.9,-0.2 -1.7,-0.4 -2.3,-0.5 l 0,0 c -1.3,-1.2 -3.7,-2.4 -4.9,-1 -0.8,0.8 -0.4,2.2 0,3.2 -0.3,0.3 -0.6,0.5 -0.9,0.5 -0.4,0.1 -0.8,-0.2 -1.1,-0.6 0,0 -0.4,-0.7 -0.4,-0.7 -1.8,1.7 -0.7,3.3 -0.7,3.3 -0.9,0.5 -2.6,-0.3 -2.6,-0.3 1.1,-1.9 -0.4,-2.5 -1.1,-3.4 -0.7,-0.8 -0.4,-1.9 -0.4,-1.9 -1.6,1.1 -1,3 -1,3 -2.1,-0.7 -3.5,2 -4.7,3.1 -1.2,1.1 -2.3,0.4 -2.3,0.4 0,0 0.7,1.7 2.5,0.8 1.8,-0.9 2.6,-2.2 7.1,-0.7 3.4,1.1 5.3,-1 5.6,-1.4 -1.3,2.4 0.3,3.7 2.3,3.7 0,0 0.9,0 2.5,-1.5 1.7,-1.6 3.4,-2.3 4.7,-2.6 3.2,1.9 5.4,0.8 6.5,-0.1 0.8,0.6 2.4,0.5 2.4,0.5 -0.1,0.2 -0.5,2.5 1.5,1.1 0.9,-0.7 2.1,-1.2 3.1,-1.5 l 18.9,0 c 1.4,0 13.8,-0.1 25.8,-0.2 6,-0.1 11.9,-0.2 16.3,-0.2 2.2,0 4,-0.1 5.3,-0.2 1.3,-0.1 1.9,-0.5 1.9,-0.5 z"
             id="path265" />
        </g>
      </g>
      <g
         id="g267">
        <g
           id="g269">
          <path
             inkscape:connector-curvature="0"
             d="m 211.3,132.5 c 0,0.1 0.7,0.1 1.8,0.1 1.1,0 2.9,0.1 4.9,0.1 4.1,0 9.6,0 15.3,0 11.4,-0.1 23.7,-0.2 26.7,-0.2 0.2,0 0.6,0 0.6,0 0,0 0.2,0 0.6,0 0.7,0.1 1.2,0.2 1.4,0 3,0 9,0 15.9,0 1.2,0.4 2.8,1.2 3,1.3 0.3,0.2 1.8,1.2 2.4,0.9 0.6,-0.3 0,-1.6 0,-1.6 0,0 0.5,0.2 1.4,0.3 0.4,0 0.7,-0.1 1,-0.4 1.9,1.3 3.7,1 5.1,0.5 0.9,0.4 2,0.8 3.9,1.3 0.9,0.2 1.7,0.4 2.3,0.5 l 0,0 c 1.3,1.2 3.7,2.4 4.9,1 0.8,-0.8 0.4,-2.2 0,-3.2 0.3,-0.3 0.6,-0.5 0.9,-0.5 0.4,-0.1 0.8,0.2 1.1,0.6 0,0 0.4,0.7 0.4,0.7 1.8,-1.7 0.7,-3.3 0.7,-3.3 0.9,-0.5 2.6,0.3 2.6,0.3 -1.1,1.9 0.4,2.5 1.1,3.4 0.7,0.8 0.4,1.9 0.4,1.9 1.6,-1.1 1,-3 1,-3 2.1,0.7 3.5,-2 4.7,-3.1 1.2,-1.1 2.3,-0.4 2.3,-0.4 0,0 -0.7,-1.7 -2.5,-0.8 -1.8,0.9 -2.6,2.2 -7.1,0.7 -3.4,-1.1 -5.3,1 -5.6,1.4 1.3,-2.4 -0.3,-3.7 -2.3,-3.7 0,0 -0.9,0 -2.5,1.5 -1.7,1.6 -3.4,2.3 -4.7,2.6 -3.2,-1.9 -5.4,-0.8 -6.5,0.1 -0.8,-0.6 -2.4,-0.5 -2.4,-0.5 0.1,-0.2 0.5,-2.5 -1.5,-1.1 -0.9,0.7 -2.1,1.2 -3.1,1.5 l -18.9,0 c -1.4,0 -13.8,0.1 -25.8,0.2 -6,0.1 -11.9,0.2 -16.3,0.2 -2.2,0 -4,0.1 -5.3,0.2 -1.1,0.4 -1.9,0.5 -1.9,0.5 z"
             id="path271" />
        </g>
      </g>
    </g>
    <line
       style="fill:none;stroke:#000000;stroke-width:0.63825268;stroke-miterlimit:10"
       class="st3"
       x1="198.03555"
       y1="414.83585"
       x2="198.03555"
       y2="181.73264"
       id="line273" />
    <line
       style="fill:none;stroke:#000000;stroke-width:0.63825268;stroke-miterlimit:10"
       class="st3"
       x1="202.34216"
       y1="346.01123"
       x2="251.23468"
       y2="346.01123"
       id="line275" />
    <line
       style="fill:none;stroke:#000000;stroke-width:0.63825268;stroke-miterlimit:10"
       class="st3"
       x1="202.34216"
       y1="252.22963"
       x2="251.23468"
       y2="252.22963"
       id="line277" />
    <text
       transform="matrix(0,-1.007784,0.99227612,0,0,0)"
       id="text279"
       x="-405.22073"
       y="160.79849"
       style="font-size:15.31806469px">
      <tspan
         x="-405.22073"
         y="160.79849"
         class="st17 st18 st8"
         id="tspan281"
         style="font-size:28.08311844px;font-family:'SnellRoundhand Script';letter-spacing:1.27650535">“When love is real,</tspan>
      <tspan
         x="-380.32889"
         y="185.05209"
         class="st17 st18 st8"
         id="tspan283"
         style="font-size:28.08311844px;font-family:'SnellRoundhand Script';letter-spacing:1.27650535">it finds a way.”</tspan>
    </text>
    <line
       style="fill:none;stroke:#000000;stroke-width:0.63825268;stroke-miterlimit:10"
       class="st3"
       x1="619.19531"
       y1="415.60773"
       x2="619.19531"
       y2="182.50449"
       id="line285" />
    <path
       style="color:#000000;font-style:normal;font-variant:normal;font-weight:normal;font-stretch:normal;font-size:medium;line-height:normal;font-family:sans-serif;text-indent:0;text-align:start;text-decoration:none;text-decoration-line:none;text-decoration-style:solid;text-decoration-color:#000000;letter-spacing:normal;word-spacing:normal;text-transform:none;direction:ltr;block-progression:tb;writing-mode:lr-tb;baseline-shift:baseline;text-anchor:start;white-space:normal;clip-rule:nonzero;display:inline;overflow:visible;visibility:visible;opacity:1;isolation:auto;mix-blend-mode:normal;color-interpolation:sRGB;color-interpolation-filters:linearRGB;solid-color:#000000;solid-opacity:1;fill:#000000;fill-opacity:1;fill-rule:nonzero;stroke:none;stroke-width:0.63961637;stroke-linecap:butt;stroke-linejoin:miter;stroke-miterlimit:10;stroke-dasharray:none;stroke-dashoffset:0;stroke-opacity:1;color-rendering:auto;image-rendering:auto;shape-rendering:auto;text-rendering:auto;enable-background:accumulate"
       d="m 269.92188,47.923828 c -0.84435,0 -1.52735,0.685401 -1.99024,1.650391 -0.17394,0.36262 -0.3098,0.783438 -0.42578,1.228515 -0.72272,-0.191207 -1.52902,-0.30664 -2.39648,-0.30664 -1.4068,0 -2.68299,0.277107 -3.63477,0.748047 -0.79491,0.39331 -1.38806,0.944053 -1.56445,1.609375 l -72.44532,-0.16211 -0.26953,-0.289062 c -1.25567,-1.34424 -2.68384,-1.818185 -4.08984,-1.765625 -1.406,0.0526 -2.78703,0.579126 -4.15625,1.128906 -1.36922,0.54978 -2.7292,1.128429 -4.0332,1.355469 -1.30401,0.22704 -2.52882,0.126288 -3.77735,-0.669922 l -0.54492,0.83789 c 0.003,0.002 0.005,0.0019 0.008,0.0039 l 0,0.002 c 0.004,0.003 0.009,9.06e-4 0.0137,0.0039 2.95878,1.95599 5.8872,3.096044 8.70118,3.146484 2.72052,0.04871 5.31181,-0.954685 7.60937,-3.115234 l 72.94727,0.16211 c 0.11105,0.742844 0.73882,1.354378 1.60156,1.78125 0.95178,0.47094 2.22797,0.75 3.63477,0.75 0.86664,0 1.67232,-0.117163 2.39453,-0.308594 0.11603,0.445618 0.25361,0.867469 0.42773,1.230468 0.46289,0.964991 1.14589,1.650391 1.99024,1.650391 0.84433,0 1.52734,-0.6854 1.99023,-1.650391 0.15857,-0.330566 0.28576,-0.711475 0.39648,-1.111328 0.59594,0.12002 1.24151,0.189454 1.91993,0.189454 1.40679,0 2.68298,-0.27906 3.63476,-0.75 0.84555,-0.418369 1.46852,-1.013499 1.59766,-1.736329 l 72.29492,0.158203 c 2.30341,2.175927 4.90293,3.183699 7.63281,3.134766 2.81248,-0.0504 5.73813,-1.186545 8.69531,-3.140625 0.006,-0.004 0.0131,-0.0038 0.0195,-0.0078 l -0.002,-0.002 c 0.003,-0.002 0.005,-0.0019 0.008,-0.0039 l -0.54493,-0.83789 c -0.003,0.002 -0.005,0.0019 -0.008,0.0039 -1.24571,0.79146 -2.46836,0.890612 -3.76953,0.664062 -1.304,-0.22703 -2.66203,-0.803735 -4.03125,-1.353515 -1.36922,-0.54978 -2.7522,-1.076347 -4.1582,-1.128906 -1.40601,-0.0526 -2.83417,0.421385 -4.08985,1.765624 l -0.25,0.267579 -71.8164,-0.160157 c -0.1612,-0.684984 -0.76586,-1.250442 -1.57813,-1.652343 -0.95178,-0.47094 -2.22797,-0.748047 -3.63476,-0.748047 -0.67842,0 -1.32399,0.06795 -1.91993,0.1875 -0.11069,-0.399596 -0.238,-0.778993 -0.39648,-1.109375 -0.46289,-0.96499 -1.1459,-1.650391 -1.99023,-1.650391 z"
       transform="translate(121.15016,164.36567)"
       id="line287"
       inkscape:connector-curvature="0"
       sodipodi:nodetypes="sscssccccssccccccccsscssscssccsccccccssccccsscsss" />
    <g
       id="g299"
       transform="matrix(1.2666458,0,0,1.2864417,117.60355,160.50634)">
      <path
         style="fill:none;stroke:#000000;stroke-width:0.5;stroke-miterlimit:10"
         inkscape:connector-curvature="0"
         class="st3"
         d="m 333.3,163.5 0,-106.3 c 0,0 10.4,-0.3 11.3,-11.2 l 5.7,0 c 0,0 -1.5,8.8 10.6,11.2 l 0,106.4 c 0,0 -11.3,0.5 -11,11 l -5.7,0 c -0.6,-11.2 -10.9,-11.1 -10.9,-11.1 z"
         id="path301" />
      <path
         style="fill:none;stroke:#000000;stroke-width:0.5;stroke-miterlimit:10"
         inkscape:connector-curvature="0"
         class="st3"
         d="m 335.4,161.5 0,-102.7 c 0,0 8.8,-0.6 10.9,-10.8 l 1.7,0 c 0,0 0.5,8.5 10.9,10.8 l 0,102.7 c 0,0 -9.2,0.6 -10.9,10.8 l -1.7,0 c -2,-10.3 -10.9,-10.8 -10.9,-10.8 z"
         id="path303" />
    </g>
    <rect
       style="fill:none"
       x="268.20773"
       y="188.93671"
       class="st1"
       width="246.36261"
       height="18.910692"
       id="rect305" />
    <text
       style="font-size:12.76505375px;font-family:Didot;letter-spacing:1.27650535"
       transform="scale(0.99227612,1.007784)"
       class="st12 st19 st8"
       id="text307"
       x="276.67914"
       y="196.6266">You’re Invited to the Wedding of</text>
  </g>
  <style
     id="style4"
     type="text/css">
	.st0{fill:none;stroke:#000000;stroke-miterlimit:10;}
	.st1{fill:none;}
	.st2{fill-rule:evenodd;clip-rule:evenodd;}
	.st3{fill:none;stroke:#000000;stroke-width:0.5;stroke-miterlimit:10;}
	.st4{fill:#FFFFFF;stroke:#000000;stroke-width:0.25;stroke-miterlimit:10;}
	.st5{stroke:#000000;stroke-width:0.5;stroke-miterlimit:10;}
	.st6{font-family:'Didot';font-weight:bold;}
	.st7{font-size:22.5px;}
	.st8{letter-spacing:1;}
	.st9{font-size:15px;}
	.st10{font-family:'SnellRoundhand BoldScript';}
	.st11{font-size:26.25px;}
	.st12{font-family:'Didot';}
	.st13{font-size:11.25px;}
	.st14{font-size:9px;}
	.st15{font-size:12px;}
	.st16{font-size:13.5px;}
	.st17{font-family:'SnellRoundhand Script';}
	.st18{font-size:22px;}
	.st19{font-size:10px;}
</style>
</svg>
