<svg viewBox="-15 0 494 494.95405" xmlns="http://www.w3.org/2000/svg"><path d="m368.355469 434.574219-28.976563 26.777343c-30.394531 11.050782-72.804687 21.980469-123.972656 22.433594-9.75.078125-19.1875-.222656-28.308594-.84375-58.46875-3.96875-103.5-20.96875-129.109375-32.628906 0-162.96875 75.730469-274.371094 95.117188-299.871094 4.261719-5.609375 8.3125-11.367187 12.191406-17.238281l.761719-1.160156c5.820312-8.328125 5.527344-15.320313-.660156-23.371094-23.382813-30.339844-20.5625-55.417969-20.5625-55.417969-14.109376-1.519531-22.867188-16.789062-25.480469-22.019531.8125.046875 1.652343.078125 2.511719.078125 23.25 0 40.300781 21.460938 40.300781 21.460938s11.210937-12.261719 25.609375-18.242188c14.789062 5.980469 24.53125 18.242188 24.53125 18.242188s19.628906-21.460938 40.296875-21.460938c.8125 0 1.589843-.019531 2.351562-.070312 21.6875-1.269532 24.761719-20.109376 25.1875-24.507813.050781-.460937.523438-.742187.953125-.570313 3.636719 1.410157 9.109375 4.089844 14.457032 9.070313 5.640624 5.25 8.722656 10.796875 10.3125 14.25-1.238282 3.097656-3.488282 7-6.75 11.1875-4.449219 5.722656-11.019532 11.660156-19.550782 12.582031 0 0 1.03125 9.1875-3.332031 23.167969-2.847656 9.121094-8 20.28125-17.226563 32.25-5.488281 7.121094-6.339843 13.421875-2.433593 20.542969.5.929687 1.09375 1.867187 1.761719 2.828125l.769531 1.160156c4.160156 6.300781 8.5625 12.421875 13.101562 18.441406 2.109375 2.796875 4.179688 5.617188 6.199219 8.46875l9.898438 14.621094c21.550781 33.457031 37.640624 69.628906 49.449218 106.589844 0 0 .371094 1.339843 1.03125 3.777343l.011719.042969c5.789063 21.359375 33.597656 125.957031 29.558594 149.429688zm0 0" fill="#edd7d6"/><path d="m318.21875 434.574219-28.980469 26.777343c-25.960937 9.441407-60.679687 18.792969-102.140625 21.589844-7.078125.492188-14.359375.78125-21.828125.84375-72.273437.617188-127.8125-19.992187-157.421875-33.472656 0-162.96875 75.730469-274.371094 95.121094-299.871094 4.257812-5.609375 8.308594-11.367187 12.1875-17.238281l.761719-1.160156c5.820312-8.328125 5.53125-15.320313-.660157-23.371094-23.378906-30.339844-20.558593-55.417969-20.558593-55.417969-17.0625-1.839844-26.300781-23.769531-26.300781-23.769531 1.089843-3.152344 3.621093-9.03125 9.238281-14.453125 5.941406-5.71875 12.359375-8.039062 15.871093-9.007812.398438-.109376.800782.160156.871094.570312.960938 6.308594 3.328125 14.199219 9.730469 19.257812 3.597656 2.851563 8.527344 4.960938 15.25 5.382813.808594.046875 1.648437.078125 2.507813.078125 23.25 0 40.300781 21.460938 40.300781 21.460938s11.210937-12.261719 25.609375-18.242188c4.652344-1.9375 9.640625-3.21875 14.691406-3.21875 23.820312 0 27.097656-20.03125 27.539062-24.578125.050782-.460937.519532-.742187.949219-.570313 3.640625 1.410157 9.109375 4.089844 14.460938 9.070313 5.640625 5.25 8.71875 10.796875 10.308593 14.25-.21875.558594-.480468 1.148437-.769531 1.757813-1.320312 2.761718-3.308593 6-5.980469 9.429687-4.449218 5.722656-11.019531 11.660156-19.546874 12.582031 0 0 1.027343 9.1875-3.332032 23.167969-2.851562 9.121094-8 20.28125-17.230468 32.25-5.488282 7.121094-6.339844 13.421875-2.429688 20.542969.5.929687 1.089844 1.867187 1.761719 2.828125l.769531 1.160156c4.160156 6.300781 8.558594 12.421875 13.097656 18.441406 2.113282 2.796875 4.179688 5.617188 6.203125 8.46875l9.898438 14.621094c21.550781 33.457031 37.640625 69.628906 49.449219 106.589844 0 0 .371093 1.339843 1.03125 3.777343l.007812.042969c5.789062 21.359375 33.601562 125.957031 29.5625 149.429688zm0 0" fill="#f6a8a4"/><path d="m276.257812 465.304688c.757813-41.925782-1.972656-80.710938-6.214843-114.613282-8.546875-68.277344-34.285157-133.371094-74.925781-188.898437-15.261719-20.855469-25.945313-41.179688-14.988282-46.800781 39.339844-20.179688 43.066406-48.589844 43.066406-48.589844l3.363282 7.589844c-.140625.800781-.292969 1.609374-.460938 2.429687-1.949218 9.390625-6.28125 20.042969-14.78125 31.070313-4.859375 6.300781-6.507812 14.28125-4.878906 21.722656.71875 3.316406 2.089844 6.519531 4.121094 9.429687l27.609375 36.089844c21.550781 33.457031 37.640625 69.628906 49.449219 106.589844 0 0 .367187 1.339843 1.027343 3.777343l16 53.480469 26 106.382813zm0 0" fill="#f66e6a"/><path d="m276.257812 465.304688s-1.3125.410156-3.738281 1.117187c-13.773437 4-63.402343 17.359375-111.832031 17.359375-36.378906 0-73.441406-7.539062-95.460938-12.988281-12.449218-3.078125-20.097656-5.488281-20.097656-5.488281s115.558594-62.351563 115.558594-239.542969c0 25.710937 2.429688 49 6.589844 70.03125 14.769531 74.671875 51.289062 120.890625 78 145.839843 17.628906 16.46875 30.980468 23.671876 30.980468 23.671876zm0 0" fill="#f66e6a"/><path d="m287.425781 476.484375s-58.609375 18.46875-115.558593 18.46875c-56.960938 0-115.570313-18.46875-115.570313-18.46875s3.359375-1.8125 8.929687-5.691406c23.191407-16.167969 84.75-68.238281 102.050782-175 14.769531 74.671875 51.289062 120.890625 78 145.839843 10.269531 10.992188 19.828125 19.152344 27.238281 24.792969 9.058594 6.90625 14.910156 10.058594 14.910156 10.058594zm0 0" fill="#f5ecdb"/><path d="m453.476562 238.191406c-6.660156 13.601563-14.410156 14.542969-14.410156 68.550782h-11.910156v-48.238282c0-8.121094.28125-16.039062-4.429688-22.648437l18.648438-4.261719c-6.480469-1.371094-12.738281.46875-18.648438 4.261719-17.699218 11.359375-32.191406 40.269531-39.839843 52.828125-5.449219 8.941406-13.851563 17.8125-23.039063 17.8125l-11.023437.25h-.378907c-18.75-.019532-37.410156-2.492188-55.597656-7.050782l-8.59375-2.148437c-12.949218-3.511719-7.726562-9.0625-3.058594-12.941406 4.460938-3.710938 13.691407-7.910157 32.570313-12.808594l.148437-.050781 30.28125-11.089844c8.207032-2.261719 14.648438-9.089844 20.648438-16.761719 14.988281-19.160156 45.269531-51.890625 66.929688-62.601562 1.550781-.769531 3.242187-1.097657 4.910156-1.019531 2.160156.089843 4.28125.878906 6 2.339843 8.882812 7.550781 25.09375 26.417969 10.792968 55.578125zm0 0" fill="#ef9a60"/><path d="m436.6875 180.273438-60.890625 76.917968c-13.601563 17.183594-33.800781 24.644532-52.882813 18.78125-3.769531-1.148437-5.636718-1.667968-9.148437-4 0 0 .050781-.078125.148437-.230468l30.28125-11.089844c8.210938-2.257813 14.652344-9.089844 20.652344-16.757813 14.988282-19.160156 45.269532-51.890625 66.929688-62.601562 1.546875-.769531 3.242187-1.101563 4.910156-1.019531zm0 0" fill="#f5ecdb"/><path d="m279.214844 306.75h178.320312v47.878906h-178.320312zm0 0" fill="#f5ecdb"/><path d="m344.855469 306.75h47.039062v47.878906h-47.039062zm0 0" fill="#f6a8a4"/><path d="m288.617188 354.625h159.515624v125.226562h-159.515624zm0 0" fill="#f5ecdb"/><path d="m447.378906 354.625v83.289062c0-34-28.632812-50.601562-61.761718-58.421874-12.121094-2.859376-24.832032-4.550782-36.972657-5.488282-33.398437-2.582031-62.398437.527344-62.398437.527344v-19.90625zm0 0" fill="#e2a176"/><path d="m348.402344 350.59375h39.945312v129.257812h-39.945312zm0 0" fill="#f6a8a4"/><path d="m385.617188 355.582031v23.910157c-12.121094-2.859376-24.832032-4.550782-36.972657-5.488282v-18.421875zm0 0" fill="#f66e6a"/><path d="m119.003906 357.539062c8.230469-17.597656 14.925782-36.523437 19.894532-56.261718l-11.636719-2.929688c-4.785157 18.996094-11.21875 37.199219-19.128907 54.105469-.605468 1.296875-1.21875 2.578125-1.835937 3.851563l10.792969 5.246093c.640625-1.324219 1.28125-2.660156 1.914062-4.011719zm0 0"/><path d="m90.101562 385.039062 10.074219 6.523438c3.722657-5.746094 7.296875-11.742188 10.621094-17.820312l-10.53125-5.757813c-3.179687 5.816406-6.597656 11.554687-10.164063 17.054687zm0 0"/><path d="m154.691406 189.703125h12v17.910156h-12zm0 0"/><path d="m454.964844 247.789062c1.269531-2.097656 2.585937-4.269531 3.898437-6.949218 16.355469-33.355469-3.148437-55.027344-12.296875-62.792969-4.863281-4.132813-11.710937-4.96875-17.453125-2.128906-24.125 11.925781-55.679687 47.261719-68.996093 64.277343-5.101563 6.519532-10.75 12.808594-17.511719 14.667969l-30.625 11.199219c-9.0625 2.355469-16.363281 4.667969-22.125 7.011719-12.4375-37.253907-28.574219-71.40625-48.015625-101.589844l-10.085938 6.496094c19.210938 29.832031 35.109375 63.699219 47.316406 100.710937-.605468.429688-1.1875.859375-1.710937 1.296875-2.539063 2.109375-8.480469 7.046875-7.050781 13.605469.738281 3.402344 3.175781 5.660156 5.757812 7.152344h-3.605468v59.878906h9.398437v96.480469c-1.625.570312-3.253906 1.136719-4.886719 1.683593-7.085937-4.441406-30.390625-20.421874-53.699218-51.550781-25.8125-34.476562-56.582032-94.871093-56.582032-186.808593h-12c0 91.601562-30.5625 151.863281-56.199218 186.289062-23.328126 31.328125-46.929688 47.5625-54.082032 52.0625-10.835937-3.617188-21.496094-7.734375-31.917968-12.347656 1.210937-162.296875 78.324218-271.902344 93.882812-292.363282 4.148438-5.460937 8.324219-11.371093 12.429688-17.582031l.714843-1.085937c7.183594-10.335938 6.898438-20.277344-.878906-30.394532-21.421875-27.792968-19.371094-50.890624-19.351563-51.085937l.671876-5.988281-5.992188-.648438c-10.59375-1.140625-17.855469-13.144531-20.40625-18.054687 1.28125-2.933594 3.402344-6.539063 6.867188-9.875 2.640624-2.542969 5.4375-4.320313 8-5.554688 2.054687 7.195313 5.601562 12.816407 10.585937 16.761719 5.675781 4.476562 12.902344 6.75 21.480469 6.75 19.992187 0 35.457031 19.007812 35.601562 19.191406l4.375 5.507813 4.75-5.191407c4.964844-5.425781 21.085938-19.507812 35.875-19.507812 18.726563 0 28.515625-11.109375 32.074219-22.753906 2.164063 1.277344 4.5 2.933594 6.785156 5.066406 3.117188 2.902344 5.714844 6.246094 7.746094 9.96875-.953125 1.839844-2.472656 4.359375-4.832031 7.394531-3.34375 4.296875-8.742188 9.574219-15.460938 10.296875l-5.917968.675782.597656 5.925781c.023437.230469 2.070312 23.328125-19.347656 51.125-7.785157 10.105469-8.070313 20.050781-.878907 30.40625l.726563 1.089843c3.890625 5.890626 8.246094 12.023438 13.316406 18.746094 2.152344 2.855469 4.203125 5.65625 6.097656 8.328125l9.789063-6.941406c-1.960938-2.765625-4.082031-5.664063-6.304688-8.613281-4.921875-6.519532-9.132812-12.453125-12.890625-18.144532l-.851562-1.273437c-4.273438-6.128906-4.148438-10.238281.503906-16.273437 18.332031-23.792969 21.496094-44.710938 21.871094-54.273438 6.613281-2.121094 12.832031-6.78125 18.222656-13.707031 3.398438-4.371094 6.023438-8.746094 7.585938-12.644531l.957031-2.394532-1.078125-2.34375c-2.824219-6.121094-6.75-11.546875-11.671875-16.132812-4.730469-4.398438-10.394531-7.953125-16.34375-10.257813-1.933594-.761719-4.148438-.57812475-5.929688.496094-1.773437 1.070313-2.96875 2.945313-3.199219 5.078125-.558593 5.757812-3.773437 19.15625-21.566406 19.15625-16.875 0-32.546875 12.035156-40.074218 18.859375-7.046876-6.957031-21.832032-18.859375-40.527344-18.859375-5.8125 0-10.539063-1.402344-14.039063-4.167969-3.898437-3.082031-6.425781-8.28125-7.519531-15.453125l-.015625-.105468c-.320313-1.871094-1.417969-3.523438-3.015625-4.542969-1.589844-1.011719-3.542969-1.304688-5.367188-.804688-6.9375 1.917969-13.3125 5.539063-18.4375 10.476563-6.113281 5.894531-9.21875 12.394531-10.746093 16.804687l-.75 2.171875.890625 2.121094c.394531.933594 8.996094 20.910156 25.765625 26.257812.375 9.5625 3.542969 30.476563 21.867187 54.257813 4.648438 6.046875 4.777344 10.15625.5 16.277344l-.847656 1.289062c-3.949219 5.96875-7.972656 11.664063-11.960938 16.914063-16.085937 21.160156-96.34375 135.226562-96.34375 303.503906v3.859375l3.515626 1.601563c48.945312 22.28125 103.085937 34.023437 156.800781 34.023437 1.050781 0 2.105469-.003906 3.15625-.015625 40.195312-.351562 79.816406-7.070312 117.910156-19.96875v16.035156h171.519531v-125.222656h9.402344v-59.878906h-17.675781c.441406-37.386719 5.019531-44.972656 9.859375-52.957032zm-291.117188 229.996094c-35.246094.304688-70.742187-4.636718-104.777344-14.449218 11.359376-8.269532 29.953126-23.945313 48.644532-48.902344 17.144531-22.902344 30.804687-48.925782 40.59375-77.34375 5.246094-15.238282 9.375-31.1875 12.382812-47.753906 3.007813 16.566406 7.136719 32.515624 12.382813 47.753906 9.789062 28.417968 23.449219 54.4375 40.597656 77.34375 18.707031 24.980468 37.320313 40.664062 48.675781 48.929687-32.039062 9.277344-65.066406 14.125-98.5 14.421875zm221.292969-129.160156h-35.039063v-35.878906h35.039063zm-5.519531 106.320312h-24v-94.316406h24zm-95.160156-142.195312h53.640624v35.878906h-53.640624zm96.972656-12c2.964844-3.347656 5.203125-6.691406 6.578125-8.945312 1.273437-2.09375 2.679687-4.535157 4.308593-7.363282 6.867188-11.925781 16.753907-29.101562 28.050782-39.226562.808594 3.558594.800781 7.59375.792968 12.007812v43.527344zm66.65625-65.195312c-1.078125 2.203124-2.203125 4.054687-3.390625 6.015624-5.535157 9.136719-10.789063 17.804688-11.539063 55.523438l.003906-39.851562c.011719-6.003907.019532-12.613282-2.347656-18.855469 3.238282-1.253907 6.316406-1.558594 9.320313-.921875l2.476562-11.742188c-7.589843-1.601562-15.375.105469-23.125 5.078125-16.070312 10.308594-29.007812 32.78125-37.570312 47.652344-1.589844 2.757813-2.957031 5.140625-4.15625 7.109375-5.605469 9.207031-12.472657 14.925781-17.917969 14.925781l-11.089844.257813h-.304687c-17.828125-.023438-36.042969-2.335938-54.140625-6.871094l-8.53125-2.140625c-1.128906-.308594-1.976563-.601563-2.605469-.859375.441406-.433594 1.039063-.980469 1.855469-1.65625 4.148437-3.445312 13.5-7.132812 27.800781-10.96875 2.808594 1.585938 5.015625 2.273438 7.824219 3.132812l.507812.15625c4.914063 1.511719 9.90625 2.246094 14.871094 2.246094 16.519531 0 32.6875-8.152344 44.472656-23.039062l58.25-73.589844c.015625.011719.027344.023438.042969.035156 8.703125 7.390625 21.480469 23.507813 9.292969 48.363282zm-102.046875 30.808593c9.988281-2.847656 17.210937-10.699219 23.527343-18.773437 9.394532-12.011719 24.71875-29.230469 39.921876-42.804688l-38.398438 48.511719c-10.421875 13.167969-24.941406 19.765625-39.214844 18.242187zm-7.941407 94.261719h5.519532v94.320312h-49.761719v-94.320312zm-44.242187 113.226562v-6.90625h49.761719v6.90625zm61.761719 0v-6.90625h24v6.90625zm36 0v-6.90625h49.757812v6.90625zm49.757812-18.90625h-49.757812v-94.316406h49.757812zm9.402344-106.320312h-53.644531v-35.878906h53.644531zm0 0"/><path d="m315.789062 205.808594h42v12h-42zm0 0"/><path d="m295.121094 205.808594h12.667968v12h-12.667968zm0 0"/><path d="m387.078125 127.433594h12v50.078125h-12zm0 0"/><path d="m372.152344 182.058594-8.542969 8.429687-10.101563-10.238281 8.539063-8.429688zm0 0"/><path d="m326.582031 135.917969 28.53125 28.910156-8.542969 8.429687-28.527343-28.910156zm0 0"/><path d="m387.078125 101.398438h12v16.359374h-12zm0 0"/></svg>