<svg viewBox="-5 0 467 467.60955" xmlns="http://www.w3.org/2000/svg"><g fill="#edd7d5"><path d="m433.875 338.195312-19.628906-6.65625c-.777344-.261718-1.636719-.125-2.296875.367188l-16.609375 12.394531c-1.65625 1.238281-4.019532.035157-3.992188-2.035156l.265625-20.722656c.011719-.824219-.382812-1.597657-1.054687-2.074219l-16.921875-11.964844c-1.691407-1.195312-1.277344-3.8125.703125-4.425781l19.789062-6.152344c.785156-.246093 1.398438-.859375 1.644532-1.644531l6.152343-19.789062c.613281-1.980469 3.230469-2.394532 4.425781-.703126l11.964844 16.921876c.476563.671874 1.25 1.066406 2.074219 1.054687l20.722656-.265625c2.070313-.023438 3.269531 2.335938 2.03125 3.996094l-12.394531 16.609375c-.492188.65625-.625 1.515625-.363281 2.296875l6.65625 19.625c.664062 1.960937-1.207031 3.832031-3.167969 3.167968zm0 0"/><path d="m400.21875 45.199219-5.136719 15.148437c-.261719.769532-.128906 1.617188.355469 2.269532l9.570312 12.820312c1.222657 1.640625.035157 3.972656-2.011718 3.945312l-15.996094-.203124c-.8125-.011719-1.578125.378906-2.046875 1.042968l-9.234375 13.058594c-1.183594 1.671875-3.765625 1.261719-4.375-.691406l-4.75-15.273438c-.238281-.777344-.847656-1.386718-1.625-1.625l-15.273438-4.75c-1.953124-.609375-2.363281-3.191406-.691406-4.375l13.058594-9.234375c.664062-.46875 1.054688-1.238281 1.042969-2.046875l-.203125-15.996094c-.023438-2.046874 2.308594-3.234374 3.945312-2.011718l12.820313 9.566406c.652343.488281 1.5.621094 2.269531.359375l15.148438-5.136719c1.9375-.65625 3.789062 1.195313 3.132812 3.132813zm0 0"/><path d="m158.960938 80.023438-17.089844-5.796876c-.8125-.273437-1.707032-.132812-2.390625.378907l-14.464844 10.796875c-1.726563 1.289062-4.183594.035156-4.15625-2.117188l.230469-18.046875c.011718-.855469-.398438-1.664062-1.097656-2.15625l-14.738282-10.421875c-1.757812-1.246094-1.328125-3.964844.730469-4.605468l17.234375-5.359376c.816406-.253906 1.457031-.894531 1.710938-1.710937l5.359374-17.234375c.640626-2.058594 3.359376-2.488281 4.605469-.726562l10.421875 14.730468c.492188.699219 1.300782 1.109375 2.15625 1.101563l18.046875-.230469c2.15625-.027344 3.40625 2.425781 2.117188 4.15625l-10.792969 14.464844c-.511719.683594-.65625 1.578125-.378906 2.390625l5.796875 17.09375c.691406 2.035156-1.257813 3.984375-3.300781 3.292969zm0 0"/></g><path d="m405.261719 63.695312-5.492188 16.191407c-.011719.042969-.003906.09375.023438.128906l10.222656 13.703125c.070313.09375.003906.226562-.113281.222656l-17.09375-.21875c-.046875 0-.089844.023438-.117188.0625l-9.871094 13.957032c-.066406.09375-.214843.070312-.246093-.039063l-5.074219-16.328125c-.015625-.042969-.050781-.078125-.09375-.089844l-16.328125-5.078125c-.109375-.035156-.132813-.179687-.039063-.246093l13.960938-9.871094c.035156-.027344.058594-.070313.058594-.117188l-.21875-17.09375c0-.117187.132812-.183594.222656-.117187l13.703125 10.226562c.039063.027344.085937.035157.128906.019531l16.191407-5.488281c.109374-.039062.214843.066407.175781.175781zm0 0" fill="#ef9a60"/><path d="m444.683594 344.699219-20.5625-6.972657c-.054688-.019531-.117188-.011718-.164063.023438l-17.398437 12.984375c-.117188.089844-.285156.003906-.285156-.144531l.277343-21.707032c0-.058593-.027343-.117187-.074219-.148437l-17.726562-12.535156c-.121094-.085938-.089844-.269531.050781-.316407l20.730469-6.441406c.058594-.019531.101562-.0625.117188-.117187l6.445312-20.734375c.042969-.140625.230469-.167969.316406-.046875l12.535156 17.722656c.03125.050781.085938.078125.144532.078125l21.710937-.277344c.144531-.003906.230469.164063.144531.28125l-12.984374 17.402344c-.035157.046875-.046876.105469-.027344.164062l6.972656 20.558594c.050781.140625-.082031.273438-.222656.226563zm0 0" fill="#f66e6a"/><path d="m180.9375 68.628906-22.898438-7.765625c-.0625-.019531-.128906-.007812-.179687.03125l-19.378906 14.460938c-.132813.097656-.320313 0-.316407-.164063l.308594-24.175781c0-.066406-.027344-.128906-.082031-.164063l-19.742187-13.960937c-.132813-.097656-.101563-.304687.058593-.351563l23.085938-7.175781c.0625-.023437.113281-.070312.132812-.132812l7.175781-23.089844c.046876-.15625.253907-.1875.351563-.054687l13.960937 19.742187c.039063.050781.097657.082031.164063.082031l24.175781-.308594c.164063 0 .261719.1875.164063.316407l-14.460938 19.378906c-.039062.050781-.050781.121094-.03125.183594l7.765625 22.894531c.050782.160156-.097656.304688-.253906.253906zm0 0" fill="#f66e6a"/><path d="m276.324219 122.113281h10.554687v10.558594h-10.554687zm0 0" fill="#ef9a60"/><path d="m106.957031 138.308594h10.554688v10.554687h-10.554688zm0 0" fill="#ef9a60"/><path d="m433.378906 261.378906h10.554688v10.554688h-10.554688zm0 0" fill="#ef9a60"/><path d="m216.507812 251.21875c-46.6875-46.6875-95.167968-73.90625-108.28125-60.796875-13.109374 13.113281 14.109376 61.59375 60.796876 108.28125 46.691406 46.6875 95.167968 73.910156 108.28125 60.796875 13.113281-13.113281-14.109376-61.589844-60.796876-108.28125zm0 0" fill="#f6a8a4"/><path d="m276.6875 360.117188c-18.78125 8.46875-61.339844-14.328126-108.011719-61-46.671875-46.671876-70.105469-89.863282-61-108.015626l-14.933593 38.152344-86.570313 229.273438c-.789063 2.089844 1.253906 4.128906 3.339844 3.339844l228.910156-86.429688zm0 0" fill="#ef9a60"/><path d="m70.183594 444.4375c-20.949219-1.773438-36.484375-10.304688-47.832032-16.539062-1.332031-.730469-2.597656-1.425782-3.800781-2.070313l5.660157-10.582031c1.242187.664062 2.546874 1.382812 3.917968 2.136718 10.402344 5.714844 24.652344 13.539063 43.0625 15.097657zm0 0" fill="#3c5a6d"/><path d="m122.875 348.855469c-29.761719 0-52.253906-12.511719-63.628906-20.558594l6.929687-9.796875c17.578125 12.433594 64.941407 36.746094 124.925781-5.953125l6.960938 9.777344c-27.933594 19.878906-53.492188 26.53125-75.1875 26.53125zm0 0" fill="#3c5a6d"/><path d="m183.332031 312.410156c-60.382812 36.800782-104.316406 10.265625-120.667969-3.144531l16.089844-42.609375c10.648438 9.21875 33.710938 22.65625 66.953125 6.808594zm0 0" fill="#f5ecdb"/><path d="m269.589844 362.394531-.078125 1-181.019531 68.339844c-27.910157-3.121094-50.082032-13.980469-63.601563-22.402344l18.050781-47.808593.980469-.601563c26.699219 17.761719 99.226563 53.210937 183.9375-11.988281zm0 0" fill="#f5ecdb"/><path d="m252.164062 30.144531h10.558594v10.554688h-10.558594zm0 0"/><path d="m325.355469 65.601562h10.558593v10.554688h-10.558593zm0 0"/><path d="m335.125 255.171875h10.554688v10.558594h-10.554688zm0 0"/><path d="m367.867188 175.5625h10.554687v10.554688h-10.554687zm0 0"/><path d="m261.359375 317.363281c12.734375 21.257813 14.828125 34.644531 11.386719 38.089844-.242188.242187-.5625.46875-.960938.667969l-1.078125.40625c-4.300781 1.214844-14.195312-.046875-32.144531-10.183594-19.941406-11.261719-43.148438-29.691406-65.347656-51.890625-22.199219-22.199219-40.625-45.410156-51.886719-65.351563-8.941406-15.832031-10.976563-25.394531-10.5-30.382812l1.457031-3.859375c2.75-2.585937 13.699219-3.066406 37.757813 11.292969l6.152343-10.304688c-25.351562-15.132812-43.492187-18.382812-52.464843-9.410156-2.542969 2.539062-4.113281 5.765625-4.734375 9.644531l-98.136719 259.898438c-1.191406 3.15625-.425781 6.730469 1.957031 9.113281 1.640625 1.640625 3.84375 2.515625 6.082032 2.515625 1.019531 0 2.046874-.179687 3.03125-.554687l259.703124-98.050782 3.1875-1.203125c.480469-.15625.949219-.335937 1.40625-.53125l2.285157-.863281-.09375-.246094c1.015625-.625 1.957031-1.363281 2.8125-2.222656 9.011719-9.007812 5.695312-27.246094-9.578125-52.742188zm-12.289063 47.332031-161.289062 60.894532c-23.40625-2.859375-42.515625-11.316406-55.507812-18.832032l14.664062-38.84375c17.09375 10.234376 45.183594 22.792969 80.058594 22.792969 29.691406 0 64.300781-9.109375 101.210937-36.515625 7.351563 4.417969 14.378907 7.992188 20.863281 10.503906zm-197.820312-8.203124 14.207031-37.617188c12.121094 8.398438 31.820313 18.292969 57.375 18.292969 17.394531 0 37.503907-4.601563 59.757813-17.363281 11.582031 10.320312 23.414062 19.703124 34.765625 27.429687-74.613281 52.984375-138.25 26.476563-166.105469 9.257813zm122.035156-45.242188c-49.894531 26.863281-86.847656 8.308594-103.441406-3.996094l11.691406-30.957031c8.164063 5.457031 19.675782 10.554687 34.21875 10.554687 8.4375 0 17.898438-1.722656 28.308594-6.082031 6.425781 7.414063 13.351562 14.851563 20.667969 22.167969 2.8125 2.8125 5.667969 5.585938 8.554687 8.3125zm-62.40625-76.246094c6.375 11.292969 14.917969 23.542969 25.039063 36.042969-23.335938 8.371094-40.3125.835937-50.007813-6.34375l17.207032-45.566406c1.945312 4.859375 4.53125 10.148437 7.761718 15.867187zm-82.898437 183.121094c9.941406 5.589844 22.9375 11.523438 38.367187 15.558594l-51.597656 19.480468zm0 0"/><path d="m359.296875 90.824219 13.382813 4.164062 4.164062 13.394531c.703125 2.246094 2.582031 3.867188 4.910156 4.230469.324219.050781.648438.078125.96875.078125 1.976563 0 3.832032-.945312 4.996094-2.597656l8.09375-11.441406 14.015625.175781c2.324219.027344 4.476563-1.25 5.546875-3.34375 1.070312-2.097656.863281-4.570313-.546875-6.46875l-8.382813-11.230469 4.5-13.273437.003907-.007813c.75-2.226562.1875-4.644531-1.476563-6.304687-1.664062-1.664063-4.082031-2.230469-6.3125-1.476563l-13.273437 4.503906-11.230469-8.382812c-1.886719-1.40625-4.363281-1.621094-6.460938-.550781-2.097656 1.066406-3.382812 3.195312-3.355468 5.550781l.179687 14.015625-11.4375 8.089844c-1.925781 1.359375-2.894531 3.652343-2.523437 5.980469.371094 2.328124 2 4.203124 4.238281 4.894531zm19.191406-10.964844c1.628907-1.164063 2.589844-3.058594 2.566407-5.074219l-.0625-5.222656 4.171874 3.113281c1.613282 1.207031 3.71875 1.550781 5.65625.902344l4.945313-1.675781-1.679687 4.957031c-.644532 1.910156-.308594 4.015625.898437 5.632813l3.121094 4.1875-5.234375-.066407c-2-.035156-3.898438.9375-5.078125 2.59375l-3.015625 4.261719-1.546875-4.96875c-.597657-1.9375-2.105469-3.457031-4.046875-4.058594l-4.984375-1.550781zm0 0"/><path d="m456.308594 303.4375c-1.074219-2.109375-3.222656-3.378906-5.585938-3.371094l-18.644531.238282-10.773437-15.230469c-1.367188-1.933594-3.667969-2.902344-6.007813-2.53125-2.339844.371093-4.226563 2.003906-4.933594 4.269531l-5.535156 17.808594-17.8125 5.535156c-2.261719.703125-3.894531 2.59375-4.265625 4.933594-.371094 2.335937.597656 4.640625 2.535156 6.011718l15.226563 10.765626-.238281 18.648437c-.03125 2.367187 1.261718 4.511719 3.375 5.585937.894531.453126 1.855468.679688 2.8125.679688 1.300781 0 2.59375-.414062 3.683593-1.234375l14.949219-11.152344 17.660156 5.988281c2.246094.761719 4.679688.195313 6.355469-1.480468 1.675781-1.671875 2.242187-4.109375 1.480469-6.351563l-5.988282-17.664062 11.148438-14.941407c1.421875-1.902343 1.632812-4.394531.558594-6.507812zm-24.054688 22.402344 3.183594 9.386718-9.375-3.175781c-1.933594-.664062-4.066406-.328125-5.691406.894531l-7.945313 5.925782.125-9.886719c.035157-2.050781-.945312-3.976563-2.609375-5.148437l-8.09375-5.722657 9.480469-2.945312c1.929687-.605469 3.445313-2.121094 4.050781-4.0625l2.945313-9.46875 5.714843 8.082031c1.179688 1.675781 3.101563 2.652344 5.132813 2.621094l9.910156-.125-5.917969 7.933594c-1.230468 1.636718-1.566406 3.769531-.910156 5.691406zm0 0"/><path d="m114.964844 41.789062 17.25 12.199219-.269532 21.132813c-.027343 2.375 1.265626 4.519531 3.382813 5.59375.894531.457031 1.859375.683594 2.816406.683594 1.308594 0 2.605469-.417969 3.703125-1.238282l16.933594-12.636718 20.011719 6.789062c2.25.761719 4.6875.191406 6.371093-1.488281 1.679688-1.679688 2.25-4.121094 1.488282-6.375l-6.785156-20.007813 12.632812-16.929687c1.421875-1.902344 1.636719-4.402344.558594-6.519531-1.078125-2.121094-3.25-3.417969-5.601563-3.390626l-21.128906.269532-12.195313-17.242188c-1.371093-1.945312-3.679687-2.921875-6.027343-2.550781-2.351563.371094-4.25 2.007813-4.957031 4.28125l-6.269532 20.175781-20.179687 6.273438c-2.273438.707031-3.910157 2.605468-4.28125 4.953125-.367188 2.351562.609375 4.660156 2.546875 6.027343zm28.398437-6.699218c1.9375-.605469 3.457031-2.121094 4.070313-4.078125l3.6875-11.859375 7.171875 10.136718c1.160156 1.644532 3.050781 2.625 5.09375 2.625h.046875l12.421875-.160156-7.425781 9.953125c-1.226563 1.636719-1.5625 3.773438-.90625 5.699219l3.988281 11.765625-11.753907-3.984375c-1.933593-.664062-4.070312-.324219-5.707031.898438l-9.957031 7.429687.160156-12.410156c.03125-2.046875-.949218-3.972657-2.617187-5.152344l-10.144531-7.171875zm0 0"/><path d="m321.378906 221.050781 2.039063 11.828125c25.976562-4.472656 52.589843-2.429687 76.953125 5.910156l3.886718-11.351562c-26.261718-8.992188-54.921874-11.199219-82.878906-6.386719zm0 0"/><path d="m211.164062 285.167969 8.484376 8.484375 13.925781-13.925782c19.894531-19.894531 44.496093-34.585937 71.144531-42.480468l-3.410156-11.507813c-28.558594 8.464844-54.914063 24.199219-76.21875 45.503907zm0 0"/><path d="m246.039062 84.136719c-1.40625-6.921875-3.273437-13.8125-5.558593-20.480469l-11.351563 3.886719c2.113282 6.179687 3.847656 12.566406 5.148438 18.980469zm0 0"/><path d="m248.074219 96.5625-11.90625 1.488281c5.152343 41.234375-6.730469 84.484375-32.609375 118.65625l9.566406 7.246094c27.75-36.644531 40.488281-83.078125 34.949219-127.390625zm0 0"/><path d="m188.1875 234.339844-13.921875 13.925781 8.484375 8.484375 13.925781-13.925781c1.976563-1.976563 3.933594-4.027344 5.820313-6.09375l-8.867188-8.089844c-1.761718 1.9375-3.59375 3.851563-5.441406 5.699219zm0 0"/><path d="m344.1875 296.980469c9.0625 2.757812 18.191406 6.417969 27.140625 10.875l5.351563-10.738281c-9.542969-4.757813-19.300782-8.664063-28.996094-11.617188zm0 0"/><path d="m230.875 306.519531-9.515625 9.515625 8.484375 8.488282 9.515625-9.519532c20.617187-20.613281 52.773437-28.667968 88.222656-22.097656l2.1875-11.796875c-39.394531-7.304687-75.441406 1.957031-98.894531 25.410156zm0 0"/><path d="m170.550781 90.988281-10.738281 5.351563c4.519531 9.070312 8.214844 18.324218 10.988281 27.507812l11.488281-3.464844c-2.96875-9.832031-6.914062-19.722656-11.738281-29.394531zm0 0"/><path d="m143.144531 237.824219 8.488281 8.484375 9.515626-9.515625c23.449218-23.453125 32.714843-59.496094 25.410156-98.886719l-11.796875 2.1875c6.570312 35.449219-1.484375 67.601562-22.097657 88.214844zm0 0"/><path d="m360.242188 98.9375 8.484374 8.484375-82.933593 82.933594-8.484375-8.484375zm0 0"/><path d="m273.839844 202.316406-55.214844 55.214844-8.484375-8.484375 55.214844-55.214844zm0 0"/><path d="m185.007812 291.148438-8.484374-8.484376 24.128906-24.132812 8.488281 8.484375zm0 0"/></svg>